SplineFontDB: 3.0
FontName: Classica
FullName: Classica
FamilyName: Classica
Weight: Book
Copyright: Copyright (c) 2011, wmk69 (wmk69@o2.pl)\nwith Reserved Font Name 'Classica'.\n\nThis Font Software is licensed under the SIL Open Font License, Version 1.1.\nThis license is available with a FAQ at:\nhttp://scripts.sil.org/OFL
Version: 1.001
ItalicAngle: 0
UnderlinePosition: -81
UnderlineWidth: 122
Ascent: 1638
Descent: 410
LayerCount: 2
Layer: 0 1 "Warstwa t+AUIA-a"  1
Layer: 1 1 "Plan pierwszy"  0
XUID: [1021 783 23647091 2952791]
FSType: 0
OS2Version: 3
OS2_WeightWidthSlopeOnly: 0
OS2_UseTypoMetrics: 1
CreationTime: 1260698820
ModificationTime: 1320780925
PfmFamily: 17
TTFWeight: 400
TTFWidth: 5
LineGap: 0
VLineGap: 0
Panose: 2 1 5 5 2 4 4 6 2 4
OS2TypoAscent: 2000
OS2TypoAOffset: 0
OS2TypoDescent: -500
OS2TypoDOffset: 0
OS2TypoLinegap: 0
OS2WinAscent: 2000
OS2WinAOffset: 0
OS2WinDescent: 500
OS2WinDOffset: 0
HheadAscent: 2000
HheadAOffset: 0
HheadDescent: -500
HheadDOffset: 0
OS2SubXSize: 1434
OS2SubYSize: 1331
OS2SubXOff: 0
OS2SubYOff: 287
OS2SupXSize: 1434
OS2SupYSize: 1331
OS2SupXOff: 0
OS2SupYOff: 977
OS2StrikeYSize: 102
OS2StrikeYPos: 512
OS2Vendor: '    '
OS2CodePages: 20000093.00000000
OS2UnicodeRanges: 8000002f.4000204b.00000000.00000000
Lookup: 258 0 0 "'kern' Kerning poziomy w tablicy 0"  {"Podtablica 'kern' Kerning poziomy w tablicy 0-0"  } []
MarkAttachClasses: 1
DEI: 91125
KernClass2: 31 22 "Podtablica 'kern' Kerning poziomy w tablicy 0-0" 
 79 A Agrave Aacute Acircumflex Atilde Adieresis Aring Amacron Abreve Aogonek Delta
 242 B C D G O Ccedilla Eth Ograve Oacute Ocircumflex Otilde Odieresis Oslash germandbls Cacute Ccircumflex Cdotaccent Ccaron Dcaron Dcroat Gcircumflex Gbreve Gdotaccent Gcommaaccent Omacron Obreve Ohungarumlaut uni01E4 Oslashacute uni1E02 uni1E0A
 17 F uni0191 uni1E1E
 14 K Kcommaaccent
 40 L Lacute Lcommaaccent Lcaron Ldot Lslash
 9 M uni1E40
 9 P uni1E56
 57 S Sacute Scircumflex Scedilla Scaron Scommaaccent uni1E60

StartChar: .notdef
Encoding: 65536 -1 0
Width: 844
Flags: W
HStem: 0 68<218 626> 1297 68<218 626>
VStem: 150 68<68 1297> 626 68<68 1297>
LayerCount: 2
Fore
SplineSet
150 0 m 1,0,-1
 150 1365 l 1,1,-1
 694 1365 l 1,2,-1
 694 0 l 1,3,-1
 150 0 l 1,0,-1
218 68 m 1,4,-1
 626 68 l 1,5,-1
 626 1297 l 1,6,-1
 218 1297 l 1,7,-1
 218 68 l 1,4,-1
EndSplineSet
Validated: 1
EndChar

StartChar: exclam
Encoding: 33 33 4
Width: 692
GlyphClass: 2
Flags: W
HStem: -20 264<255.191 436.809> 1490 20G<216 476>
VStem: 216 260<19.7072 204.293> 256 180<593.552 1505.31> 276 140<350 966.448>
LayerCount: 2
Fore
SplineSet
216 1510 m 1,0,-1
 476 1510 l 1,1,2
 439 1360 439 1360 436 1210 c 2,3,-1
 416 350 l 25,4,-1
 276 350 l 25,5,-1
 256 1210 l 2,6,7
 253 1360 253 1360 216 1510 c 1,0,-1
216 112 m 128,-1,9
 216 167 216 167 254 205.5 c 128,-1,10
 292 244 292 244 346 244 c 128,-1,11
 400 244 400 244 438 205.5 c 128,-1,12
 476 167 476 167 476 112 c 128,-1,13
 476 57 476 57 438 18.5 c 128,-1,14
 400 -20 400 -20 346 -20 c 128,-1,15
 292 -20 292 -20 254 18.5 c 128,-1,8
 216 57 216 57 216 112 c 128,-1,9
EndSplineSet
Validated: 1
EndChar

StartChar: quotedbl
Encoding: 34 34 5
Width: 908
GlyphClass: 2
Flags: W
HStem: 1120 410<230 380 528 678>
VStem: 230 150<1120 1525.29> 528 150<1120 1525.29>
LayerCount: 2
Fore
SplineSet
498 1530 m 1,0,-1
 708 1530 l 1,1,2
 678 1380 678 1380 678 1120 c 9,3,-1
 528 1120 l 17,4,5
 528 1380 528 1380 498 1530 c 1,0,-1
200 1530 m 1,6,-1
 410 1530 l 1,7,8
 380 1380 380 1380 380 1120 c 9,9,-1
 230 1120 l 17,10,11
 230 1380 230 1380 200 1530 c 1,6,-1
EndSplineSet
Validated: 1
EndChar

StartChar: numbersign
Encoding: 35 35 6
Width: 1359
GlyphClass: 2
Flags: W
HStem: 514 124<204.813 444 570 788 915 1155.13> 858 124<203.844 444 571 788 915 1154.16>
VStem: 446 124<271.844 513 639 857 983 1222.16> 790 124<273.812 513 639 857 983 1224.09>
LayerCount: 2
Fore
SplineSet
570 858 m 1,0,-1
 570 638 l 1,1,-1
 790 638 l 1,2,-1
 790 858 l 1,3,-1
 570 858 l 1,0,-1
416 1226 m 1,4,-1
 600 1226 l 1,5,6
 575 1104 575 1104 571 982 c 1,7,-1
 788 982 l 1,8,9
 784 1103 784 1103 760 1228 c 1,10,-1
 944 1228 l 1,11,12
 919 1105 919 1105 915 983 c 1,13,14
 1035 988 1035 988 1158 1012 c 1,15,-1
 1158 828 l 1,16,17
 1035 852 1035 852 914 857 c 1,18,-1
 914 639 l 1,19,20
 1035 644 1035 644 1159 668 c 1,21,-1
 1159 484 l 1,22,23
 1036 508 1036 508 915 513 c 1,24,25
 919 391 919 391 944 270 c 1,26,-1
 760 270 l 1,27,28
 784 392 784 392 788 514 c 1,29,-1
 570 514 l 1,30,31
 575 391 575 391 600 268 c 1,32,-1
 416 268 l 1,33,34
 440 391 440 391 444 513 c 1,35,36
 323 508 323 508 201 484 c 1,37,-1
 201 668 l 1,38,39
 323 644 323 644 446 639 c 1,40,-1
 446 857 l 1,41,42
 323 853 323 853 200 828 c 1,43,-1
 200 1012 l 1,44,45
 322 988 322 988 444 983 c 1,46,47
 440 1103 440 1103 416 1226 c 1,4,-1
EndSplineSet
Validated: 1
EndChar

StartChar: dollar
Encoding: 36 36 7
Width: 1115
GlyphClass: 2
Flags: W
HStem: -20 124<339.274 512> 1406 124<612 726.126>
VStem: 192 184<1075.81 1328.38> 512 100<-180 -19 122 715 1000 1394 1530 1690> 823 192<261.305 578.262> 829 10<1223 1232.66>
DStem2: 512 1000 437 812 0.874157 -0.485643<-154.655 0 225.824 451.752>
LayerCount: 2
Fore
SplineSet
612 -180 m 1,0,-1
 512 -182 l 1,1,-1
 512 -19 l 1,2,3
 499 -20 499 -20 486 -20 c 0,4,5
 270 -20 270 -20 120 128 c 1,6,-1
 120 389 l 1,7,-1
 130 389 l 1,8,9
 171 301 171 301 223 242 c 0,10,11
 346 104 346 104 498 104 c 0,12,13
 505 104 505 104 512 104 c 1,14,-1
 512 770 l 1,15,-1
 437 812 l 2,16,17
 192 948 192 948 192 1190 c 0,18,19
 192 1348 192 1348 343 1461 c 0,20,21
 410 1511 410 1511 512 1525 c 1,22,-1
 512 1690 l 1,23,-1
 612 1690 l 1,24,-1
 612 1530 l 1,25,26
 741 1525 741 1525 839 1434 c 1,27,-1
 839 1223 l 1,28,-1
 829 1223 l 1,29,30
 814 1254 814 1254 795 1284 c 0,31,32
 722 1399 722 1399 612 1406 c 1,33,-1
 612 946 l 1,34,-1
 726 886 l 2,35,36
 1015 733 1015 733 1015 453 c 0,37,38
 1015 251 1015 251 875 130 c 0,39,40
 754 25 754 25 612 -7 c 1,41,-1
 612 -180 l 1,0,-1
512 1000 m 1,42,-1
 512 1394 l 1,43,44
 475 1382 475 1382 448 1358 c 0,45,46
 376 1294 376 1294 376 1199 c 0,47,48
 376 1077 376 1077 512 1000 c 1,42,-1
612 715 m 1,49,-1
 612 122 l 1,50,51
 688 149 688 149 746 215 c 0,52,53
 823 303 823 303 823 429 c 0,54,55
 823 598 823 598 653 692 c 2,56,-1
 612 715 l 1,49,-1
EndSplineSet
Validated: 1
EndChar

StartChar: percent
Encoding: 37 37 8
Width: 1572
GlyphClass: 2
Flags: W
HStem: -20 92<993.982 1181.47> 0 21G<333 575.5> 488 92<994.772 1181.23> 930 92<389.982 577.466> 1438 92<390.772 577.228> 1490 20G<1013.5 1253>
VStem: 200 140<1076.19 1384.01> 628 140<1075.99 1384.01> 804 140<126.188 434.007> 1232 140<125.993 434.007>
DStem2: 931 1225 1099 1251 0.417626 0.908619<-1265.1 296.171>
LayerCount: 2
Fore
SplineSet
1232 280 m 128,-1,1
 1232 378 1232 378 1191 433 c 128,-1,2
 1150 488 1150 488 1088 488 c 128,-1,3
 1026 488 1026 488 985 433 c 128,-1,4
 944 378 944 378 944 280 c 128,-1,5
 944 182 944 182 985 127 c 128,-1,6
 1026 72 1026 72 1088 72 c 128,-1,7
 1150 72 1150 72 1191 127 c 128,-1,0
 1232 182 1232 182 1232 280 c 128,-1,1
1088 580 m 128,-1,9
 1216 580 1216 580 1296 486 c 0,10,11
 1372 397 1372 397 1372 280 c 128,-1,12
 1372 163 1372 163 1296 74 c 0,13,14
 1217 -20 1217 -20 1088 -20 c 0,15,16
 957 -20 957 -20 879 74 c 0,17,18
 804 164 804 164 804 280 c 0,19,20
 804 397 804 397 880 486 c 0,21,8
 960 580 960 580 1088 580 c 128,-1,9
628 1230 m 128,-1,23
 628 1328 628 1328 587 1383 c 128,-1,24
 546 1438 546 1438 484 1438 c 128,-1,25
 422 1438 422 1438 381 1383 c 128,-1,26
 340 1328 340 1328 340 1230 c 128,-1,27
 340 1132 340 1132 381 1077 c 128,-1,28
 422 1022 422 1022 484 1022 c 128,-1,29
 546 1022 546 1022 587 1077 c 128,-1,22
 628 1132 628 1132 628 1230 c 128,-1,23
484 1530 m 128,-1,31
 612 1530 612 1530 692 1436 c 0,32,33
 768 1347 768 1347 768 1230 c 128,-1,34
 768 1113 768 1113 692 1024 c 0,35,36
 613 930 613 930 484 930 c 0,37,38
 353 930 353 930 275 1024 c 0,39,40
 200 1114 200 1114 200 1230 c 0,41,42
 200 1347 200 1347 276 1436 c 0,43,30
 356 1530 356 1530 484 1530 c 128,-1,31
333 0 m 1,44,45
 421 116 421 116 487 259 c 10,46,-1
 931 1225 l 2,47,48
 996 1366 996 1366 1031 1510 c 1,49,-1
 1253 1510 l 1,50,51
 1165 1394 1165 1394 1099 1251 c 2,52,-1
 655 285 l 2,53,54
 596 157 596 157 555 0 c 1,55,-1
 333 0 l 1,44,45
EndSplineSet
Validated: 1
EndChar

StartChar: quotesingle
Encoding: 39 39 9
Width: 610
GlyphClass: 2
Flags: W
HStem: 1120 410<230 380>
VStem: 230 150<1120 1525.29>
LayerCount: 2
Fore
SplineSet
200 1530 m 1,0,-1
 410 1530 l 1,1,2
 380 1380 380 1380 380 1120 c 9,3,-1
 230 1120 l 17,4,5
 230 1380 230 1380 200 1530 c 1,0,-1
EndSplineSet
Validated: 1
EndChar

StartChar: parenleft
Encoding: 40 40 10
Width: 807
GlyphClass: 2
Flags: W
VStem: 200 200<375.126 1134.87>
LayerCount: 2
Fore
SplineSet
530 1760 m 1,0,-1
 657 1760 l 1,1,2
 400 1340 400 1340 400 755 c 128,-1,3
 400 170 400 170 657 -250 c 1,4,-1
 530 -250 l 1,5,6
 200 218 200 218 200 755 c 128,-1,7
 200 1292 200 1292 530 1760 c 1,0,-1
EndSplineSet
Validated: 1
EndChar

StartChar: parenright
Encoding: 41 41 11
Width: 807
GlyphClass: 2
Flags: W
VStem: 407 200<375.126 1134.87>
LayerCount: 2
Fore
SplineSet
150 1760 m 1,0,-1
 277 1760 l 1,1,2
 607 1292 607 1292 607 755 c 128,-1,3
 607 218 607 218 277 -250 c 1,4,-1
 150 -250 l 1,5,6
 407 170 407 170 407 755 c 128,-1,7
 407 1340 407 1340 150 1760 c 1,0,-1
EndSplineSet
Validated: 1
EndChar

StartChar: asterisk
Encoding: 42 42 12
Width: 1213
GlyphClass: 2
Flags: W
HStem: 1490 20G<515 699>
VStem: 545 124<681.659 986 1201 1505.13>
LayerCount: 2
Fore
SplineSet
515 1510 m 1,0,1
 699 1510 l 1,2,3
 669 1355 669 1355 669 1201 c 1,4,5
 806 1274 806 1274 921 1381 c 1,6,-1
 1013 1222 l 1,7,8
 865 1172 865 1172 731 1094 c 1,9,10
 869 1018 869 1018 1013 965 c 1,11,-1
 921 806 l 1,12,13
 807 906 807 906 669 986 c 1,14,15
 669 826 669 826 699 677 c 1,16,-1
 515 677 l 1,17,18
 545 826 545 826 545 986 c 1,19,20
 404 912 404 912 292 806 c 1,21,-1
 200 965 l 1,22,23
 345 1014 345 1014 483 1094 c 1,24,25
 347 1168 347 1168 200 1222 c 1,26,-1
 292 1381 l 1,27,28
 402 1280 402 1280 545 1201 c 1,29,30
 545 1354 545 1354 515 1510 c 1,0,1
EndSplineSet
Validated: 1
EndChar

StartChar: plus
Encoding: 43 43 13
Width: 1233
GlyphClass: 2
Flags: W
HStem: 668 154<204.688 540 694 1028.25>
VStem: 540 154<332.688 668 822 1157.25>
LayerCount: 2
Fore
SplineSet
510 1162 m 1,0,-1
 724 1162 l 1,1,2
 694 1010 694 1010 694 862 c 2,3,-1
 694 822 l 1,4,-1
 733 822 l 2,5,6
 881 822 881 822 1033 852 c 1,7,-1
 1033 638 l 1,8,9
 882 668 882 668 733 668 c 2,10,-1
 694 668 l 1,11,-1
 694 628 l 2,12,13
 694 478 694 478 724 328 c 1,14,-1
 510 328 l 1,15,16
 540 478 540 478 540 628 c 2,17,-1
 540 668 l 1,18,-1
 500 668 l 2,19,20
 350 668 350 668 200 638 c 1,21,-1
 200 852 l 1,22,23
 350 822 350 822 500 822 c 2,24,-1
 540 822 l 1,25,-1
 540 862 l 2,26,27
 540 1010 540 1010 510 1162 c 1,0,-1
EndSplineSet
Validated: 1
EndChar

StartChar: comma
Encoding: 44 44 14
Width: 678
GlyphClass: 2
Flags: W
HStem: -292 572
VStem: 307 171<-112.368 95.0098>
LayerCount: 2
Fore
SplineSet
355 280 m 1,0,1
 478 180 478 180 478 45 c 0,2,3
 478 -177 478 -177 200 -292 c 1,4,-1
 200 -282 l 1,5,6
 307 -162 307 -162 307 -24 c 0,7,8
 307 74 307 74 215 140 c 1,9,-1
 355 280 l 1,0,1
EndSplineSet
Validated: 1
EndChar

StartChar: hyphen
Encoding: 45 45 15
Width: 1233
GlyphClass: 2
Flags: W
HStem: 668 154<204.688 1028.25>
LayerCount: 2
Fore
SplineSet
200 852 m 1,0,1
 350 822 350 822 500 822 c 2,2,-1
 733 822 l 2,3,4
 881 822 881 822 1033 852 c 1,5,-1
 1033 638 l 1,6,7
 882 668 882 668 733 668 c 2,8,-1
 500 668 l 2,9,10
 350 668 350 668 200 638 c 1,11,-1
 200 852 l 1,0,1
EndSplineSet
Validated: 1
EndChar

StartChar: period
Encoding: 46 46 16
Width: 660
GlyphClass: 2
Flags: W
HStem: -20 264<239.191 420.809>
VStem: 200 260<19.7072 204.293>
LayerCount: 2
Fore
SplineSet
200 112 m 128,-1,1
 200 167 200 167 238 205.5 c 128,-1,2
 276 244 276 244 330 244 c 128,-1,3
 384 244 384 244 422 205.5 c 128,-1,4
 460 167 460 167 460 112 c 128,-1,5
 460 57 460 57 422 18.5 c 128,-1,6
 384 -20 384 -20 330 -20 c 128,-1,7
 276 -20 276 -20 238 18.5 c 128,-1,0
 200 57 200 57 200 112 c 128,-1,1
EndSplineSet
Validated: 1
EndChar

StartChar: slash
Encoding: 47 47 17
Width: 1126
GlyphClass: 2
Flags: W
DStem2: 774 1405 962 1431 0.417928 0.90848<-1652.97 296.024>
LayerCount: 2
Fore
SplineSet
10 -180 m 1,0,1
 109 -41 109 -41 164 79 c 10,2,-1
 774 1405 l 2,3,4
 837 1542 837 1542 874 1690 c 1,5,-1
 1116 1690 l 1,6,7
 1022 1562 1022 1562 962 1431 c 2,8,-1
 352 105 l 2,9,10
 295 -19 295 -19 252 -180 c 1,11,-1
 10 -180 l 1,0,1
EndSplineSet
Validated: 1
EndChar

StartChar: zero
Encoding: 48 48 18
Width: 1404
GlyphClass: 2
Flags: W
HStem: -20 124<568.712 839.386> 1406 124<564.614 838.888>
VStem: 150 220<413.721 1098.4> 1034 220<411.598 1096.28>
LayerCount: 2
Fore
SplineSet
702 -20 m 128,-1,1
 482 -20 482 -20 329 158 c 0,2,3
 150 365 150 365 150 755 c 128,-1,4
 150 1145 150 1145 329 1352 c 0,5,6
 482 1530 482 1530 702 1530 c 128,-1,7
 922 1530 922 1530 1075 1352 c 0,8,9
 1254 1145 1254 1145 1254 755 c 128,-1,10
 1254 365 1254 365 1075 158 c 0,11,0
 922 -20 922 -20 702 -20 c 128,-1,1
370 755 m 0,12,13
 370 414 370 414 465 262 c 0,14,15
 564 104 564 104 702 104 c 0,16,17
 844 104 844 104 939 262 c 128,-1,18
 1034 420 1034 420 1034 755 c 0,19,20
 1034 1096 1034 1096 939 1248 c 0,21,22
 842 1406 842 1406 702 1406 c 0,23,24
 560 1406 560 1406 465 1248 c 128,-1,25
 370 1090 370 1090 370 755 c 0,12,13
EndSplineSet
Validated: 1
EndChar

StartChar: one
Encoding: 49 49 19
Width: 762
GlyphClass: 2
Flags: W
HStem: 0 21G<282 542> 1510 20G<438 527>
VStem: 312 200<4.6875 1333.12>
DStem2: 10 1215 88 1125 0.716263 0.69783<0 295.019>
LayerCount: 2
Fore
SplineSet
282 0 m 1,0,1
 312 150 312 150 312 300 c 2,2,-1
 312 1180 l 2,3,4
 312 1258 312 1258 304 1336 c 1,5,-1
 88 1125 l 1,6,-1
 10 1215 l 1,7,-1
 282 1480 l 1,8,-1
 542 1530 l 1,9,10
 512 1360 512 1360 512 1230 c 2,11,-1
 512 300 l 2,12,13
 512 150 512 150 542 0 c 1,14,-1
 282 0 l 1,0,1
EndSplineSet
Validated: 1
EndChar

StartChar: two
Encoding: 50 50 20
Width: 1250
GlyphClass: 2
Flags: W
HStem: 0 154<321 1095.28> 1121 21G<199 228> 1406 124<408.737 712.76>
VStem: 860 218<907.826 1256.9>
LayerCount: 2
Fore
SplineSet
120 0 m 1,0,1
 174 352 174 352 636 704 c 0,2,3
 860 876 860 876 860 1077 c 0,4,5
 860 1218 860 1218 782 1304 c 0,6,7
 690 1406 690 1406 554 1406 c 0,8,9
 422 1406 422 1406 302 1268 c 0,10,11
 247 1204 247 1204 209 1121 c 1,12,-1
 199 1121 l 1,13,-1
 199 1382 l 1,14,15
 349 1530 349 1530 570 1530 c 0,16,17
 781 1530 781 1530 917 1414 c 0,18,19
 1078 1277 1078 1277 1078 1078 c 0,20,21
 1078 801 1078 801 704 566 c 0,22,23
 405 378 405 378 321 154 c 1,24,-1
 800 154 l 2,25,26
 949 154 949 154 1100 184 c 1,27,-1
 1100 0 l 1,28,-1
 120 0 l 1,0,1
EndSplineSet
Validated: 1
EndChar

StartChar: three
Encoding: 51 51 21
Width: 1143
GlyphClass: 2
Flags: W
HStem: -20 124<317.67 649.274> 795 110<584 641.047> 1386 124<196.595 738>
VStem: 803 220<260.609 641.118>
DStem2: 380 868 584 905 0.568549 0.822649<146.422 629.424>
LayerCount: 2
Fore
SplineSet
100 128 m 1,0,-1
 100 389 l 1,1,-1
 110 389 l 1,2,3
 150 301 150 301 203 242 c 0,4,5
 327 104 327 104 477 104 c 128,-1,6
 627 104 627 104 723 208 c 0,7,8
 803 296 803 296 803 450 c 0,9,10
 803 616 803 616 713 700 c 0,11,12
 612 795 612 795 431 795 c 9,13,-1
 380 868 l 9,14,-1
 738 1386 l 17,15,-1
 492 1386 l 2,16,17
 339 1386 339 1386 192 1356 c 1,18,-1
 192 1510 l 1,19,-1
 930 1510 l 1,20,-1
 952 1386 l 1,21,22
 851 1289 851 1289 753 1148 c 10,23,-1
 584 905 l 17,24,25
 738 905 738 905 872 801 c 8,26,27
 1023 683 1023 683 1023 456 c 0,28,29
 1023 253 1023 253 862 107 c 0,30,31
 722 -20 722 -20 465 -20 c 0,32,33
 250 -20 250 -20 100 128 c 1,0,-1
EndSplineSet
Validated: 1
EndChar

StartChar: five
Encoding: 53 53 22
Width: 1143
GlyphClass: 2
Flags: W
HStem: -20 124<317.67 649.951> 804 126<377.715 646.408> 1386 124<397 907.743>
VStem: 803 220<259.874 648.548>
LayerCount: 2
Fore
SplineSet
100 128 m 1,0,-1
 100 389 l 1,1,-1
 110 389 l 1,2,3
 150 301 150 301 203 242 c 0,4,5
 327 104 327 104 477 104 c 0,6,7
 630 104 630 104 723 206 c 0,8,9
 803 295 803 295 803 450 c 0,10,11
 803 616 803 616 717 705 c 24,12,13
 621 804 621 804 467 804 c 0,14,15
 399 804 399 804 335 776 c 9,16,-1
 179 901 l 17,17,-1
 274 1510 l 1,18,-1
 912 1510 l 1,19,-1
 912 1356 l 1,20,21
 776 1386 776 1386 612 1386 c 2,22,-1
 397 1386 l 9,23,-1
 376 918 l 17,24,25
 440 930 440 930 498 930 c 0,26,27
 726 930 726 930 872 801 c 0,28,29
 1023 668 1023 668 1023 456 c 0,30,31
 1023 253 1023 253 862 107 c 0,32,33
 722 -20 722 -20 465 -20 c 0,34,35
 250 -20 250 -20 100 128 c 1,0,-1
EndSplineSet
Validated: 1
EndChar

StartChar: six
Encoding: 54 54 23
Width: 1348
GlyphClass: 2
Flags: W
HStem: -20 124<552.781 846.898> 896 124<552.291 842.286> 1406 124<595.596 898.5>
VStem: 150 220<854 1073.02> 992 206<281.472 728.203> 1068 10<1144 1152.12>
LayerCount: 2
Fore
SplineSet
697 104 m 0,0,1
 842 104 842 104 922 226 c 0,2,3
 992 333 992 333 992 501 c 0,4,5
 992 676 992 676 922 774 c 0,6,7
 833 896 833 896 702 896 c 0,8,9
 559 896 559 896 472 774 c 0,10,11
 392 662 392 662 392 501 c 0,12,13
 392 333 392 333 472 226 c 0,14,15
 563 104 563 104 697 104 c 0,0,1
1078 1144 m 1,16,-1
 1068 1144 l 1,17,18
 939 1406 939 1406 760 1406 c 0,19,20
 599 1406 599 1406 490 1266 c 0,21,22
 370 1112 370 1112 370 854 c 1,23,24
 506 1020 506 1020 702 1020 c 0,25,26
 929 1020 929 1020 1071 858 c 0,27,28
 1198 713 1198 713 1198 500 c 0,29,30
 1198 294 1198 294 1063 136 c 0,31,32
 930 -20 930 -20 702 -20 c 0,33,34
 482 -20 482 -20 329 158 c 0,35,36
 150 365 150 365 150 754 c 0,37,38
 150 1126 150 1126 342 1348 c 0,39,40
 498 1530 498 1530 752 1530 c 0,41,42
 958 1530 958 1530 1078 1405 c 1,43,-1
 1078 1144 l 1,16,-1
EndSplineSet
Validated: 1
EndChar

StartChar: seven
Encoding: 55 55 24
Width: 1022
GlyphClass: 2
Flags: W
HStem: 0 21G<243 511> 1386 124<54.7798 712>
DStem2: 355 280 559 297 0.307179 0.951652<-215.31 1158.03>
LayerCount: 2
Fore
SplineSet
243 0 m 1,0,1
 312 146 312 146 355 280 c 2,2,-1
 712 1386 l 17,3,-1
 350 1386 l 2,4,5
 203 1386 203 1386 50 1356 c 1,6,-1
 50 1510 l 1,7,-1
 910 1510 l 1,8,-1
 932 1386 l 1,9,10
 869 1258 869 1258 820 1106 c 2,11,-1
 559 297 l 2,12,13
 517 167 517 167 505 0 c 1,14,-1
 243 0 l 1,0,1
EndSplineSet
Validated: 1
EndChar

StartChar: eight
Encoding: 56 56 25
Width: 1227
GlyphClass: 2
Flags: W
HStem: -20 124<438.029 770.511> 1406 124<491.497 759.675>
VStem: 120 147<273.498 604.699> 237 184<1075.33 1337.86> 845 147<1025.21 1318.94> 915 192<246.961 548.567>
LayerCount: 2
Fore
SplineSet
687 931 m 1,0,1
 845 1014 845 1014 845 1166 c 0,2,3
 845 1271 845 1271 787 1336 c 0,4,5
 724 1406 724 1406 629 1406 c 0,6,7
 545 1406 545 1406 484 1356 c 0,8,9
 421 1303 421 1303 421 1200 c 0,10,11
 421 1072 421 1072 571 993 c 2,12,-1
 687 931 l 1,0,1
120 444 m 0,13,14
 120 713 120 713 410 859 c 1,15,16
 237 988 237 988 237 1189 c 0,17,18
 237 1348 237 1348 389 1465 c 0,19,20
 474 1530 474 1530 614 1530 c 0,21,22
 764 1530 764 1530 864 1443 c 0,23,24
 992 1333 992 1333 992 1166 c 0,25,26
 992 970 992 970 803 863 c 1,27,28
 1107 724 1107 724 1107 436 c 0,29,30
 1107 249 1107 249 964 112 c 0,31,32
 826 -20 826 -20 617 -20 c 0,33,34
 405 -20 405 -20 266 108 c 0,35,36
 120 242 120 242 120 444 c 0,13,14
541 781 m 1,37,38
 267 672 267 672 267 439 c 0,39,40
 267 294 267 294 374 195 c 0,41,42
 474 104 474 104 606 104 c 0,43,44
 744 104 744 104 838 203 c 0,45,46
 915 286 915 286 915 417 c 0,47,48
 915 572 915 572 700 692 c 2,49,-1
 541 781 l 1,37,38
EndSplineSet
Validated: 1
EndChar

StartChar: nine
Encoding: 57 57 26
Width: 1348
GlyphClass: 2
Flags: W
HStem: -20 124<449.5 752.404> 490 124<505.714 795.709> 1406 124<501.102 795.219>
VStem: 150 206<781.797 1228.53> 270 10<357.876 366> 978 220<436.977 656>
LayerCount: 2
Fore
SplineSet
651 1406 m 0,0,1
 506 1406 506 1406 426 1284 c 0,2,3
 356 1177 356 1177 356 1009 c 0,4,5
 356 834 356 834 426 736 c 0,6,7
 515 614 515 614 646 614 c 0,8,9
 789 614 789 614 876 736 c 0,10,11
 956 848 956 848 956 1009 c 0,12,13
 956 1177 956 1177 876 1284 c 0,14,15
 785 1406 785 1406 651 1406 c 0,0,1
270 366 m 1,16,-1
 280 366 l 1,17,18
 409 104 409 104 588 104 c 0,19,20
 749 104 749 104 858 244 c 0,21,22
 978 398 978 398 978 656 c 1,23,24
 842 490 842 490 646 490 c 0,25,26
 419 490 419 490 277 652 c 0,27,28
 150 797 150 797 150 1010 c 0,29,30
 150 1216 150 1216 285 1374 c 0,31,32
 418 1530 418 1530 646 1530 c 0,33,34
 866 1530 866 1530 1019 1352 c 0,35,36
 1198 1145 1198 1145 1198 756 c 0,37,38
 1198 384 1198 384 1006 162 c 0,39,40
 850 -20 850 -20 596 -20 c 0,41,42
 390 -20 390 -20 270 105 c 1,43,-1
 270 366 l 1,16,-1
EndSplineSet
Validated: 1
EndChar

StartChar: colon
Encoding: 58 58 27
Width: 662
GlyphClass: 2
Flags: W
HStem: -20 264<241.191 422.809> 622 264<239.191 420.809>
VStem: 202 260<19.7072 204.293 661.707 846.293>
LayerCount: 2
Fore
SplineSet
202 112 m 128,-1,1
 202 167 202 167 240 205.5 c 128,-1,2
 278 244 278 244 332 244 c 128,-1,3
 386 244 386 244 424 205.5 c 128,-1,4
 462 167 462 167 462 112 c 128,-1,5
 462 57 462 57 424 18.5 c 128,-1,6
 386 -20 386 -20 332 -20 c 128,-1,7
 278 -20 278 -20 240 18.5 c 128,-1,0
 202 57 202 57 202 112 c 128,-1,1
200 754 m 128,-1,9
 200 809 200 809 238 847.5 c 128,-1,10
 276 886 276 886 330 886 c 128,-1,11
 384 886 384 886 422 847.5 c 128,-1,12
 460 809 460 809 460 754 c 128,-1,13
 460 699 460 699 422 660.5 c 128,-1,14
 384 622 384 622 330 622 c 128,-1,15
 276 622 276 622 238 660.5 c 128,-1,8
 200 699 200 699 200 754 c 128,-1,9
EndSplineSet
Validated: 1
EndChar

StartChar: semicolon
Encoding: 59 59 28
Width: 678
GlyphClass: 2
Flags: W
HStem: 622 264<239.191 420.809>
VStem: 200 260<661.707 846.293> 307 171<-112.368 95.0098>
LayerCount: 2
Fore
SplineSet
200 754 m 128,-1,1
 200 809 200 809 238 847.5 c 128,-1,2
 276 886 276 886 330 886 c 128,-1,3
 384 886 384 886 422 847.5 c 128,-1,4
 460 809 460 809 460 754 c 128,-1,5
 460 699 460 699 422 660.5 c 128,-1,6
 384 622 384 622 330 622 c 128,-1,7
 276 622 276 622 238 660.5 c 128,-1,0
 200 699 200 699 200 754 c 128,-1,1
355 280 m 1,8,9
 478 180 478 180 478 45 c 0,10,11
 478 -177 478 -177 200 -292 c 1,12,-1
 200 -282 l 1,13,14
 307 -162 307 -162 307 -24 c 0,15,16
 307 74 307 74 215 140 c 1,17,-1
 355 280 l 1,8,9
EndSplineSet
Validated: 1
EndChar

StartChar: less
Encoding: 60 60 29
Width: 1350
GlyphClass: 2
Flags: W
DStem2: 485 934 435 731 0.916379 0.400313<-126.695 584.123> 435 731 485 552 0.902817 -0.430026<1.34968 716.976>
LayerCount: 2
Fore
SplineSet
200 652 m 1,0,-1
 200 834 l 1,1,2
 341 865 341 865 485 934 c 2,3,-1
 841 1104 l 2,4,5
 982 1172 982 1172 1100 1258 c 1,6,-1
 1100 997 l 1,7,8
 954 958 954 958 815 897 c 2,9,-1
 435 731 l 25,10,-1
 815 550 l 2,11,12
 964 479 964 479 1100 450 c 1,13,-1
 1100 228 l 1,14,15
 971 320 971 320 841 382 c 2,16,-1
 485 552 l 2,17,18
 352 616 352 616 200 652 c 1,0,-1
EndSplineSet
Validated: 1
EndChar

StartChar: equal
Encoding: 61 61 30
Width: 1233
GlyphClass: 2
Flags: W
HStem: 484 154<204.688 1028.25> 852 154<204.688 1028.25>
LayerCount: 2
Fore
SplineSet
200 668 m 1,0,1
 350 638 350 638 500 638 c 2,2,-1
 733 638 l 2,3,4
 881 638 881 638 1033 668 c 1,5,-1
 1033 454 l 1,6,7
 882 484 882 484 733 484 c 2,8,-1
 500 484 l 2,9,10
 350 484 350 484 200 454 c 1,11,-1
 200 668 l 1,0,1
200 1036 m 1,12,13
 350 1006 350 1006 500 1006 c 2,14,-1
 733 1006 l 2,15,16
 881 1006 881 1006 1033 1036 c 1,17,-1
 1033 822 l 1,18,19
 882 852 882 852 733 852 c 2,20,-1
 500 852 l 2,21,22
 350 852 350 852 200 822 c 1,23,-1
 200 1036 l 1,12,13
EndSplineSet
Validated: 1
EndChar

StartChar: greater
Encoding: 62 62 31
Width: 1350
GlyphClass: 2
Flags: W
DStem2: 509 1104 535 936 0.902817 -0.430026<-200.354 515.273> 915 755 509 382 0.916379 0.400313<-711.206 -0.387861>
LayerCount: 2
Fore
SplineSet
1150 834 m 1,0,-1
 1150 652 l 1,1,2
 1009 621 1009 621 865 552 c 2,3,-1
 509 382 l 2,4,5
 368 314 368 314 250 228 c 1,6,-1
 250 489 l 1,7,8
 396 528 396 528 535 589 c 2,9,-1
 915 755 l 25,10,-1
 535 936 l 2,11,12
 386 1007 386 1007 250 1036 c 1,13,-1
 250 1258 l 1,14,15
 379 1166 379 1166 509 1104 c 2,16,-1
 865 934 l 2,17,18
 998 870 998 870 1150 834 c 1,0,-1
EndSplineSet
Validated: 1
EndChar

StartChar: question
Encoding: 63 63 32
Width: 1194
GlyphClass: 2
Flags: W
HStem: -20 264<430.191 611.809> 1121 21G<150 180> 1404 126<362.469 683.736>
VStem: 391 260<19.7072 204.293> 464 106<360 512.928> 843 201<925.141 1251.59>
LayerCount: 2
Fore
SplineSet
150 1382 m 1,0,1
 300 1530 300 1530 515 1530 c 0,2,3
 753 1530 753 1530 904 1392 c 24,4,5
 1044 1263 1044 1263 1044 1081 c 0,6,7
 1044 844 1044 844 780 676 c 24,8,9
 570 542 570 542 570 360 c 9,10,-1
 464 360 l 17,11,12
 464 633 464 633 684 802 c 24,13,14
 843 924 843 924 843 1081 c 0,15,16
 843 1220 843 1220 757 1306 c 0,17,18
 657 1404 657 1404 509 1404 c 0,19,20
 375 1404 375 1404 253 1268 c 0,21,22
 200 1209 200 1209 160 1121 c 1,23,-1
 150 1121 l 1,24,-1
 150 1382 l 1,0,1
391 112 m 128,-1,26
 391 167 391 167 429 205.5 c 128,-1,27
 467 244 467 244 521 244 c 128,-1,28
 575 244 575 244 613 205.5 c 128,-1,29
 651 167 651 167 651 112 c 128,-1,30
 651 57 651 57 613 18.5 c 128,-1,31
 575 -20 575 -20 521 -20 c 128,-1,32
 467 -20 467 -20 429 18.5 c 128,-1,25
 391 57 391 57 391 112 c 128,-1,26
EndSplineSet
Validated: 1
EndChar

StartChar: at
Encoding: 64 64 33
Width: 1352
GlyphClass: 2
Flags: W
HStem: -430 124<564.184 845.267> -20 124<673.572 863.193> 0 21G<922 1182> 598 120<678.433 871.787> 996 124<556.694 820.56>
VStem: 150 188<1.52148 687.995> 436 180<167.679 531.479> 952 200<191.25 513.383 595 833.906> 1018 10<-52.1235 -44>
LayerCount: 2
Fore
SplineSet
707 -306 m 0,0,1
 889 -306 889 -306 1018 -44 c 1,2,-1
 1028 -44 l 1,3,-1
 1028 -305 l 1,4,5
 908 -430 908 -430 702 -430 c 0,6,7
 482 -430 482 -430 329 -252 c 0,8,9
 150 -45 150 -45 150 345 c 128,-1,10
 150 735 150 735 329 942 c 0,11,12
 482 1120 482 1120 702 1120 c 0,13,14
 916 1120 916 1120 1040 960 c 0,15,16
 1152 814 1152 814 1152 550 c 2,17,-1
 1152 300 l 2,18,19
 1152 158 1152 158 1182 0 c 1,20,-1
 922 0 l 1,21,22
 933 55 933 55 940 109 c 1,23,24
 848 -20 848 -20 754 -20 c 0,25,26
 607 -20 607 -20 536 66 c 0,27,28
 436 185 436 185 436 346 c 0,29,30
 436 514 436 514 540 632 c 0,31,32
 617 718 617 718 742 718 c 0,33,34
 857 718 857 718 952 595 c 1,35,36
 952 797 952 797 876 896 c 256,37,38
 799 996 799 996 696 996 c 0,39,40
 554 996 554 996 446 837.5 c 128,-1,41
 338 679 338 679 338 344 c 0,42,43
 338 10 338 10 451 -148 c 128,-1,44
 564 -306 564 -306 707 -306 c 0,0,1
780 598 m 0,45,46
 698 598 698 598 656 524 c 0,47,48
 616 454 616 454 616 345 c 0,49,50
 616 231 616 231 658 168 c 0,51,52
 701 104 701 104 776 104 c 0,53,54
 838 104 838 104 895 173 c 128,-1,55
 952 242 952 242 952 356 c 0,56,57
 952 454 952 454 901 522 c 0,58,59
 844 598 844 598 780 598 c 0,45,46
EndSplineSet
Validated: 1
EndChar

StartChar: A
Encoding: 65 65 34
Width: 1580
GlyphClass: 2
Flags: W
HStem: 0 21G<0 241 1277 1580> 697 114<560 958> 1490 20G<678 902>
DStem2: 599 1225 508 697 0.418402 0.908262<-1265.66 -517.637 -392.338 102.703> 981 1225 758 1268 0.408549 -0.912736<-125.877 368.476 493.773 1242.55>
LayerCount: 2
Fore
SplineSet
0 0 m 1,0,1
 94 129 94 129 154 259 c 2,2,-1
 599 1225 l 2,3,4
 657 1351 657 1351 699 1510 c 1,5,-1
 881 1510 l 1,6,7
 923 1351 923 1351 981 1225 c 2,8,-1
 1426 259 l 2,9,10
 1484 134 1484 134 1580 0 c 1,11,-1
 1298 0 l 1,12,13
 1256 159 1256 159 1198 285 c 2,14,-1
 1010 697 l 1,15,-1
 508 697 l 1,16,-1
 322 285 l 2,17,18
 260 148 260 148 222 0 c 1,19,-1
 0 0 l 1,0,1
560 811 m 1,20,-1
 958 811 l 1,21,-1
 758 1268 l 1,22,-1
 560 811 l 1,20,-1
EndSplineSet
Validated: 1
EndChar

StartChar: B
Encoding: 66 66 35
Width: 1162
GlyphClass: 2
Flags: W
HStem: 0 124<405.625 710.547> 775 125<400 660.5> 1386 124<405.625 668.872>
VStem: 200 200<126.75 775 900 1383.25> 750 184<1000.3 1302.22> 862 200<269.532 622.504>
LayerCount: 2
Fore
SplineSet
170 0 m 1,0,1
 200 150 200 150 200 300 c 2,2,-1
 200 1210 l 2,3,4
 200 1360 200 1360 170 1510 c 1,5,-1
 535 1510 l 2,6,7
 707 1510 707 1510 818 1420 c 0,8,9
 934 1325 934 1325 934 1165 c 0,10,11
 934 1018 934 1018 816 910 c 0,12,13
 768 866 768 866 728 850 c 1,14,15
 833 836 833 836 909 775 c 24,16,17
 1062 652 1062 652 1062 450 c 0,18,19
 1062 263 1062 263 909 125 c 0,20,21
 769 0 769 0 520 0 c 2,22,-1
 170 0 l 1,0,1
410 124 m 1,23,-1
 520 124 l 2,24,25
 678 124 678 124 772 212 c 1,26,27
 862 298 862 298 862 450 c 0,28,29
 862 592 862 592 772 680 c 0,30,31
 675 775 675 775 520 775 c 2,32,-1
 400 775 l 1,33,-1
 400 300 l 2,34,35
 400 212 400 212 410 124 c 1,23,-1
400 900 m 1,36,-1
 536 900 l 2,37,38
 627 900 627 900 690 973 c 0,39,40
 750 1043 750 1043 750 1142 c 0,41,42
 750 1247 750 1247 699 1312 c 0,43,44
 640 1386 640 1386 536 1386 c 2,45,-1
 410 1386 l 1,46,47
 400 1298 400 1298 400 1210 c 2,48,-1
 400 900 l 1,36,-1
EndSplineSet
Validated: 3073
EndChar

StartChar: C
Encoding: 67 67 36
Width: 1536
GlyphClass: 2
Flags: W
HStem: -20 126<657.775 1066.56> 1112 21G<1286.5 1309> 1404 126<657.032 1047.45>
VStem: 100 220<493.923 1015.09>
LayerCount: 2
Fore
SplineSet
1386 412 m 9,0,-1
 1386 208 l 17,1,2
 1166 -20 1166 -20 853 -20 c 128,-1,3
 540 -20 540 -20 320 207.5 c 128,-1,4
 100 435 100 435 100 755 c 128,-1,5
 100 1075 100 1075 320 1302.5 c 128,-1,6
 540 1530 540 1530 853 1530 c 0,7,8
 1114 1530 1114 1530 1309 1373 c 1,9,-1
 1309 1112 l 1,10,-1
 1299 1112 l 1,11,12
 1274 1157 1274 1157 1243 1198 c 0,13,14
 1085 1404 1085 1404 853 1404 c 0,15,16
 618 1404 618 1404 463 1198 c 0,17,18
 320 1008 320 1008 320 755 c 0,19,20
 320 498 320 498 463 312 c 0,21,22
 621 106 621 106 853 106 c 0,23,24
 1153 106 1153 106 1376 412 c 1,25,-1
 1386 412 l 9,0,-1
EndSplineSet
Validated: 1
EndChar

StartChar: D
Encoding: 68 68 37
Width: 1586
GlyphClass: 2
Flags: W
HStem: 0 124<404.5 935.883> 1386 124<405.625 943.5>
VStem: 200 200<126.658 1383.31> 1266 220<500.744 1021.32>
LayerCount: 2
Fore
SplineSet
170 0 m 1,0,1
 200 150 200 150 200 300 c 2,2,-1
 200 1210 l 2,3,4
 200 1360 200 1360 170 1510 c 1,5,-1
 736 1510 l 2,6,7
 1074 1510 1074 1510 1280 1288 c 128,-1,8
 1486 1066 1486 1066 1486 755 c 0,9,10
 1486 462 1486 462 1278 226 c 0,11,12
 1078 0 1078 0 736 0 c 2,13,-1
 170 0 l 1,0,1
408 124 m 1,14,-1
 736 124 l 2,15,16
 972 124 972 124 1132 322 c 0,17,18
 1266 489 1266 489 1266 755 c 0,19,20
 1266 1038 1266 1038 1116 1209 c 0,21,22
 961 1386 961 1386 736 1386 c 2,23,-1
 410 1386 l 1,24,25
 400 1300 400 1300 400 1210 c 2,26,-1
 400 300 l 2,27,28
 400 209 400 209 408 124 c 1,14,-1
EndSplineSet
Validated: 1
EndChar

StartChar: E
Encoding: 69 69 38
Width: 1078
GlyphClass: 2
Flags: W
HStem: 0 124<404.689 973.559> 697 124<400 853.312> 1386 124<405.862 853.312>
VStem: 200 200<126.873 697 821 1383.13>
LayerCount: 2
Fore
SplineSet
170 0 m 1,0,1
 200 150 200 150 200 300 c 2,2,-1
 200 1210 l 2,3,4
 200 1360 200 1360 170 1510 c 1,5,-1
 858 1510 l 1,6,-1
 858 1356 l 1,7,8
 708 1386 708 1386 558 1386 c 2,9,-1
 410 1386 l 1,10,11
 400 1294 400 1294 400 1210 c 2,12,-1
 400 821 l 1,13,-1
 558 821 l 2,14,15
 708 821 708 821 858 851 c 1,16,-1
 858 667 l 1,17,18
 708 697 708 697 558 697 c 2,19,-1
 400 697 l 1,20,-1
 400 300 l 2,21,22
 400 216 400 216 408 124 c 1,23,-1
 678 124 l 2,24,25
 836 124 836 124 978 154 c 1,26,-1
 978 0 l 1,27,-1
 170 0 l 1,0,1
EndSplineSet
Validated: 1
EndChar

StartChar: F
Encoding: 70 70 39
Width: 1038
GlyphClass: 2
Flags: W
HStem: 0 21G<170 430> 697 124<400 853.312> 1386 124<405.862 853.312>
VStem: 200 200<4.6875 697 821 1381.7>
LayerCount: 2
Fore
SplineSet
170 0 m 1,0,1
 200 150 200 150 200 300 c 2,2,-1
 200 1210 l 2,3,4
 200 1366 200 1366 170 1510 c 1,5,-1
 858 1510 l 1,6,-1
 858 1356 l 1,7,8
 708 1386 708 1386 558 1386 c 2,9,-1
 410 1386 l 1,10,11
 400 1294 400 1294 400 1210 c 2,12,-1
 400 821 l 1,13,-1
 558 821 l 2,14,15
 708 821 708 821 858 851 c 1,16,-1
 858 667 l 1,17,18
 708 697 708 697 558 697 c 2,19,-1
 400 697 l 1,20,-1
 400 300 l 2,21,22
 400 150 400 150 430 0 c 1,23,-1
 170 0 l 1,0,1
EndSplineSet
Validated: 1
EndChar

StartChar: G
Encoding: 71 71 40
Width: 1626
GlyphClass: 2
Flags: W
HStem: -20 126<657.447 1047.65> 667 154<918 1275.09> 697 123<922.688 1276> 1114 21G<1286 1308> 1404 126<657.527 1050.79>
VStem: 100 220<493.478 1015.58> 1276 200<300.469 697>
LayerCount: 2
Fore
SplineSet
1476 820 m 9,0,-1
 1476 319 l 1,1,2
 1239 -20 1239 -20 853 -20 c 0,3,4
 539 -20 539 -20 318 208 c 0,5,6
 100 433 100 433 100 755 c 0,7,8
 100 1075 100 1075 320 1302.5 c 128,-1,9
 540 1530 540 1530 853 1530 c 0,10,11
 1113 1530 1113 1530 1308 1373 c 1,12,-1
 1308 1114 l 1,13,-1
 1298 1114 l 1,14,15
 1274 1157 1274 1157 1243 1198 c 0,16,17
 1085 1404 1085 1404 853 1404 c 0,18,19
 620 1404 620 1404 463 1198 c 0,20,21
 320 1010 320 1010 320 755 c 0,22,23
 320 498 320 498 463 312 c 0,24,25
 621 106 621 106 853 106 c 0,26,27
 1112 106 1112 106 1276 360 c 1,28,-1
 1276 697 l 17,29,-1
 1218 697 l 2,30,31
 1068 697 1068 697 918 667 c 1,32,-1
 918 821 l 1,33,-1
 1476 820 l 9,0,-1
EndSplineSet
Validated: 1
EndChar

StartChar: H
Encoding: 72 72 41
Width: 1570
GlyphClass: 2
Flags: W
HStem: 0 21G<170 430 1140 1400> 697 124<400 1170> 1490 20G<170 430 1140 1400>
VStem: 200 200<4.6875 697 821 1505.31> 1170 200<4.6875 697 821 1505.31>
LayerCount: 2
Fore
SplineSet
170 0 m 1,0,1
 200 150 200 150 200 300 c 2,2,-1
 200 1210 l 2,3,4
 200 1360 200 1360 170 1510 c 1,5,-1
 430 1510 l 1,6,7
 400 1360 400 1360 400 1210 c 2,8,-1
 400 821 l 1,9,-1
 1170 821 l 1,10,-1
 1170 1210 l 2,11,12
 1170 1360 1170 1360 1140 1510 c 1,13,-1
 1400 1510 l 1,14,15
 1370 1360 1370 1360 1370 1210 c 2,16,-1
 1370 300 l 2,17,18
 1370 150 1370 150 1400 0 c 1,19,-1
 1140 0 l 1,20,21
 1170 150 1170 150 1170 300 c 2,22,-1
 1170 697 l 1,23,-1
 400 697 l 1,24,-1
 400 300 l 2,25,26
 400 150 400 150 430 0 c 1,27,-1
 170 0 l 1,0,1
EndSplineSet
Validated: 1
EndChar

StartChar: I
Encoding: 73 73 42
Width: 600
GlyphClass: 2
Flags: W
HStem: 0 21G<170 430> 1490 20G<170 430>
VStem: 200 200<4.6875 1505.31>
LayerCount: 2
Fore
SplineSet
170 0 m 1,0,1
 200 150 200 150 200 300 c 2,2,-1
 200 1210 l 2,3,4
 200 1360 200 1360 170 1510 c 1,5,-1
 430 1510 l 1,6,7
 400 1360 400 1360 400 1210 c 2,8,-1
 400 300 l 2,9,10
 400 150 400 150 430 0 c 1,11,-1
 170 0 l 1,0,1
EndSplineSet
Validated: 1
EndChar

StartChar: J
Encoding: 74 74 43
Width: 600
GlyphClass: 2
Flags: W
HStem: -200 10<20 25.5811> 1490 20G<170 430>
VStem: 200 200<-62.8652 1505.31>
LayerCount: 2
Fore
SplineSet
170 1510 m 1,0,-1
 430 1510 l 1,1,2
 400 1360 400 1360 400 1210 c 2,3,-1
 400 114 l 2,4,5
 400 -200 400 -200 20 -200 c 9,6,-1
 20 -190 l 1,7,8
 200 -107 200 -107 200 114 c 2,9,-1
 200 1210 l 2,10,11
 200 1360 200 1360 170 1510 c 1,0,-1
EndSplineSet
Validated: 1
EndChar

StartChar: K
Encoding: 75 75 44
Width: 1427
GlyphClass: 2
Flags: W
HStem: 0 21G<170 430 1015 1427> 1490 20G<170 430 996.5 1314>
VStem: 200 200<4.6875 598 790 1505.31>
DStem2: 400 790 573 779 0.69026 0.723562<111.456 963.279> 573 779 441 641 0.721574 -0.692337<0.29471 888.457>
LayerCount: 2
Fore
SplineSet
170 0 m 1,0,1
 200 150 200 150 200 300 c 2,2,-1
 200 1210 l 2,3,4
 200 1360 200 1360 170 1510 c 1,5,-1
 430 1510 l 1,6,7
 400 1360 400 1360 400 1210 c 2,8,-1
 400 790 l 9,9,-1
 862 1273 l 2,10,11
 944 1359 944 1359 1049 1510 c 1,12,-1
 1314 1510 l 1,13,14
 1187 1423 1187 1423 1084 1315 c 2,15,-1
 573 779 l 25,16,-1
 1190 187 l 2,17,18
 1297 85 1297 85 1427 0 c 1,19,-1
 1064 0 l 1,20,21
 966 137 966 137 869 230 c 2,22,-1
 441 641 l 17,23,-1
 400 598 l 1,24,-1
 400 300 l 2,25,26
 400 150 400 150 430 0 c 1,27,-1
 170 0 l 1,0,1
EndSplineSet
Validated: 1
EndChar

StartChar: L
Encoding: 76 76 45
Width: 998
GlyphClass: 2
Flags: W
HStem: 0 124<404.689 973.559> 1490 20G<170 430>
VStem: 200 200<126.873 1505.31>
LayerCount: 2
Fore
SplineSet
170 0 m 1,0,1
 200 150 200 150 200 300 c 2,2,-1
 200 1210 l 2,3,4
 200 1360 200 1360 170 1510 c 1,5,-1
 430 1510 l 1,6,7
 400 1360 400 1360 400 1210 c 2,8,-1
 400 300 l 2,9,10
 400 216 400 216 408 124 c 1,11,-1
 678 124 l 2,12,13
 836 124 836 124 978 154 c 1,14,-1
 978 0 l 1,15,-1
 170 0 l 1,0,1
EndSplineSet
Validated: 1
EndChar

StartChar: M
Encoding: 77 77 46
Width: 2044
GlyphClass: 2
Flags: W
HStem: 0 21G<120 322 870.5 1114.5 1669 1924> 1490 20G<253 479.5 1556 1791>
VStem: 253 210<1359.84 1510> 1578 213<1364.2 1510>
DStem2: 257 1209 395 1162 0.0883714 0.996088<-1027.06 -34.6209> 563 1225 395 1162 0.417005 -0.908904<-9.96487 1077.47> 1014 242 1196 285 0.42686 0.904318<3.64825 1080.4> 1787 1209 1596 1162 0.0883714 -0.996088<29.9372 1022.43>
LayerCount: 2
Fore
SplineSet
120 0 m 1,0,1
 162 142 162 142 176 296 c 2,2,-1
 257 1209 l 2,3,4
 262 1268 262 1268 262 1332 c 0,5,6
 262 1415 262 1415 253 1510 c 1,7,-1
 463 1510 l 1,8,9
 496 1370 496 1370 563 1225 c 2,10,-1
 1014 242 l 25,11,-1
 1478 1225 l 2,12,13
 1534 1343 1534 1343 1578 1510 c 1,14,-1
 1791 1510 l 1,15,16
 1782 1417 1782 1417 1782 1332 c 0,17,18
 1782 1269 1782 1269 1787 1209 c 2,19,-1
 1868 296 l 2,20,21
 1882 142 1882 142 1924 0 c 1,22,-1
 1669 0 l 1,23,24
 1679 86 1679 86 1679 171 c 0,25,26
 1679 234 1679 234 1673 301 c 2,27,-1
 1596 1162 l 25,28,-1
 1196 285 l 2,29,30
 1133 148 1133 148 1096 0 c 1,31,-1
 889 0 l 1,32,33
 852 144 852 144 789 285 c 2,34,-1
 395 1162 l 25,35,-1
 318 301 l 2,36,37
 312 236 312 236 312 171 c 0,38,39
 312 82 312 82 322 0 c 1,40,-1
 120 0 l 1,0,1
EndSplineSet
Validated: 1
EndChar

StartChar: N
Encoding: 78 78 47
Width: 1570
GlyphClass: 2
Flags: W
HStem: 0 21G<170 372 1155 1400> 1490 20G<170 416.5 1198 1400>
VStem: 200 142<4.6875 1195> 1228 142<330 1505.31>
DStem2: 536 1252 342 1195 0.595187 -0.803588<-65.4726 1152.73>
LayerCount: 2
Fore
SplineSet
170 0 m 1,0,1
 200 150 200 150 200 300 c 2,2,-1
 200 1210 l 2,3,4
 200 1360 200 1360 170 1510 c 1,5,-1
 379 1510 l 1,6,7
 454 1361 454 1361 536 1252 c 2,8,-1
 1228 330 l 17,9,-1
 1228 1210 l 2,10,11
 1228 1360 1228 1360 1198 1510 c 1,12,-1
 1400 1510 l 1,13,14
 1370 1360 1370 1360 1370 1210 c 2,15,-1
 1370 300 l 2,16,17
 1370 150 1370 150 1400 0 c 1,18,-1
 1193 0 l 1,19,20
 1117 149 1117 149 1036 258 c 2,21,-1
 342 1195 l 17,22,-1
 342 300 l 2,23,24
 342 150 342 150 372 0 c 1,25,-1
 170 0 l 1,0,1
EndSplineSet
Validated: 1
EndChar

StartChar: O
Encoding: 79 79 48
Width: 1706
GlyphClass: 2
Flags: W
HStem: -20 126<657.775 1048.22> 1404 126<657.775 1048.22>
VStem: 100 220<494.418 1016.33> 1386 220<494.418 1016.33>
LayerCount: 2
Fore
SplineSet
1386 755 m 0,0,1
 1386 1013 1386 1013 1243 1198 c 0,2,3
 1085 1404 1085 1404 853 1404 c 128,-1,4
 621 1404 621 1404 463 1198 c 0,5,6
 320 1013 320 1013 320 755 c 0,7,8
 320 500 320 500 463 312 c 0,9,10
 621 106 621 106 853 106 c 128,-1,11
 1085 106 1085 106 1243 312 c 0,12,13
 1386 500 1386 500 1386 755 c 0,0,1
853 -20 m 128,-1,15
 540 -20 540 -20 320 207.5 c 128,-1,16
 100 435 100 435 100 755 c 128,-1,17
 100 1075 100 1075 320 1302.5 c 128,-1,18
 540 1530 540 1530 853 1530 c 128,-1,19
 1166 1530 1166 1530 1386 1302.5 c 128,-1,20
 1606 1075 1606 1075 1606 755 c 128,-1,21
 1606 435 1606 435 1386 207.5 c 128,-1,14
 1166 -20 1166 -20 853 -20 c 128,-1,15
EndSplineSet
Validated: 1
EndChar

StartChar: P
Encoding: 80 80 49
Width: 1162
GlyphClass: 2
Flags: W
HStem: 0 21G<170 430> 610 125<400 691.422> 1386 124<405.625 691.422>
VStem: 200 200<4.6875 610 735 1383.25> 842 220<879.666 1240.33>
LayerCount: 2
Fore
SplineSet
170 0 m 1,0,1
 200 150 200 150 200 300 c 2,2,-1
 200 1210 l 2,3,4
 200 1360 200 1360 170 1510 c 1,5,-1
 520 1510 l 2,6,7
 769 1510 769 1510 909 1385 c 0,8,9
 1062 1247 1062 1247 1062 1060 c 128,-1,10
 1062 873 1062 873 909 735 c 0,11,12
 769 610 769 610 520 610 c 2,13,-1
 400 610 l 1,14,-1
 400 300 l 2,15,16
 400 150 400 150 430 0 c 1,17,-1
 170 0 l 1,0,1
400 735 m 1,18,-1
 520 735 l 2,19,20
 666 735 666 735 761 831 c 0,21,22
 842 913 842 913 842 1060 c 128,-1,23
 842 1207 842 1207 761 1289 c 0,24,25
 665 1386 665 1386 520 1386 c 2,26,-1
 410 1386 l 1,27,28
 400 1298 400 1298 400 1210 c 2,29,-1
 400 735 l 1,18,-1
EndSplineSet
Validated: 1
EndChar

StartChar: Q
Encoding: 81 81 50
Width: 1706
GlyphClass: 2
Flags: W
HStem: -20 126<657.527 1050.07> 0 21G<1318 1656> 1404 126<657.527 1048.22>
VStem: 100 220<494.418 1015.58> 1386 220<495.538 1016.08>
DStem2: 1259 334 1138 230 0.738093 -0.674699<-277.674 1.37656>
LayerCount: 2
Fore
SplineSet
1656 0 m 1,0,-1
 1333 0 l 1,1,2
 1303 51 1303 51 1261 102 c 1,3,4
 1082 -20 1082 -20 853 -20 c 0,5,6
 540 -20 540 -20 320 207.5 c 128,-1,7
 100 435 100 435 100 755 c 128,-1,8
 100 1075 100 1075 320 1302.5 c 128,-1,9
 540 1530 540 1530 853 1530 c 128,-1,10
 1166 1530 1166 1530 1386 1302.5 c 128,-1,11
 1606 1075 1606 1075 1606 755 c 0,12,13
 1606 439 1606 439 1391 213 c 1,14,-1
 1419 187 l 2,15,16
 1528 88 1528 88 1656 0 c 1,0,-1
753 552 m 1,17,-1
 1076 552 l 1,18,19
 1157 428 1157 428 1259 334 c 2,20,-1
 1268 325 l 1,21,22
 1386 545 1386 545 1386 755 c 0,23,24
 1386 1012 1386 1012 1243 1198 c 0,25,26
 1085 1404 1085 1404 853 1404 c 0,27,28
 620 1404 620 1404 463 1198 c 0,29,30
 320 1010 320 1010 320 755 c 128,-1,31
 320 500 320 500 463 312 c 0,32,33
 620 106 620 106 853 106 c 0,34,35
 1023 106 1023 106 1153 216 c 1,36,-1
 1138 230 l 1,37,-1
 990 365 l 2,38,39
 889 457 889 457 753 552 c 1,17,-1
EndSplineSet
Validated: 1
EndChar

StartChar: R
Encoding: 82 82 51
Width: 1262
GlyphClass: 2
Flags: W
HStem: 0 21G<170 430 931 1262> 610 125<400 588.937> 1386 124<405.625 691.422>
VStem: 200 200<4.6875 610 735 1383.25> 842 220<878.917 1240.33>
DStem2: 790 659 590 613 0.555153 -0.831748<0 637.204>
LayerCount: 2
Fore
SplineSet
400 735 m 1,0,-1
 520 735 l 2,1,2
 666 735 666 735 761 831 c 0,3,4
 842 913 842 913 842 1060 c 128,-1,5
 842 1207 842 1207 761 1289 c 0,6,7
 665 1386 665 1386 520 1386 c 2,8,-1
 410 1386 l 1,9,10
 400 1298 400 1298 400 1210 c 2,11,-1
 400 735 l 1,0,-1
170 0 m 1,12,13
 200 150 200 150 200 300 c 2,14,-1
 200 1210 l 2,15,16
 200 1360 200 1360 170 1510 c 1,17,-1
 520 1510 l 2,18,19
 769 1510 769 1510 909 1385 c 0,20,21
 1062 1247 1062 1247 1062 1060 c 0,22,23
 1062 870 1062 870 909 735 c 0,24,25
 857 689 857 689 790 659 c 1,26,-1
 1073 235 l 2,27,28
 1162 103 1162 103 1262 0 c 1,29,-1
 959 0 l 1,30,31
 903 145 903 145 821 268 c 2,32,-1
 590 613 l 1,33,34
 556 610 556 610 520 610 c 2,35,-1
 400 610 l 1,36,-1
 400 300 l 2,37,38
 400 150 400 150 430 0 c 1,39,-1
 170 0 l 1,12,13
EndSplineSet
Validated: 1
EndChar

StartChar: S
Encoding: 83 83 52
Width: 1055
GlyphClass: 2
Flags: W
HStem: -20 124<294.041 632.984> 1406 124<409.804 685.679>
VStem: 152 184<1074.79 1330.55> 783 192<255.334 578.262> 789 10<1223 1232.66>
DStem2: 484 993 397 812 0.874157 -0.485643<-168.544 437.863>
LayerCount: 2
Fore
SplineSet
80 128 m 1,0,-1
 80 389 l 1,1,-1
 90 389 l 1,2,3
 130 301 130 301 183 242 c 0,4,5
 304 104 304 104 458 104 c 0,6,7
 615 104 615 104 706 208 c 0,8,9
 783 296 783 296 783 429 c 0,10,11
 783 598 783 598 613 692 c 2,12,-1
 397 812 l 2,13,14
 152 948 152 948 152 1190 c 0,15,16
 152 1358 152 1358 302 1465 c 0,17,18
 393 1530 393 1530 557 1530 c 0,19,20
 695 1530 695 1530 799 1434 c 1,21,-1
 799 1223 l 1,22,-1
 789 1223 l 1,23,24
 774 1254 774 1254 755 1284 c 0,25,26
 677 1406 677 1406 558 1406 c 0,27,28
 458 1406 458 1406 405 1358 c 0,29,30
 336 1296 336 1296 336 1199 c 0,31,32
 336 1071 336 1071 484 993 c 2,33,-1
 686 886 l 2,34,35
 975 733 975 733 975 453 c 0,36,37
 975 247 975 247 834 118 c 24,38,39
 683 -20 683 -20 445 -20 c 0,40,41
 230 -20 230 -20 80 128 c 1,0,-1
EndSplineSet
Validated: 19457
EndChar

StartChar: T
Encoding: 84 84 53
Width: 1110
GlyphClass: 2
Flags: W
HStem: 0 21G<425 685> 1386 124<24.6875 449.375 660.625 1085.31>
VStem: 455 200<4.6875 1383.25>
LayerCount: 2
Fore
SplineSet
425 0 m 1,0,1
 455 150 455 150 455 300 c 2,2,-1
 455 1210 l 2,3,4
 455 1298 455 1298 445 1386 c 1,5,-1
 320 1386 l 2,6,7
 170 1386 170 1386 20 1356 c 1,8,-1
 20 1510 l 1,9,-1
 1090 1510 l 1,10,-1
 1090 1356 l 1,11,12
 940 1386 940 1386 790 1386 c 2,13,-1
 665 1386 l 1,14,15
 655 1298 655 1298 655 1210 c 2,16,-1
 655 300 l 2,17,18
 655 150 655 150 685 0 c 1,19,-1
 425 0 l 1,0,1
EndSplineSet
Validated: 1
EndChar

StartChar: U
Encoding: 85 85 54
Width: 1570
GlyphClass: 2
Flags: W
HStem: -20 151<604.141 962.499> 0 21G<1140 1400> 1490 20G<170 430 1140 1400>
VStem: 200 200<360.109 1505.31> 1170 200<364.588 1505.31>
LayerCount: 2
Fore
SplineSet
1400 0 m 1,0,-1
 1140 0 l 1,1,2
 1158 88 1158 88 1165 176 c 1,3,4
 986 -20 986 -20 756 -20 c 0,5,6
 495 -20 495 -20 338 166 c 0,7,8
 200 329 200 329 200 646 c 2,9,-1
 200 1210 l 2,10,11
 200 1360 200 1360 170 1510 c 1,12,-1
 430 1510 l 1,13,14
 400 1360 400 1360 400 1210 c 2,15,-1
 400 648 l 2,16,17
 400 420 400 420 472 304 c 24,18,19
 582 131 582 131 785 131 c 0,20,21
 975 131 975 131 1086 288 c 0,22,23
 1170 407 1170 407 1170 648 c 2,24,-1
 1170 1210 l 2,25,26
 1170 1360 1170 1360 1140 1510 c 1,27,-1
 1400 1510 l 1,28,29
 1370 1360 1370 1360 1370 1210 c 2,30,-1
 1370 300 l 2,31,32
 1370 150 1370 150 1400 0 c 1,0,-1
EndSplineSet
Validated: 3073
EndChar

StartChar: V
Encoding: 86 86 55
Width: 1580
GlyphClass: 2
Flags: W
HStem: 0 21G<678 902> 1490 20G<0 303 1339 1580>
DStem2: 382 1225 154 1251 0.418402 -0.908262<-295.638 1056.48> 822 262 981 285 0.418402 0.908262<3.00629 1353.08>
LayerCount: 2
Fore
SplineSet
699 0 m 1,0,1
 657 159 657 159 599 285 c 2,2,-1
 154 1251 l 2,3,4
 96 1376 96 1376 0 1510 c 1,5,-1
 282 1510 l 1,6,7
 324 1351 324 1351 382 1225 c 2,8,-1
 822 262 l 25,9,-1
 1258 1225 l 2,10,11
 1320 1362 1320 1362 1358 1510 c 1,12,-1
 1580 1510 l 1,13,14
 1484 1378 1484 1378 1426 1251 c 2,15,-1
 981 285 l 2,16,17
 923 159 923 159 881 0 c 1,18,-1
 699 0 l 1,0,1
EndSplineSet
Validated: 1
EndChar

StartChar: W
Encoding: 87 87 56
Width: 1984
GlyphClass: 2
Flags: W
HStem: 0 301<308.5 834.5 1149.5 1675.5> 1163 347<754.5 1296.5>
VStem: 1769 195<1419.11 1510>
DStem2: 336 1213 132 1230 0.280829 -0.959758<-295.46 949.811> 605 301 738 297 0.282906 0.959148<1.16275 936.27> 1177 1213 992 1163 0.282906 -0.959148<-4.38032 949.393> 1446 301 1579 297 0.280829 0.959758<0.883233 1246.3>
LayerCount: 2
Fore
SplineSet
459 0 m 1,0,1
 447 154 447 154 405 297 c 2,2,-1
 132 1230 l 2,3,4
 85 1389 85 1389 20 1510 c 1,5,-1
 282 1510 l 1,6,7
 294 1355 294 1355 336 1213 c 2,8,-1
 605 301 l 9,9,-1
 874 1213 l 2,10,11
 916 1355 916 1355 928 1510 c 1,12,-1
 1123 1510 l 1,13,14
 1135 1355 1135 1355 1177 1213 c 2,15,-1
 1446 301 l 1,16,-1
 1715 1213 l 2,17,18
 1757 1355 1757 1355 1769 1510 c 1,19,-1
 1964 1510 l 1,20,21
 1899 1389 1899 1389 1852 1230 c 2,22,-1
 1579 297 l 2,23,24
 1537 154 1537 154 1525 0 c 1,25,-1
 1300 0 l 1,26,27
 1288 154 1288 154 1246 297 c 2,28,-1
 992 1163 l 1,29,-1
 738 297 l 2,30,31
 696 154 696 154 684 0 c 1,32,-1
 459 0 l 1,0,1
EndSplineSet
Validated: 1
EndChar

StartChar: X
Encoding: 88 88 57
Width: 1383
GlyphClass: 2
Flags: W
HStem: 0 21G<40 304 1012 1343> 1490 20G<40 370.5 1073 1343>
DStem2: 481 1242 229 1275 0.555652 -0.831415<-294.803 415.194 628.534 1338.49> 593 730 671 613 0.579571 0.814922<-774.655 -50.1393 205.061 928.936>
LayerCount: 2
Fore
SplineSet
40 0 m 1,0,1
 151 108 151 108 237 229 c 2,2,-1
 593 730 l 1,3,-1
 229 1275 l 2,4,5
 140 1407 140 1407 40 1510 c 1,6,-1
 343 1510 l 1,7,8
 398 1366 398 1366 481 1242 c 2,9,-1
 712 897 l 1,10,-1
 961 1247 l 2,11,12
 1038 1356 1038 1356 1108 1510 c 1,13,-1
 1343 1510 l 1,14,15
 1235 1406 1235 1406 1146 1281 c 2,16,-1
 790 780 l 1,17,-1
 1154 235 l 2,18,19
 1243 103 1243 103 1343 0 c 1,20,-1
 1040 0 l 1,21,22
 984 145 984 145 902 268 c 2,23,-1
 671 613 l 1,24,-1
 422 263 l 2,25,26
 333 137 333 137 275 0 c 1,27,-1
 40 0 l 1,0,1
EndSplineSet
Validated: 1
EndChar

StartChar: Y
Encoding: 89 89 58
Width: 1323
GlyphClass: 2
Flags: W
HStem: 0 21G<530 790> 1490 20G<0 309 1068 1323>
VStem: 560 200<4.6875 629>
DStem2: 690 764 180 1268 0.515893 -0.856653<-843.255 0> 690 764 760 629 0.514101 0.85773<0 843.727>
LayerCount: 2
Fore
SplineSet
530 0 m 1,0,1
 560 150 560 150 560 300 c 2,2,-1
 560 637 l 25,3,-1
 180 1268 l 2,4,5
 100 1402 100 1402 0 1510 c 1,6,-1
 286 1510 l 1,7,8
 332 1380 332 1380 415 1237 c 2,9,-1
 690 764 l 25,10,-1
 967 1237 l 2,11,12
 1040 1362 1040 1362 1096 1510 c 1,13,-1
 1323 1510 l 1,14,15
 1221 1399 1221 1399 1143 1268 c 2,16,-1
 760 629 l 25,17,-1
 760 300 l 2,18,19
 760 148 760 148 790 0 c 1,20,-1
 530 0 l 1,0,1
EndSplineSet
Validated: 1
EndChar

StartChar: Z
Encoding: 90 90 59
Width: 1358
GlyphClass: 2
Flags: W
HStem: 0 124<321 1273.74> 1386 124<192.78 1005>
DStem2: 261 349 321 124 0.588079 0.808804<-145.568 1272.61>
LayerCount: 2
Fore
SplineSet
103 0 m 1,0,-1
 60 124 l 1,1,2
 173 227 173 227 261 349 c 2,3,-1
 1005 1386 l 17,4,-1
 488 1386 l 2,5,6
 341 1386 341 1386 188 1356 c 1,7,-1
 188 1510 l 1,8,-1
 1238 1510 l 1,9,-1
 1276 1386 l 1,10,11
 1165 1284 1165 1284 1075 1161 c 2,12,-1
 321 124 l 17,13,-1
 978 124 l 2,14,15
 1142 124 1142 124 1278 154 c 1,16,-1
 1278 0 l 1,17,-1
 103 0 l 1,0,-1
EndSplineSet
Validated: 19457
EndChar

StartChar: bracketleft
Encoding: 91 91 60
Width: 803
GlyphClass: 2
Flags: W
HStem: -250 154<408.703 753> -250 124<405.486 748.559> 1606 154<410.672 753> 1636 124<404.104 748.312>
VStem: 200 200<-121.5 1633.31>
LayerCount: 2
Fore
SplineSet
170 1760 m 1,0,-1
 753 1760 l 1,1,-1
 753 1606 l 1,2,3
 603 1636 603 1636 453 1636 c 2,4,-1
 410 1636 l 1,5,6
 400 1591 400 1591 400 1460 c 2,7,-1
 400 50 l 2,8,9
 400 7 400 7 408 -126 c 1,10,-1
 453 -126 l 2,11,12
 611 -126 611 -126 753 -96 c 1,13,-1
 753 -250 l 1,14,-1
 170 -250 l 1,15,16
 200 -143 200 -143 200 50 c 2,17,-1
 200 1460 l 2,18,19
 200 1569 200 1569 170 1760 c 1,0,-1
EndSplineSet
Validated: 1
EndChar

StartChar: backslash
Encoding: 92 92 61
Width: 1126
GlyphClass: 2
Flags: W
DStem2: 352 1405 164 1431 0.417928 -0.90848<-296.024 1652.97>
LayerCount: 2
Fore
SplineSet
1116 -180 m 1,0,1
 874 -180 l 1,2,3
 831 -19 831 -19 774 105 c 2,4,-1
 164 1431 l 2,5,6
 104 1562 104 1562 10 1690 c 1,7,-1
 252 1690 l 1,8,9
 289 1542 289 1542 352 1405 c 2,10,-1
 962 79 l 18,11,12
 1017 -41 1017 -41 1116 -180 c 1,0,1
EndSplineSet
Validated: 1
EndChar

StartChar: bracketright
Encoding: 93 93 62
Width: 803
GlyphClass: 2
Flags: W
HStem: -250 154<50 394.297> -250 124<54.4414 397.514> 1606 154<50 392.328> 1636 124<54.6875 398.896>
VStem: 403 200<-121.5 1633.31>
LayerCount: 2
Fore
SplineSet
50 1760 m 1,0,-1
 633 1760 l 1,1,2
 603 1569 603 1569 603 1460 c 2,3,-1
 603 50 l 2,4,5
 603 -143 603 -143 633 -250 c 1,6,-1
 50 -250 l 1,7,-1
 50 -96 l 1,8,9
 192 -126 192 -126 350 -126 c 2,10,-1
 395 -126 l 1,11,12
 403 7 403 7 403 50 c 2,13,-1
 403 1460 l 2,14,15
 403 1591 403 1591 393 1636 c 1,16,-1
 350 1636 l 2,17,18
 200 1636 200 1636 50 1606 c 1,19,-1
 50 1760 l 1,0,-1
EndSplineSet
Validated: 1
EndChar

StartChar: asciicircum
Encoding: 94 94 63
Width: 1153
GlyphClass: 2
Flags: W
HStem: 1200 330
LayerCount: 2
Fore
SplineSet
457 1530 m 1,0,-1
 696 1530 l 1,1,2
 750 1355 750 1355 953 1210 c 1,3,-1
 953 1200 l 1,4,-1
 710 1200 l 1,5,6
 618 1298 618 1298 576 1429 c 1,7,8
 534 1298 534 1298 443 1200 c 1,9,-1
 200 1200 l 1,10,-1
 200 1210 l 1,11,12
 403 1355 403 1355 457 1530 c 1,0,-1
EndSplineSet
Validated: 1
EndChar

StartChar: underscore
Encoding: 95 95 64
Width: 1233
GlyphClass: 2
Flags: W
HStem: -194 124<204.688 1028.25>
LayerCount: 2
Fore
SplineSet
200 -40 m 1,0,1
 350 -70 350 -70 500 -70 c 2,2,-1
 733 -70 l 2,3,4
 881 -70 881 -70 1033 -40 c 1,5,-1
 1033 -224 l 1,6,7
 882 -194 882 -194 733 -194 c 2,8,-1
 500 -194 l 2,9,10
 350 -194 350 -194 200 -224 c 1,11,-1
 200 -40 l 1,0,1
EndSplineSet
Validated: 1
EndChar

StartChar: grave
Encoding: 96 96 65
Width: 799
GlyphClass: 2
Flags: W
HStem: 1200 330
VStem: 200 399
LayerCount: 2
Fore
SplineSet
200 1530 m 1,0,-1
 442 1530 l 1,1,2
 442 1366 442 1366 599 1210 c 1,3,-1
 599 1200 l 9,4,-1
 456 1200 l 17,5,6
 268 1345 268 1345 200 1520 c 1,7,-1
 200 1530 l 1,0,-1
EndSplineSet
Validated: 1
EndChar

StartChar: a
Encoding: 97 97 66
Width: 1356
GlyphClass: 2
Flags: W
HStem: -20 124<488.487 786.617> 0 21G<926 1186> 996 124<489.148 787.237>
VStem: 100 220<322.557 780.514> 956 200<303.818 796.182>
LayerCount: 2
Fore
SplineSet
1186 0 m 1,0,-1
 926 0 l 1,1,2
 937 55 937 55 944 109 c 1,3,4
 832 -20 832 -20 638 -20 c 0,5,6
 392 -20 392 -20 244 157 c 0,7,8
 100 329 100 329 100 550 c 0,9,10
 100 774 100 774 244 943 c 0,11,12
 395 1120 395 1120 638 1120 c 0,13,14
 836 1120 836 1120 940 995 c 1,15,16
 935 1032 935 1032 926 1070 c 1,17,-1
 1186 1120 l 1,18,19
 1156 974 1156 974 1156 820 c 2,20,-1
 1156 300 l 2,21,22
 1156 150 1156 150 1186 0 c 1,0,-1
956 550 m 128,-1,24
 956 756 956 756 868 874 c 0,25,26
 777 996 777 996 638 996 c 128,-1,27
 499 996 499 996 408 874 c 0,28,29
 320 756 320 756 320 550 c 128,-1,30
 320 344 320 344 408 226 c 0,31,32
 499 104 499 104 638 104 c 128,-1,33
 777 104 777 104 868 226 c 0,34,23
 956 344 956 344 956 550 c 128,-1,24
EndSplineSet
Validated: 1
EndChar

StartChar: b
Encoding: 98 98 67
Width: 1356
GlyphClass: 2
Flags: W
HStem: -20 124<569.383 867.073> 0 21G<170 430> 996 124<570.871 867.293> 1510 20G<326 415>
VStem: 200 200<303.818 796.182 976 1475.31> 1036 220<321.813 777.691>
LayerCount: 2
Fore
SplineSet
1036 550 m 128,-1,1
 1036 756 1036 756 948 874 c 0,2,3
 857 996 857 996 718 996 c 128,-1,4
 579 996 579 996 488 874 c 0,5,6
 400 756 400 756 400 550 c 128,-1,7
 400 344 400 344 488 226 c 0,8,9
 579 104 579 104 718 104 c 128,-1,10
 857 104 857 104 948 226 c 0,11,0
 1036 344 1036 344 1036 550 c 128,-1,1
170 0 m 1,12,13
 200 157 200 157 200 300 c 2,14,-1
 200 1180 l 2,15,16
 200 1330 200 1330 170 1480 c 1,17,-1
 430 1530 l 1,18,19
 400 1380 400 1380 400 1230 c 10,20,-1
 400 976 l 1,21,22
 513 1120 513 1120 718 1120 c 16,23,24
 963 1120 963 1120 1112 943 c 0,25,26
 1256 772 1256 772 1256 550 c 0,27,28
 1255 326 1255 326 1112 157 c 0,29,30
 962 -20 962 -20 718 -20 c 0,31,32
 524 -20 524 -20 412 109 c 1,33,34
 419 55 419 55 430 0 c 1,35,-1
 170 0 l 1,12,13
EndSplineSet
Validated: 1
EndChar

StartChar: c
Encoding: 99 99 68
Width: 1152
GlyphClass: 2
Flags: W
HStem: -20 124<488.907 821.587> 996 124<489.63 788.719>
VStem: 100 220<320.04 779.21>
LayerCount: 2
Fore
SplineSet
1032 352 m 1,0,-1
 1032 157 l 1,1,2
 882 -20 882 -20 638 -20 c 0,3,4
 395 -20 395 -20 244 157 c 0,5,6
 100 326 100 326 100 551 c 0,7,8
 100 774 100 774 244 943 c 0,9,10
 395 1120 395 1120 638 1120 c 0,11,12
 837 1120 837 1120 971 1004 c 1,13,-1
 971 737 l 1,14,-1
 961 737 l 1,15,16
 923 815 923 815 876 874 c 256,17,18
 776 996 776 996 638 996 c 0,19,20
 501 996 501 996 408 874 c 256,21,22
 321 760 321 760 320 550 c 0,23,24
 320 346 320 346 408 226 c 256,25,26
 498 104 498 104 638 104 c 0,27,28
 876 104 876 104 1022 352 c 257,29,-1
 1032 352 l 1,0,-1
EndSplineSet
Validated: 1
EndChar

StartChar: d
Encoding: 100 100 69
Width: 1356
GlyphClass: 2
Flags: W
HStem: -20 124<488.487 786.617> 0 21G<926 1186> 996 124<489.148 785.129> 1510 20G<1082 1171>
VStem: 100 220<322.557 780.514> 956 200<303.818 796.182 976 1475.31>
LayerCount: 2
Fore
SplineSet
956 550 m 128,-1,1
 956 756 956 756 868 874 c 0,2,3
 777 996 777 996 638 996 c 128,-1,4
 499 996 499 996 408 874 c 0,5,6
 320 756 320 756 320 550 c 128,-1,7
 320 344 320 344 408 226 c 0,8,9
 499 104 499 104 638 104 c 128,-1,10
 777 104 777 104 868 226 c 0,11,0
 956 344 956 344 956 550 c 128,-1,1
1186 0 m 1,12,-1
 926 0 l 1,13,14
 937 55 937 55 944 109 c 1,15,16
 832 -20 832 -20 638 -20 c 0,17,18
 392 -20 392 -20 244 157 c 0,19,20
 100 329 100 329 100 550 c 0,21,22
 100 774 100 774 244 943 c 0,23,24
 395 1120 395 1120 638 1120 c 0,25,26
 843 1120 843 1120 956 976 c 1,27,-1
 956 1180 l 2,28,29
 956 1330 956 1330 926 1480 c 1,30,-1
 1186 1530 l 1,31,32
 1156 1380 1156 1380 1156 1230 c 2,33,-1
 1156 300 l 2,34,35
 1156 150 1156 150 1186 0 c 1,12,-1
EndSplineSet
Validated: 1
EndChar

StartChar: e
Encoding: 101 101 70
Width: 1236
GlyphClass: 2
Flags: W
HStem: -20 124<499.937 863.423> 487 124<322 930> 996 124<489.61 781.465>
VStem: 100 222<322.936 487 611 778.551> 930 206<611 820.331>
LayerCount: 2
Fore
SplineSet
1073 352 m 1,0,-1
 1073 157 l 1,1,2
 923 -20 923 -20 679 -20 c 0,3,4
 393 -20 393 -20 244 157 c 0,5,6
 100 329 100 329 100 550 c 0,7,8
 100 774 100 774 244 943 c 0,9,10
 396 1120 396 1120 638 1120 c 0,11,12
 896 1120 896 1120 1038 921 c 0,13,14
 1136 784 1136 784 1136 550 c 1,15,-1
 1130 487 l 1,16,-1
 322 487 l 1,17,18
 337 313 337 313 408 226 c 256,19,20
 507 104 507 104 684 104 c 0,21,22
 917 104 917 104 1063 352 c 257,23,-1
 1073 352 l 1,0,-1
322 611 m 1,24,-1
 930 611 l 1,25,26
 930 784 930 784 863 874 c 0,27,28
 772 996 772 996 638 996 c 0,29,30
 500 996 500 996 408 874 c 0,31,32
 333 774 333 774 322 611 c 1,24,-1
EndSplineSet
Validated: 1
EndChar

StartChar: f
Encoding: 102 102 71
Width: 840
GlyphClass: 2
Flags: W
HStem: 0 21G<170 430> 775 124<52.4668 200 400 685.315> 1406 124<493.189 737.827>
VStem: 200 200<4.74902 775 899 1293.99> 810 10<1259 1268.04>
LayerCount: 2
Fore
SplineSet
170 0 m 1,0,1
 200 150 200 150 200 300 c 2,2,-1
 200 775 l 1,3,4
 129 775 129 775 50 745 c 1,5,-1
 50 929 l 1,6,7
 128 899 128 899 200 899 c 1,8,-1
 200 1060 l 2,9,10
 200 1257 200 1257 290 1369 c 0,11,12
 421 1530 421 1530 627 1530 c 0,13,14
 734 1530 734 1530 820 1487 c 1,15,-1
 820 1259 l 1,16,-1
 810 1259 l 1,17,18
 742 1406 742 1406 623 1406 c 0,19,20
 498 1406 498 1406 438 1294 c 0,21,22
 400 1223 400 1223 400 1060 c 2,23,-1
 400 899 l 1,24,25
 540 899 540 899 690 929 c 1,26,-1
 690 745 l 1,27,28
 540 775 540 775 400 775 c 1,29,-1
 400 300 l 2,30,31
 400 152 400 152 430 0 c 1,32,-1
 170 0 l 1,0,1
EndSplineSet
Validated: 1
EndChar

StartChar: g
Encoding: 103 103 72
Width: 1356
GlyphClass: 2
Flags: W
HStem: -430 124<410.678 790.487> -20 124<488.487 785.129> 996 124<489.148 787.237>
VStem: 100 220<322.557 780.514> 232 10<-72.707 -61> 956 200<-116.71 124 303.818 796.182>
LayerCount: 2
Fore
SplineSet
956 550 m 128,-1,1
 956 756 956 756 868 874 c 0,2,3
 777 996 777 996 638 996 c 128,-1,4
 499 996 499 996 408 874 c 0,5,6
 320 756 320 756 320 550 c 128,-1,7
 320 344 320 344 408 226 c 0,8,9
 499 104 499 104 638 104 c 128,-1,10
 777 104 777 104 868 226 c 0,11,0
 956 344 956 344 956 550 c 128,-1,1
1186 1120 m 1,12,13
 1156 970 1156 970 1156 820 c 2,14,-1
 1156 137 l 2,15,16
 1156 -106 1156 -106 1032 -253 c 0,17,18
 882 -430 882 -430 609 -430 c 0,19,20
 376 -430 376 -430 232 -322 c 1,21,-1
 232 -61 l 1,22,-1
 242 -61 l 1,23,24
 277 -156 277 -156 334 -208 c 0,25,26
 443 -306 443 -306 605 -306 c 0,27,28
 784 -306 784 -306 868 -194 c 256,29,30
 956 -76 956 -76 956 124 c 1,31,32
 843 -20 843 -20 638 -20 c 0,33,34
 392 -20 392 -20 244 157 c 0,35,36
 100 329 100 329 100 550 c 0,37,38
 100 774 100 774 244 943 c 0,39,40
 395 1120 395 1120 638 1120 c 8,41,42
 836 1120 836 1120 940 995 c 1,43,44
 935 1032 935 1032 926 1070 c 1,45,-1
 1186 1120 l 1,12,13
EndSplineSet
Validated: 1
EndChar

StartChar: h
Encoding: 104 104 73
Width: 1366
GlyphClass: 2
Flags: W
HStem: 0 21G<170 430 936 1196> 996 124<525.296 843.513> 1510 20G<326 415>
VStem: 200 200<4.6875 868.986 976 1475.31> 966 200<4.6875 867.522>
LayerCount: 2
Fore
SplineSet
170 0 m 1,0,1
 200 150 200 150 200 300 c 2,2,-1
 200 1180 l 2,3,4
 200 1330 200 1330 170 1480 c 1,5,-1
 430 1530 l 1,6,7
 400 1380 400 1380 400 1230 c 2,8,-1
 400 976 l 1,9,10
 513 1120 513 1120 739 1120 c 0,11,12
 945 1120 945 1120 1076 959 c 0,13,14
 1166 847 1166 847 1166 650 c 2,15,-1
 1166 300 l 2,16,17
 1166 150 1166 150 1196 0 c 1,18,-1
 936 0 l 1,19,20
 966 150 966 150 966 300 c 2,21,-1
 966 650 l 2,22,23
 966 799 966 799 922 869 c 0,24,25
 842 996 842 996 682.5 996 c 128,-1,26
 523 996 523 996 444 869 c 0,27,28
 400 799 400 799 400 650 c 2,29,-1
 400 300 l 2,30,31
 400 150 400 150 430 0 c 1,32,-1
 170 0 l 1,0,1
EndSplineSet
Validated: 1
EndChar

StartChar: i
Encoding: 105 105 74
Width: 600
GlyphClass: 2
Flags: W
HStem: 0 21G<170 430> 1100 20G<326 415> 1266 264<209.191 390.809>
VStem: 170 260<519.375 1072.76 1305.71 1490.29> 200 200<4.6875 1065.31>
LayerCount: 2
Fore
SplineSet
170 0 m 1,0,1
 200 150 200 150 200 300 c 2,2,-1
 200 770 l 2,3,4
 200 920 200 920 170 1070 c 1,5,-1
 430 1120 l 1,6,7
 400 970 400 970 400 820 c 2,8,-1
 400 300 l 2,9,10
 400 150 400 150 430 0 c 1,11,-1
 170 0 l 1,0,1
170 1398 m 128,-1,13
 170 1453 170 1453 208 1491.5 c 128,-1,14
 246 1530 246 1530 300 1530 c 128,-1,15
 354 1530 354 1530 392 1491.5 c 128,-1,16
 430 1453 430 1453 430 1398 c 128,-1,17
 430 1343 430 1343 392 1304.5 c 128,-1,18
 354 1266 354 1266 300 1266 c 128,-1,19
 246 1266 246 1266 208 1304.5 c 128,-1,12
 170 1343 170 1343 170 1398 c 128,-1,13
EndSplineSet
Validated: 1
EndChar

StartChar: j
Encoding: 106 106 75
Width: 600
GlyphClass: 2
Flags: W
HStem: -430 10<20 25.5811> 1100 20G<326 415> 1266 264<209.191 390.809>
VStem: 170 260<527.5 1072.76 1305.71 1490.29> 200 200<-292.865 1065.31>
LayerCount: 2
Fore
SplineSet
430 1120 m 1,0,1
 400 970 400 970 400 820 c 2,2,-1
 400 -116 l 2,3,4
 400 -430 400 -430 20 -430 c 9,5,-1
 20 -420 l 1,6,7
 200 -337 200 -337 200 -116 c 2,8,-1
 200 770 l 2,9,10
 200 920 200 920 170 1070 c 1,11,-1
 430 1120 l 1,0,1
170 1398 m 128,-1,13
 170 1453 170 1453 208 1491.5 c 128,-1,14
 246 1530 246 1530 300 1530 c 128,-1,15
 354 1530 354 1530 392 1491.5 c 128,-1,16
 430 1453 430 1453 430 1398 c 128,-1,17
 430 1343 430 1343 392 1304.5 c 128,-1,18
 354 1266 354 1266 300 1266 c 128,-1,19
 246 1266 246 1266 208 1304.5 c 128,-1,12
 170 1343 170 1343 170 1398 c 128,-1,13
EndSplineSet
Validated: 1
EndChar

StartChar: k
Encoding: 107 107 76
Width: 1269
GlyphClass: 2
Flags: W
HStem: 0 21G<170 430 869 1269> 1080 20G<801 1101> 1510 20G<326 415>
VStem: 200 200<4.6875 442 633 1475.31>
DStem2: 400 633 569 619 0.726079 0.687611<113.081 633.32> 569 619 437 481 0.73116 -0.682206<0 664.431>
LayerCount: 2
Fore
SplineSet
170 0 m 1,0,1
 200 150 200 150 200 300 c 2,2,-1
 200 1180 l 2,3,4
 200 1330 200 1330 170 1480 c 1,5,-1
 430 1530 l 1,6,7
 400 1381 400 1381 400 1230 c 2,8,-1
 400 633 l 1,9,-1
 649 863 l 2,10,11
 766 971 766 971 836 1100 c 1,12,-1
 1101 1100 l 1,13,14
 981 1009 981 1009 871 905 c 2,15,-1
 569 619 l 1,16,-1
 1032 187 l 2,17,18
 1144 83 1144 83 1269 0 c 1,19,-1
 906 0 l 1,20,21
 832 120 832 120 711 230 c 2,22,-1
 437 481 l 1,23,-1
 400 442 l 1,24,-1
 400 300 l 2,25,26
 400 150 400 150 430 0 c 1,27,-1
 170 0 l 1,0,1
EndSplineSet
Validated: 1
EndChar

StartChar: l
Encoding: 108 108 77
Width: 600
GlyphClass: 2
Flags: W
HStem: 0 21G<170 430> 1510 20G<326 415>
VStem: 200 200<4.6875 1475.31>
LayerCount: 2
Fore
SplineSet
170 0 m 1,0,1
 200 150 200 150 200 300 c 2,2,-1
 200 1180 l 2,3,4
 200 1330 200 1330 170 1480 c 1,5,-1
 430 1530 l 1,6,7
 400 1380 400 1380 400 1230 c 2,8,-1
 400 300 l 2,9,10
 400 150 400 150 430 0 c 1,11,-1
 170 0 l 1,0,1
EndSplineSet
Validated: 1
EndChar

StartChar: m
Encoding: 109 109 78
Width: 2042
GlyphClass: 2
Flags: W
HStem: 0 21G<170 430 892 1152 1612 1872> 996 124<521.891 805.024 1232.92 1526.29>
VStem: 200 200<4.6875 876.986> 922 200<4.6875 873.986> 1642 200<4.6875 873.986>
LayerCount: 2
Fore
SplineSet
170 0 m 1,0,1
 200 150 200 150 200 300 c 2,2,-1
 200 770 l 2,3,4
 200 920 200 920 170 1070 c 1,5,-1
 430 1120 l 1,6,7
 417 1054 417 1054 409.345 987.436 c 1,8,9
 528.802 1120 528.802 1120 715 1120 c 0,10,11
 917 1120 917 1120 1036.83 954.233 c 1,12,13
 1174 1120 1174 1120 1391 1120 c 0,14,15
 1626 1120 1626 1120 1752 959 c 0,16,17
 1842 844 1842 844 1842 650 c 2,18,-1
 1842 300 l 2,19,20
 1842 150 1842 150 1872 0 c 1,21,-1
 1612 0 l 1,22,23
 1642 150 1642 150 1642 300 c 2,24,-1
 1642 650 l 2,25,26
 1642 803 1642 803 1598 874 c 0,27,28
 1522 996 1522 996 1380 996 c 128,-1,29
 1238 996 1238 996 1164 877 c 0,30,31
 1122 809 1122 809 1122 650 c 2,32,-1
 1122 300 l 2,33,34
 1122 150 1122 150 1152 0 c 1,35,-1
 892 0 l 1,36,37
 922 150 922 150 922 300 c 2,38,-1
 922 650 l 2,39,40
 922 803 922 803 878 874 c 0,41,42
 801 996 801 996 660 996 c 0,43,44
 518 996 518 996 444 877 c 0,45,46
 400 806 400 806 400 650.016 c 2,47,-1
 400 300 l 2,48,49
 400 150 400 150 430 0 c 1,50,-1
 170 0 l 1,0,1
EndSplineSet
Validated: 1
EndChar

StartChar: n
Encoding: 110 110 79
Width: 1366
GlyphClass: 2
Flags: W
HStem: 0 21G<170 430 936 1196> 996 124<522.446 843.554>
VStem: 200 200<4.6875 868.438> 966 200<4.6875 867.522>
LayerCount: 2
Fore
SplineSet
170 0 m 1,0,1
 200 150 200 150 200 300 c 2,2,-1
 200 770 l 2,3,4
 200 920 200 920 170 1070 c 1,5,-1
 430 1120 l 1,6,7
 417 1054 417 1054 409 987 c 1,8,9
 522 1120 522 1120 739 1120 c 0,10,11
 945 1120 945 1120 1076 959 c 0,12,13
 1166 847 1166 847 1166 650 c 2,14,-1
 1166 300 l 2,15,16
 1166 150 1166 150 1196 0 c 1,17,-1
 936 0 l 1,18,19
 966 150 966 150 966 300 c 2,20,-1
 966 650 l 2,21,22
 966 799 966 799 922 869 c 0,23,24
 842 996 842 996 683 996 c 128,-1,25
 524 996 524 996 444 869 c 0,26,27
 400 799 400 799 400 650 c 2,28,-1
 400 300 l 2,29,30
 400 150 400 150 430 0 c 1,31,-1
 170 0 l 1,0,1
EndSplineSet
Validated: 1
EndChar

StartChar: o
Encoding: 111 111 80
Width: 1276
GlyphClass: 2
Flags: W
HStem: -20 124<488.487 787.073> 996 124<489.148 787.293>
VStem: 100 220<322.557 780.514> 956 220<321.813 777.691>
LayerCount: 2
Fore
SplineSet
956 550 m 128,-1,1
 956 756 956 756 868 874 c 0,2,3
 777 996 777 996 638 996 c 128,-1,4
 499 996 499 996 408 874 c 0,5,6
 320 756 320 756 320 550 c 128,-1,7
 320 344 320 344 408 226 c 0,8,9
 499 104 499 104 638 104 c 128,-1,10
 777 104 777 104 868 226 c 0,11,0
 956 344 956 344 956 550 c 128,-1,1
638 -20 m 0,12,13
 392 -20 392 -20 244 157 c 0,14,15
 100 329 100 329 100 550 c 0,16,17
 100 774 100 774 244 943 c 0,18,19
 395 1120 395 1120 638 1120 c 0,20,21
 883 1120 883 1120 1032 943 c 0,22,23
 1176 772 1176 772 1176 550 c 0,24,25
 1175 326 1175 326 1032 157 c 0,26,27
 882 -20 882 -20 638 -20 c 0,12,13
EndSplineSet
Validated: 1
EndChar

StartChar: p
Encoding: 112 112 81
Width: 1356
GlyphClass: 2
Flags: W
HStem: -410 21G<170 430> -20 124<570.871 867.073> 996 124<570.336 867.293>
VStem: 200 200<-405.312 124 303.818 796.182> 1036 220<321.813 777.691>
LayerCount: 2
Fore
SplineSet
1036 550 m 128,-1,1
 1036 756 1036 756 948 874 c 0,2,3
 857 996 857 996 718 996 c 128,-1,4
 579 996 579 996 488 874 c 0,5,6
 400 756 400 756 400 550 c 128,-1,7
 400 344 400 344 488 226 c 0,8,9
 579 104 579 104 718 104 c 128,-1,10
 857 104 857 104 948 226 c 0,11,0
 1036 344 1036 344 1036 550 c 128,-1,1
170 1070 m 1,12,-1
 430 1120 l 1,13,14
 417 1054 417 1054 409 987 c 1,15,16
 529 1120 529 1120 718 1120 c 16,17,18
 963 1120 963 1120 1112 943 c 0,19,20
 1256 772 1256 772 1256 550 c 0,21,22
 1255 326 1255 326 1112 157 c 0,23,24
 962 -20 962 -20 718 -20 c 0,25,26
 513 -20 513 -20 400 124 c 1,27,-1
 400 -110 l 2,28,29
 400 -260 400 -260 430 -410 c 1,30,-1
 170 -410 l 1,31,32
 200 -260 200 -260 200 -110 c 2,33,-1
 200 770 l 2,34,35
 200 920 200 920 170 1070 c 1,12,-1
EndSplineSet
Validated: 1
EndChar

StartChar: q
Encoding: 113 113 82
Width: 1356
GlyphClass: 2
Flags: W
HStem: -410 21G<926 1186> -20 124<488.487 785.129> 996 124<489.148 787.237>
VStem: 100 220<322.557 780.514> 956 200<-405.312 124 303.818 796.182>
LayerCount: 2
Fore
SplineSet
956 550 m 128,-1,1
 956 756 956 756 868 874 c 0,2,3
 777 996 777 996 638 996 c 128,-1,4
 499 996 499 996 408 874 c 0,5,6
 320 756 320 756 320 550 c 128,-1,7
 320 344 320 344 408 226 c 0,8,9
 499 104 499 104 638 104 c 128,-1,10
 777 104 777 104 868 226 c 0,11,0
 956 344 956 344 956 550 c 128,-1,1
1186 1120 m 1,12,13
 1156 970 1156 970 1156 820 c 2,14,-1
 1156 -110 l 2,15,16
 1156 -260 1156 -260 1186 -410 c 1,17,-1
 926 -410 l 1,18,19
 956 -260 956 -260 956 -110 c 2,20,-1
 956 124 l 1,21,22
 843 -20 843 -20 638 -20 c 0,23,24
 392 -20 392 -20 244 157 c 0,25,26
 100 329 100 329 100 550 c 0,27,28
 100 774 100 774 244 943 c 0,29,30
 395 1120 395 1120 638 1120 c 8,31,32
 836 1120 836 1120 940 995 c 1,33,34
 935 1032 935 1032 926 1070 c 1,35,-1
 1186 1120 l 1,12,13
EndSplineSet
Validated: 1
EndChar

StartChar: r
Encoding: 114 114 83
Width: 872
GlyphClass: 2
Flags: W
HStem: 0 21G<170 430> 996 124<518.681 763.689>
VStem: 200 200<4.6875 868.438>
LayerCount: 2
Fore
SplineSet
170 0 m 1,0,1
 200 150 200 150 200 300 c 2,2,-1
 200 770 l 2,3,4
 200 920 200 920 170 1070 c 1,5,-1
 430 1120 l 1,6,7
 417 1054 417 1054 409 987 c 1,8,9
 522 1120 522 1120 679 1120 c 0,10,11
 766 1120 766 1120 852 1077 c 9,12,-1
 852 849 l 17,13,-1
 842 849 l 1,14,15
 764 996 764 996 652 996 c 0,16,17
 524 996 524 996 444 869 c 0,18,19
 400 799 400 799 400 650 c 2,20,-1
 400 300 l 2,21,22
 400 150 400 150 430 0 c 1,23,-1
 170 0 l 1,0,1
EndSplineSet
Validated: 1
EndChar

StartChar: s
Encoding: 115 115 84
Width: 881
GlyphClass: 2
Flags: W
HStem: -20 124<250.533 543.576> 996 124<364.837 587.971>
VStem: 80 10<353.747 368> 154 173<784.488 966.936> 622 179<178.663 417.018> 652 10<853 867.045>
DStem2: 426 743 358 563 0.861934 -0.50702<-136.084 351.952>
LayerCount: 2
Fore
SplineSet
80 368 m 1,0,-1
 90 368 l 1,1,2
 120 276 120 276 184 204 c 0,3,4
 272 104 272 104 412 104 c 0,5,6
 508 104 508 104 575 175 c 0,7,8
 622 225 622 225 622 301 c 0,9,10
 622 402 622 402 519 465 c 2,11,-1
 358 563 l 2,12,13
 154 687 154 687 154 858 c 0,14,15
 154 979 154 979 253 1060 c 0,16,17
 326 1120 326 1120 450 1120 c 0,18,19
 567 1120 567 1120 662 1063 c 1,20,-1
 662 853 l 1,21,-1
 652 853 l 1,22,23
 646 876 646 876 621 913 c 0,24,25
 565 996 565 996 467 996 c 0,26,27
 413 996 413 996 374 970 c 0,28,29
 327 939 327 939 327 882 c 0,30,31
 327 801 327 801 426 743 c 2,32,-1
 613 633 l 2,33,34
 801 522 801 522 801 341 c 0,35,36
 801 175 801 175 682 75 c 0,37,38
 569 -20 569 -20 418 -20 c 0,39,40
 270 -19 270 -19 198 17 c 0,41,42
 136 48 136 48 80 107 c 1,43,-1
 80 368 l 1,0,-1
EndSplineSet
Validated: 19457
EndChar

StartChar: t
Encoding: 116 116 85
Width: 820
GlyphClass: 2
Flags: W
HStem: 0 21G<280 540> 926 124<24.6235 310 510 795.315> 1510 20G<436 525>
VStem: 310 200<4.6875 926 1050 1475.31>
LayerCount: 2
Fore
SplineSet
280 0 m 1,0,1
 310 150 310 150 310 300 c 2,2,-1
 310 926 l 1,3,4
 168 926 168 926 20 896 c 1,5,-1
 20 1080 l 1,6,7
 166 1050 166 1050 310 1050 c 1,8,-1
 310 1180 l 2,9,10
 310 1330 310 1330 280 1480 c 1,11,-1
 540 1530 l 1,12,13
 510 1380 510 1380 510 1230 c 2,14,-1
 510 1050 l 1,15,16
 650 1050 650 1050 800 1080 c 1,17,-1
 800 896 l 1,18,19
 650 926 650 926 510 926 c 1,20,-1
 510 300 l 2,21,22
 510 150 510 150 540 0 c 1,23,-1
 280 0 l 1,0,1
EndSplineSet
Validated: 1
EndChar

StartChar: u
Encoding: 117 117 86
Width: 1366
GlyphClass: 2
Flags: W
HStem: -20 124<524.265 841.048> 0 21G<936 1196> 1100 20G<326 415 1092 1181>
VStem: 200 200<232.556 1065.31> 966 200<231.299 1065.31>
LayerCount: 2
Fore
SplineSet
1196 0 m 1,0,-1
 936 0 l 1,1,2
 947 55 947 55 954 109 c 1,3,4
 841 -20 841 -20 627 -20 c 0,5,6
 410 -20 410 -20 290 141 c 0,7,8
 200 263 200 263 200 450 c 2,9,-1
 200 770 l 2,10,11
 200 920 200 920 170 1070 c 1,12,-1
 430 1120 l 1,13,14
 400 970 400 970 400 820 c 2,15,-1
 400 450 l 2,16,17
 400 298 400 298 444 231 c 0,18,19
 528 104 528 104 683 104 c 0,20,21
 844 104 844 104 922 231 c 0,22,23
 966 303 966 303 966 450 c 2,24,-1
 966 770 l 2,25,26
 966 920 966 920 936 1070 c 1,27,-1
 1196 1120 l 1,28,29
 1166 970 1166 970 1166 820 c 2,30,-1
 1166 300 l 2,31,32
 1166 141 1166 141 1196 0 c 1,0,-1
EndSplineSet
Validated: 1
EndChar

StartChar: v
Encoding: 118 118 87
Width: 1215
GlyphClass: 2
Flags: W
HStem: 0 21G<490.65 723.5> 1080 20G<0 301.841 971 1215>
DStem2: 381.597 815.43 153.976 840.79 0.426697 -0.904395<-294.934 608.753> 639 262 797.598 284.571 0.42802 0.903769<1.23813 903.666>
LayerCount: 2
Fore
SplineSet
516 0 m 1,0,1
 465.299 180.936 465.299 180.936 416.402 284.571 c 2,2,-1
 153.976 840.79 l 2,3,4
 98 959 98 959 0 1100 c 1,5,-1
 282 1100 l 1,6,7
 321.682 944.25 321.682 944.25 381.597 815.43 c 2,8,-1
 639 262 l 25,9,-1
 893.4 815.43 l 2,10,11
 949 936 949 936 993 1100 c 1,12,-1
 1215 1100 l 1,13,14
 1124.83 975.525 1124.83 975.525 1061.02 840.79 c 2,15,-1
 797.598 284.571 l 2,16,17
 749 181 749 181 698 0 c 1,18,-1
 516 0 l 1,0,1
EndSplineSet
Validated: 1
EndChar

StartChar: w
Encoding: 119 119 88
Width: 1720
GlyphClass: 2
Flags: W
HStem: 0 21G<376.5 615.5 1104.5 1343.5> 809 291<641.5 1137.5>
VStem: 386 220<0 217.708> 1114 220<0 217.708> 1515 205<1016.99 1100>
DStem2: 333 807 126 826 0.334943 -0.942238<-294.707 590.709> 531 250 675 293 0.318269 0.948<2.79405 632.995> 1061 807 860 809 0.334943 -0.942238<-67.6116 590.709> 1259 250 1403 293 0.318269 0.948<2.79405 883.013>
LayerCount: 2
Fore
SplineSet
386 0 m 1,0,1
 367 153 367 153 317 293 c 2,2,-1
 126 826 l 2,3,4
 74 972 74 972 0 1100 c 1,5,-1
 264 1100 l 1,6,7
 281 954 281 954 333 807 c 2,8,-1
 531 250 l 9,9,-1
 718 807 l 2,10,11
 770 962 770 962 787 1100 c 1,12,-1
 992 1100 l 1,13,14
 1009 954 1009 954 1061 807 c 2,15,-1
 1259 250 l 1,16,-1
 1446 807 l 2,17,18
 1498 962 1498 962 1515 1100 c 1,19,-1
 1720 1100 l 1,20,21
 1642 959 1642 959 1594 826 c 2,22,-1
 1403 293 l 2,23,24
 1353 153 1353 153 1334 0 c 1,25,-1
 1114 0 l 1,26,27
 1095 153 1095 153 1045 293 c 2,28,-1
 860 809 l 1,29,-1
 675 293 l 2,30,31
 625 153 625 153 606 0 c 1,32,-1
 386 0 l 1,0,1
EndSplineSet
Validated: 1
EndChar

StartChar: x
Encoding: 120 120 89
Width: 1170
GlyphClass: 2
Flags: W
HStem: 0 21G<40 311 789.5 1130> 1080 20G<40 372 864 1130>
DStem2: 490 837 237 871 0.588883 -0.808218<-294.523 196.009 382.66 865.623> 485 523 562 416 0.613417 0.789759<-536.526 -37.2711 197.426 703.391>
LayerCount: 2
Fore
SplineSet
40 0 m 1,0,1
 167 113 167 113 248 218 c 2,2,-1
 485 523 l 1,3,-1
 237 871 l 2,4,5
 157 982 157 982 40 1100 c 1,6,-1
 343 1100 l 1,7,8
 401 960 401 960 490 837 c 2,9,-1
 606 679 l 1,10,-1
 735 845 l 2,11,12
 832 971 832 971 896 1100 c 1,13,-1
 1130 1100 l 1,14,15
 1012 999 1012 999 922 882 c 2,16,-1
 683 573 l 1,17,-1
 933 229 l 2,18,19
 1014 118 1014 118 1130 0 c 1,20,-1
 819 0 l 1,21,22
 760 139 760 139 671 263 c 2,23,-1
 562 416 l 1,24,-1
 437 255 l 2,25,26
 346 137 346 137 276 0 c 1,27,-1
 40 0 l 1,0,1
EndSplineSet
Validated: 1
EndChar

StartChar: y
Encoding: 121 121 90
Width: 1366
GlyphClass: 2
Flags: W
HStem: -430 124<460.678 805.118> -20 124<521.372 841.936> 1100 20G<326 415 1092 1181>
VStem: 200 200<232.029 1065.31> 282 10<-72.707 -61> 966 200<-116.71 124 231.014 1065.31>
LayerCount: 2
Fore
SplineSet
170 1070 m 1,0,1
 430 1120 l 1,2,3
 400 970 400 970 400 820 c 10,4,-1
 400 450 l 18,5,6
 400 302 400 302 444 231 c 256,7,8
 523 104 523 104 683 104 c 0,9,10
 841 104 841 104 922 231 c 256,11,12
 966 301 966 301 966 450 c 2,13,-1
 966 770 l 2,14,15
 966 920 966 920 936 1070 c 1,16,-1
 1196 1120 l 1,17,18
 1166 970 1166 970 1166 820 c 2,19,-1
 1166 137 l 2,20,21
 1166 -107 1166 -107 1042 -253 c 0,22,23
 892 -430 892 -430 659 -430 c 128,-1,24
 426 -430 426 -430 282 -322 c 1,25,-1
 282 -61 l 1,26,-1
 292 -61 l 1,27,28
 327 -156 327 -156 384 -208 c 0,29,30
 493 -306 493 -306 655 -306 c 0,31,32
 794 -306 794 -306 878 -194 c 256,33,34
 966 -76 966 -76 966 124 c 1,35,36
 853 -20 853 -20 627 -20 c 128,-1,37
 401 -20 401 -20 290 141 c 0,38,39
 200 272 200 272 200 450 c 2,40,-1
 200 770 l 2,41,42
 200 920 200 920 170 1070 c 1,0,1
EndSplineSet
Validated: 1
EndChar

StartChar: z
Encoding: 122 122 91
Width: 1098
GlyphClass: 2
Flags: W
HStem: 0 124<321 1013.74> 976 124<198.472 751>
DStem2: 261 349 321 124 0.618098 0.786101<-138.193 791.863>
LayerCount: 2
Fore
SplineSet
103 0 m 1,0,-1
 60 124 l 1,1,2
 172 235 172 235 261 349 c 2,3,-1
 751 976 l 17,4,-1
 494 976 l 2,5,6
 337 976 337 976 194 946 c 1,7,-1
 194 1100 l 1,8,-1
 977 1100 l 1,9,-1
 1015 976 l 1,10,11
 910 873 910 873 814 751 c 2,12,-1
 321 124 l 17,13,-1
 718 124 l 2,14,15
 882 124 882 124 1018 154 c 1,16,-1
 1018 0 l 1,17,-1
 103 0 l 1,0,-1
EndSplineSet
Validated: 19457
EndChar

StartChar: braceleft
Encoding: 123 123 92
Width: 855
GlyphClass: 2
Flags: W
HStem: -246 10<699.419 705> 1750 10<699.419 705>
VStem: 150 89<707.5 806.5> 330 195<-108.865 624.367 889.633 1622.87>
LayerCount: 2
Fore
SplineSet
705 1760 m 1,0,-1
 705 1750 l 1,1,2
 525 1667 525 1667 525 1446 c 2,3,-1
 525 1066 l 2,4,5
 525 792 525 792 239 757 c 1,6,7
 525 722 525 722 525 448 c 2,8,-1
 525 68 l 2,9,10
 525 -153 525 -153 705 -236 c 1,11,-1
 705 -246 l 1,12,13
 330 -246 330 -246 330 68 c 2,14,-1
 330 448 l 2,15,16
 330 668 330 668 150 752 c 1,17,-1
 150 762 l 1,18,19
 330 846 330 846 330 1066 c 2,20,-1
 330 1446 l 2,21,22
 330 1760 330 1760 705 1760 c 1,0,-1
EndSplineSet
Validated: 1
EndChar

StartChar: bar
Encoding: 124 124 93
Width: 660
GlyphClass: 2
Flags: W
VStem: 250 160<-175.312 1685.31>
LayerCount: 2
Fore
SplineSet
220 -180 m 1,0,1
 250 -30 250 -30 250 120 c 2,2,-1
 250 1390 l 2,3,4
 250 1540 250 1540 220 1690 c 1,5,-1
 440 1690 l 1,6,7
 410 1540 410 1540 410 1390 c 2,8,-1
 410 120 l 2,9,10
 410 -30 410 -30 440 -180 c 1,11,-1
 220 -180 l 1,0,1
EndSplineSet
Validated: 1
EndChar

StartChar: braceright
Encoding: 125 125 94
Width: 855
GlyphClass: 2
Flags: W
HStem: -246 10<150 155.581> 1750 10<150 155.581>
VStem: 330 195<-108.865 624.367 889.633 1622.87> 616 89<707.5 806.5>
LayerCount: 2
Fore
SplineSet
150 1760 m 1,0,1
 525 1760 525 1760 525 1446 c 2,2,-1
 525 1066 l 2,3,4
 525 846 525 846 705 762 c 1,5,-1
 705 752 l 1,6,7
 525 668 525 668 525 448 c 2,8,-1
 525 68 l 2,9,10
 525 -246 525 -246 150 -246 c 1,11,-1
 150 -236 l 1,12,13
 330 -153 330 -153 330 68 c 2,14,-1
 330 448 l 2,15,16
 330 722 330 722 616 757 c 1,17,18
 330 792 330 792 330 1066 c 2,19,-1
 330 1446 l 2,20,21
 330 1667 330 1667 150 1750 c 1,22,-1
 150 1760 l 1,0,1
EndSplineSet
Validated: 1
EndChar

StartChar: asciitilde
Encoding: 126 126 95
Width: 1206
GlyphClass: 2
Flags: W
HStem: 551 168<714.146 921.247> 759 168<284.753 491.854>
VStem: 200 10<551 570.043> 996 10<907.957 927>
DStem2: 714 763 492 715 0.788976 -0.614424<-254.321 108.661>
LayerCount: 2
Fore
SplineSet
200 818 m 1,0,1
 287 927 287 927 398 927 c 0,2,3
 503 927 503 927 601 851 c 2,4,-1
 714 763 l 2,5,6
 770 719 770 719 819 719 c 272,7,8
 950 719 950 719 996 927 c 1,9,-1
 1006 927 l 1,10,-1
 1006 660 l 1,11,12
 919 551 919 551 808 551 c 0,13,14
 703 551 703 551 605 627 c 2,15,-1
 492 715 l 2,16,17
 436 759 436 759 387 759 c 272,18,19
 256 759 256 759 210 551 c 1,20,-1
 200 551 l 1,21,-1
 200 818 l 1,0,1
EndSplineSet
Validated: 1
EndChar

StartChar: exclamdown
Encoding: 161 161 97
Width: 692
GlyphClass: 2
Flags: W
HStem: 0 21G<216 476> 1266 264<255.191 436.809>
VStem: 216 260<1305.71 1490.29> 256 180<4.6875 916.448> 276 140<543.552 1160>
LayerCount: 2
Fore
SplineSet
476 0 m 1,0,-1
 216 0 l 1,1,2
 253 150 253 150 256 300 c 2,3,-1
 276 1160 l 25,4,-1
 416 1160 l 25,5,-1
 436 300 l 2,6,7
 439 150 439 150 476 0 c 1,0,-1
476 1398 m 128,-1,9
 476 1343 476 1343 438 1304.5 c 128,-1,10
 400 1266 400 1266 346 1266 c 128,-1,11
 292 1266 292 1266 254 1304.5 c 128,-1,12
 216 1343 216 1343 216 1398 c 128,-1,13
 216 1453 216 1453 254 1491.5 c 128,-1,14
 292 1530 292 1530 346 1530 c 128,-1,15
 400 1530 400 1530 438 1491.5 c 128,-1,8
 476 1453 476 1453 476 1398 c 128,-1,9
EndSplineSet
Validated: 1
EndChar

StartChar: cent
Encoding: 162 162 98
Width: 1152
GlyphClass: 2
Flags: W
HStem: -19 124<488.629 572 672 822> 994 125<488.629 572 672 792.115>
VStem: 100 220<319.567 779.458> 572 100<-180 -15.498 111 988 1115.5 1280>
LayerCount: 2
Fore
SplineSet
672 -180 m 1,0,-1
 572 -182 l 1,1,-1
 572 -17 l 1,2,3
 374 5 374 5 244 157 c 0,4,5
 100 325 100 325 100 551 c 0,6,7
 100 775 100 775 244 943 c 0,8,9
 374 1095 374 1095 572 1117 c 1,10,-1
 572 1280 l 1,11,-1
 672 1280 l 1,12,-1
 672 1119 l 1,13,14
 849 1110 849 1110 971 1004 c 1,15,-1
 971 737 l 1,16,-1
 961 737 l 1,17,18
 922 818 922 818 876 874 c 0,19,20
 789 981 789 981 672 994 c 1,21,-1
 672 105 l 1,22,23
 887 122 887 122 1022 352 c 1,24,-1
 1032 352 l 1,25,-1
 1032 157 l 1,26,27
 893 -7 893 -7 672 -19 c 1,28,-1
 672 -180 l 1,0,-1
572 111 m 1,29,-1
 572 988 l 1,30,31
 478 965 478 965 408 874 c 0,32,33
 320 760 320 760 320 550 c 0,34,35
 320 345 320 345 408 226 c 0,36,37
 476 134 476 134 572 111 c 1,29,-1
EndSplineSet
Validated: 1
EndChar

StartChar: sterling
Encoding: 163 163 99
Width: 1185
GlyphClass: 2
Flags: W
HStem: 0 124<505.393 980.559> 675 124<152.467 300 500 785.315> 1406 124<593.189 837.827>
VStem: 300 200<126.699 675 799 1293.99> 910 10<1259 1268.04>
LayerCount: 2
Fore
SplineSet
270 0 m 1,0,1
 300 160 300 160 300 300 c 2,2,-1
 300 675 l 1,3,4
 229 675 229 675 150 645 c 1,5,-1
 150 829 l 1,6,7
 228 799 228 799 300 799 c 1,8,-1
 300 1060 l 2,9,10
 300 1257 300 1257 390 1369 c 0,11,12
 521 1530 521 1530 727 1530 c 0,13,14
 834 1530 834 1530 920 1487 c 1,15,-1
 920 1259 l 1,16,-1
 910 1259 l 1,17,18
 842 1406 842 1406 723 1406 c 0,19,20
 598 1406 598 1406 538 1294 c 0,21,22
 500 1223 500 1223 500 1060 c 2,23,-1
 500 799 l 1,24,25
 640 799 640 799 790 829 c 1,26,-1
 790 645 l 1,27,28
 640 675 640 675 500 675 c 1,29,-1
 500 300 l 2,30,31
 500 206 500 206 510 124 c 1,32,-1
 685 124 l 2,33,34
 843 124 843 124 985 154 c 1,35,-1
 985 0 l 1,36,-1
 270 0 l 1,0,1
EndSplineSet
Validated: 1
EndChar

StartChar: currency
Encoding: 164 164 100
Width: 1594
GlyphClass: 2
Flags: W
HStem: 191 187<634.165 978.095> 1144 187<637.099 977.146>
VStem: 269 186<574.392 949.264> 1160 185<572.95 949.452>
DStem2: 264 1401 150 1287 0.703521 -0.710675<0.815602 281.902 1386.38 1677.28> 150 209 263 96 0.703521 0.710675<0 301.317 1407.68 1676.46>
LayerCount: 2
Fore
SplineSet
807 378 m 0,0,1
 966 378 966 378 1065 497 c 0,2,3
 1160 611 1160 611 1160 761 c 0,4,5
 1160 910 1160 910 1065 1025 c 0,6,7
 967 1144 967 1144 807 1144 c 0,8,9
 648 1144 648 1144 549 1025 c 0,10,11
 455 913 455 913 455 761 c 0,12,13
 455 613 455 613 549 497 c 0,14,15
 646 378 646 378 807 378 c 0,0,1
264 1401 m 1,16,-1
 460 1203 l 1,17,18
 600 1331 600 1331 807 1331 c 0,19,20
 1007 1331 1007 1331 1144 1213 c 1,21,-1
 1330 1401 l 1,22,-1
 1444 1287 l 1,23,-1
 1249 1090 l 1,24,25
 1345 942 1345 942 1345 761 c 0,26,27
 1345 570 1345 570 1238 417 c 1,28,-1
 1444 209 l 1,29,-1
 1331 96 l 1,30,-1
 1130 299 l 1,31,32
 997 191 997 191 807 191 c 0,33,34
 607 191 607 191 472 307 c 1,35,-1
 263 96 l 1,36,-1
 150 209 l 1,37,-1
 368 429 l 1,38,39
 269 578 269 578 269 761 c 0,40,41
 269 936 269 936 357 1078 c 1,42,-1
 150 1287 l 1,43,-1
 264 1401 l 1,16,-1
EndSplineSet
Validated: 1
EndChar

StartChar: yen
Encoding: 165 165 101
Width: 1323
GlyphClass: 2
Flags: W
HStem: 0 21G<530 790> 414 104<249.688 560 760 1073.25> 1490 20G<0 309 1068 1323>
VStem: 560 200<4.6875 414 518 629>
DStem2: 677 786 180 1268 0.515893 -0.856653<-817.702 -109.019 -9.73023 0> 703 786 855 788 0.514101 0.85773<79.8588 818.174>
LayerCount: 2
Fore
SplineSet
530 0 m 1,0,1
 560 150 560 150 560 300 c 2,2,-1
 560 414 l 1,3,-1
 545 414 l 2,4,5
 395 414 395 414 245 384 c 1,6,-1
 245 548 l 1,7,8
 395 518 395 518 545 518 c 2,9,-1
 560 518 l 1,10,-1
 560 637 l 1,11,-1
 533 682 l 1,12,13
 389 681 389 681 245 652 c 1,14,-1
 245 816 l 1,15,16
 357 794 357 794 469 788 c 1,17,-1
 180 1268 l 2,18,19
 98 1404 98 1404 0 1510 c 1,20,-1
 286 1510 l 1,21,22
 332 1380 332 1380 415 1237 c 2,23,-1
 677 786 l 1,24,-1
 703 786 l 1,25,-1
 967 1237 l 2,26,27
 1040 1362 1040 1362 1096 1510 c 1,28,-1
 1323 1510 l 1,29,30
 1222 1401 1222 1401 1143 1268 c 2,31,-1
 855 788 l 1,32,33
 966 794 966 794 1078 816 c 1,34,-1
 1078 652 l 1,35,36
 934 681 934 681 792 682 c 1,37,-1
 760 629 l 1,38,-1
 760 518 l 1,39,-1
 778 518 l 2,40,41
 926 518 926 518 1078 548 c 1,42,-1
 1078 384 l 1,43,44
 927 414 927 414 778 414 c 2,45,-1
 760 414 l 1,46,-1
 760 300 l 2,47,48
 760 148 760 148 790 0 c 1,49,-1
 530 0 l 1,0,1
EndSplineSet
Validated: 1
EndChar

StartChar: brokenbar
Encoding: 166 166 102
Width: 660
GlyphClass: 2
Flags: W
VStem: 250 160<-176.312 642.312 866.688 1685.31>
LayerCount: 2
Fore
SplineSet
220 -181 m 1,0,1
 250 -31 250 -31 250 119 c 2,2,-1
 250 347 l 2,3,4
 250 497 250 497 220 647 c 1,5,-1
 440 647 l 1,6,7
 410 497 410 497 410 347 c 2,8,-1
 410 119 l 2,9,10
 410 -31 410 -31 440 -181 c 1,11,-1
 220 -181 l 1,0,1
220 1690 m 1,12,-1
 440 1690 l 1,13,14
 410 1540 410 1540 410 1390 c 2,15,-1
 410 1162 l 2,16,17
 410 1012 410 1012 440 862 c 1,18,-1
 220 862 l 1,19,20
 250 1012 250 1012 250 1162 c 2,21,-1
 250 1390 l 2,22,23
 250 1540 250 1540 220 1690 c 1,12,-1
EndSplineSet
Validated: 1
EndChar

StartChar: section
Encoding: 167 167 103
Width: 1021
GlyphClass: 2
Flags: W
HStem: -20 124<363.029 586.163> 1406 124<434.837 657.971>
VStem: 150 163<697.491 937.056> 224 173<1194.49 1376.94> 289 10<232.955 247> 624 173<133.064 315.512> 708 163<572.944 812.509> 722 10<1263 1277.04>
DStem2: 432 635 338 467 0.861934 -0.50702<-147.097 357.195> 496 1153 428 973 0.861934 -0.50702<-136.084 368.208>
LayerCount: 2
Fore
SplineSet
289 37 m 1,0,-1
 289 247 l 1,1,-1
 299 247 l 1,2,3
 305 224 305 224 330 187 c 0,4,5
 386 104 386 104 484 104 c 0,6,7
 538 104 538 104 577 130 c 0,8,9
 624 161 624 161 624 218 c 0,10,11
 624 299 624 299 525 357 c 2,12,-1
 338 467 l 2,13,14
 150 578 150 578 150 759 c 0,15,16
 150 925 150 925 269 1025 c 9,17,-1
 356 947 l 17,18,19
 313 897 313 897 313 811 c 0,20,21
 313 707 313 707 432 635 c 2,22,-1
 593 537 l 2,23,24
 797 413 797 413 797 242 c 0,25,26
 797 121 797 121 698 40 c 0,27,28
 625 -20 625 -20 501 -20 c 0,29,30
 384 -20 384 -20 289 37 c 1,0,-1
732 1473 m 1,31,-1
 732 1263 l 1,32,-1
 722 1263 l 1,33,34
 716 1286 716 1286 691 1323 c 0,35,36
 635 1406 635 1406 537 1406 c 0,37,38
 483 1406 483 1406 444 1380 c 0,39,40
 397 1349 397 1349 397 1292 c 0,41,42
 397 1211 397 1211 496 1153 c 2,43,-1
 683 1043 l 2,44,45
 871 932 871 932 871 751 c 0,46,47
 871 585 871 585 752 485 c 9,48,-1
 665 563 l 17,49,50
 708 613 708 613 708 699 c 0,51,52
 708 803 708 803 589 875 c 2,53,-1
 428 973 l 2,54,55
 224 1097 224 1097 224 1268 c 0,56,57
 224 1389 224 1389 323 1470 c 0,58,59
 396 1530 396 1530 520 1530 c 0,60,61
 637 1530 637 1530 732 1473 c 1,31,-1
EndSplineSet
Validated: 1
EndChar

StartChar: dieresis
Encoding: 168 168 104
Width: 1016
GlyphClass: 2
Flags: W
HStem: 1266 264<239.191 420.809 595.191 776.809>
VStem: 200 260<1305.71 1490.29> 556 260<1305.71 1490.29>
LayerCount: 2
Fore
SplineSet
556 1398 m 128,-1,1
 556 1453 556 1453 594 1491.5 c 128,-1,2
 632 1530 632 1530 686 1530 c 128,-1,3
 740 1530 740 1530 778 1491.5 c 128,-1,4
 816 1453 816 1453 816 1398 c 128,-1,5
 816 1343 816 1343 778 1304.5 c 128,-1,6
 740 1266 740 1266 686 1266 c 128,-1,7
 632 1266 632 1266 594 1304.5 c 128,-1,0
 556 1343 556 1343 556 1398 c 128,-1,1
200 1398 m 128,-1,9
 200 1453 200 1453 238 1491.5 c 128,-1,10
 276 1530 276 1530 330 1530 c 128,-1,11
 384 1530 384 1530 422 1491.5 c 128,-1,12
 460 1453 460 1453 460 1398 c 128,-1,13
 460 1343 460 1343 422 1304.5 c 128,-1,14
 384 1266 384 1266 330 1266 c 128,-1,15
 276 1266 276 1266 238 1304.5 c 128,-1,8
 200 1343 200 1343 200 1398 c 128,-1,9
EndSplineSet
Validated: 1
EndChar

StartChar: copyright
Encoding: 169 169 105
Width: 1501
GlyphClass: 2
Flags: W
HStem: 386 73<564.363 928.202> 548 101<628.871 896.787> 1112 21G<962.5 1005> 1258 103<626.489 887.756> 1453 77<566.855 934.866>
VStem: 200 74<768.815 1151.31> 360 150<779.725 1127.39> 1226 75<757.376 1158.43>
LayerCount: 2
Fore
SplineSet
1044 802 m 1,0,-1
 1044 672 l 1,1,2
 922 548 922 548 758 548 c 0,3,4
 591 548 591 548 476 666 c 0,5,6
 360 787 360 787 360 954 c 0,7,8
 360 1122 360 1122 476 1241 c 0,9,10
 593 1361 593 1361 757 1361 c 0,11,12
 894 1361 894 1361 1005 1272 c 1,13,-1
 1005 1112 l 1,14,-1
 968 1112 l 1,15,16
 957 1135 957 1135 936 1163 c 0,17,18
 865 1258 865 1258 757 1258 c 128,-1,19
 649 1258 649 1258 578 1163 c 0,20,21
 510 1070 510 1070 510 953 c 0,22,23
 510 834 510 834 578 744 c 0,24,25
 651 649 651 649 757 649 c 0,26,27
 893 649 893 649 1008 802 c 1,28,-1
 1044 802 l 1,0,-1
751 1530 m 0,29,30
 993 1530 993 1530 1149 1357 c 0,31,32
 1301 1188 1301 1188 1301 953 c 0,33,34
 1301 701 1301 701 1140 549 c 0,35,36
 969 386 969 386 749 386 c 0,37,38
 526 386 526 386 361 549 c 0,39,40
 200 708 200 708 200 953 c 0,41,42
 200 1197 200 1197 358 1362 c 0,43,44
 519 1530 519 1530 751 1530 c 0,29,30
749 1453 m 0,45,46
 559 1453 559 1453 417 1312 c 0,47,48
 274 1170 274 1170 274 953 c 0,49,50
 274 760 274 760 414 605 c 0,51,52
 545 459 545 459 751 459 c 0,53,54
 942 459 942 459 1087 605 c 0,55,56
 1226 745 1226 745 1226 953 c 0,57,58
 1226 1174 1226 1174 1089 1309 c 0,59,60
 943 1453 943 1453 749 1453 c 0,45,46
EndSplineSet
Validated: 1
EndChar

StartChar: ordfeminine
Encoding: 170 170 106
Width: 1000
GlyphClass: 2
Flags: W
HStem: 683 124<204.688 795.251> 930 92<384.492 573.174> 1239 91<385.867 574.756> 1438 92<386.314 571.378>
VStem: 220 135<1044.86 1214.23> 315 30<1326 1359.28> 608 130<1057.99 1205.33>
LayerCount: 2
Fore
SplineSet
756 940 m 1,0,-1
 590 940 l 1,1,-1
 596 969 l 1,2,3
 542 930 542 930 464 930 c 0,4,5
 369 930 369 930 308 971 c 0,6,7
 220 1030 220 1030 220 1126 c 0,8,9
 220 1206 220 1206 289 1270 c 0,10,11
 354 1330 354 1330 452 1330 c 0,12,13
 551 1330 551 1330 607 1288 c 1,14,15
 601 1358 601 1358 573 1394 c 0,16,17
 539 1438 539 1438 490 1438 c 0,18,19
 416 1438 416 1438 370 1375 c 0,20,21
 354 1353 354 1353 345 1326 c 1,22,-1
 315 1326 l 1,23,-1
 315 1463 l 1,24,25
 397 1530 397 1530 498 1530 c 0,26,27
 612 1530 612 1530 679 1444 c 0,28,29
 738 1367 738 1367 738 1230 c 2,30,-1
 738 1105 l 2,31,32
 738 1021 738 1021 756 940 c 1,0,-1
393 1212 m 0,33,34
 355 1177 355 1177 355 1126 c 0,35,36
 355 1080 355 1080 393 1047 c 0,37,38
 422 1022 422 1022 476 1022 c 0,39,40
 525 1022 525 1022 571 1064 c 0,41,42
 608 1098 608 1098 608 1133 c 0,43,44
 608 1164 608 1164 572 1198 c 0,45,46
 528 1239 528 1239 477 1239 c 0,47,48
 422 1239 422 1239 393 1212 c 0,33,34
200 837 m 1,49,50
 350 807 350 807 500 807 c 0,51,52
 648 807 648 807 800 837 c 1,53,-1
 800 653 l 1,54,55
 649 683 649 683 500 683 c 0,56,57
 350 683 350 683 200 653 c 1,58,-1
 200 837 l 1,49,50
EndSplineSet
Validated: 1
EndChar

StartChar: guillemotleft
Encoding: 171 171 107
Width: 1410
GlyphClass: 2
Flags: W
VStem: 200 184<655 839> 615 184<655 839>
DStem2: 384 747 200 747 0.588499 -0.808498<0 506.324> 200 747 384 747 0.588499 0.808498<108.284 614.608> 799 747 615 747 0.588499 -0.808498<0 506.324> 615 747 799 747 0.588499 0.808498<108.284 614.608>
LayerCount: 2
Fore
SplineSet
949 1270 m 1,0,-1
 1210 1270 l 1,1,2
 1093 1151 1093 1151 1013 1041 c 2,3,-1
 799 747 l 1,4,-1
 1013 453 l 2,5,6
 1091 346 1091 346 1210 224 c 1,7,-1
 949 224 l 1,8,9
 886 368 886 368 801 487 c 2,10,-1
 615 747 l 1,11,-1
 801 1007 l 2,12,13
 886 1126 886 1126 949 1270 c 1,0,-1
534 1270 m 1,14,-1
 795 1270 l 1,15,16
 678 1151 678 1151 598 1041 c 2,17,-1
 384 747 l 1,18,-1
 598 453 l 2,19,20
 676 346 676 346 795 224 c 1,21,-1
 534 224 l 1,22,23
 471 368 471 368 386 487 c 2,24,-1
 200 747 l 1,25,-1
 386 1007 l 2,26,27
 471 1126 471 1126 534 1270 c 1,14,-1
EndSplineSet
Validated: 1
EndChar

StartChar: logicalnot
Encoding: 172 172 108
Width: 1233
GlyphClass: 2
Flags: W
HStem: 668 154<204.688 905.462>
VStem: 879 154<368 663.066> 909 124<372.441 668>
LayerCount: 2
Fore
SplineSet
200 852 m 1,0,1
 350 822 350 822 500 822 c 2,2,-1
 733 822 l 2,3,4
 881 822 881 822 1033 852 c 1,5,-1
 1033 368 l 1,6,-1
 879 368 l 1,7,8
 909 510 909 510 909 668 c 9,9,-1
 500 668 l 2,10,11
 350 668 350 668 200 638 c 1,12,-1
 200 852 l 1,0,1
EndSplineSet
Validated: 1
EndChar

StartChar: uni00AD
Encoding: 173 173 109
Width: 1233
GlyphClass: 2
Flags: W
HStem: 668 154<204.688 1028.25>
LayerCount: 2
Fore
SplineSet
200 852 m 1,0,1
 350 822 350 822 500 822 c 2,2,-1
 733 822 l 2,3,4
 881 822 881 822 1033 852 c 1,5,-1
 1033 638 l 1,6,7
 882 668 882 668 733 668 c 2,8,-1
 500 668 l 2,9,10
 350 668 350 668 200 638 c 1,11,-1
 200 852 l 1,0,1
EndSplineSet
Validated: 1
EndChar

StartChar: registered
Encoding: 174 174 110
Width: 1501
GlyphClass: 2
Flags: W
HStem: 386 73<564.363 926.761> 870 102<687 751.963> 1258 102<687.354 832.682> 1453 77<566.855 934.866>
VStem: 200 74<769.065 1151.31> 547 140<567.964 870 972 1256.94> 868 150<1010.95 1219.39> 1226 75<758.47 1158.43>
DStem2: 892 907 752 871 0.555694 -0.831387<0 304.409>
LayerCount: 2
Fore
SplineSet
749 1453 m 0,0,1
 559 1453 559 1453 417 1312 c 0,2,3
 274 1170 274 1170 274 953 c 0,4,5
 274 761 274 761 414 605 c 0,6,7
 545 459 545 459 751 459 c 0,8,9
 914 459 914 459 1043 565 c 1,10,-1
 933 565 l 1,11,12
 901 648 901 648 861 708 c 2,13,-1
 752 871 l 1,14,15
 751 870 751 870 727 870 c 2,16,-1
 687 870 l 1,17,-1
 687 735 l 2,18,19
 687 660 687 660 707 565 c 1,20,-1
 528 565 l 1,21,22
 547 638 547 638 547 735 c 2,23,-1
 547 1190 l 2,24,25
 547 1288 547 1288 528 1360 c 1,26,-1
 727 1360 l 2,27,28
 859 1360 859 1360 935 1292 c 0,29,30
 1018 1219 1018 1219 1018 1115 c 0,31,32
 1018 1018 1018 1018 935 938 c 0,33,34
 915 919 915 919 892 907 c 1,35,-1
 1021 714 l 2,36,37
 1048 673 1048 673 1098 616 c 1,38,39
 1226 753 1226 753 1226 953 c 0,40,41
 1226 1174 1226 1174 1089 1309 c 0,42,43
 943 1453 943 1453 749 1453 c 0,0,1
751 1530 m 0,44,45
 993 1530 993 1530 1149 1357 c 0,46,47
 1301 1188 1301 1188 1301 953 c 0,48,49
 1301 702 1301 702 1140 549 c 0,50,51
 968 386 968 386 749 386 c 0,52,53
 526 386 526 386 361 549 c 0,54,55
 200 708 200 708 200 953 c 0,56,57
 200 1197 200 1197 358 1362 c 0,58,59
 519 1530 519 1530 751 1530 c 0,44,45
687 972 m 1,60,-1
 727 972 l 2,61,62
 792 972 792 972 834 1015 c 0,63,64
 868 1050 868 1050 868 1115 c 128,-1,65
 868 1180 868 1180 834 1215 c 0,66,67
 792 1258 792 1258 727 1258 c 2,68,-1
 690 1258 l 1,69,70
 687 1224 687 1224 687 1190 c 2,71,-1
 687 972 l 1,60,-1
EndSplineSet
Validated: 1
EndChar

StartChar: macron
Encoding: 175 175 111
Width: 1000
GlyphClass: 2
Flags: W
HStem: 1376 124<204.688 795.251> 1510 20G<200 275 724 800>
VStem: 200 600
LayerCount: 2
Fore
SplineSet
200 1530 m 1,0,1
 350 1500 350 1500 500 1500 c 0,2,3
 648 1500 648 1500 800 1530 c 1,4,-1
 800 1346 l 1,5,6
 649 1376 649 1376 500 1376 c 0,7,8
 350 1376 350 1376 200 1346 c 1,9,-1
 200 1530 l 1,0,1
EndSplineSet
Validated: 1
EndChar

StartChar: degree
Encoding: 176 176 112
Width: 968
GlyphClass: 2
Flags: W
HStem: 930 92<389.982 577.466> 1438 92<390.772 577.228>
VStem: 200 140<1076.19 1384.01> 628 140<1075.99 1384.01>
LayerCount: 2
Fore
SplineSet
628 1230 m 128,-1,1
 628 1328 628 1328 587 1383 c 128,-1,2
 546 1438 546 1438 484 1438 c 128,-1,3
 422 1438 422 1438 381 1383 c 128,-1,4
 340 1328 340 1328 340 1230 c 128,-1,5
 340 1132 340 1132 381 1077 c 128,-1,6
 422 1022 422 1022 484 1022 c 128,-1,7
 546 1022 546 1022 587 1077 c 128,-1,0
 628 1132 628 1132 628 1230 c 128,-1,1
484 1530 m 128,-1,9
 612 1530 612 1530 692 1436 c 0,10,11
 768 1347 768 1347 768 1230 c 128,-1,12
 768 1113 768 1113 692 1024 c 0,13,14
 613 930 613 930 484 930 c 0,15,16
 353 930 353 930 275 1024 c 0,17,18
 200 1114 200 1114 200 1230 c 0,19,20
 200 1347 200 1347 276 1436 c 0,21,8
 356 1530 356 1530 484 1530 c 128,-1,9
EndSplineSet
Validated: 1
EndChar

StartChar: plusminus
Encoding: 177 177 113
Width: 1233
GlyphClass: 2
Flags: W
HStem: 240 154<204.688 1028.25> 804 154<204.688 540 694 1028.25>
VStem: 540 154<468.688 804 958 1293.25>
LayerCount: 2
Fore
SplineSet
200 424 m 1,0,1
 350 394 350 394 500 394 c 2,2,-1
 733 394 l 2,3,4
 881 394 881 394 1033 424 c 1,5,-1
 1033 210 l 1,6,7
 882 240 882 240 733 240 c 2,8,-1
 500 240 l 2,9,10
 350 240 350 240 200 210 c 1,11,-1
 200 424 l 1,0,1
510 1298 m 1,12,-1
 724 1298 l 1,13,14
 694 1146 694 1146 694 998 c 2,15,-1
 694 958 l 1,16,-1
 733 958 l 2,17,18
 881 958 881 958 1033 988 c 1,19,-1
 1033 774 l 1,20,21
 882 804 882 804 733 804 c 2,22,-1
 694 804 l 1,23,-1
 694 764 l 2,24,25
 694 614 694 614 724 464 c 1,26,-1
 510 464 l 1,27,28
 540 614 540 614 540 764 c 2,29,-1
 540 804 l 1,30,-1
 500 804 l 2,31,32
 350 804 350 804 200 774 c 1,33,-1
 200 988 l 1,34,35
 350 958 350 958 500 958 c 2,36,-1
 540 958 l 1,37,-1
 540 998 l 2,38,39
 540 1146 540 1146 510 1298 c 1,12,-1
EndSplineSet
Validated: 1
EndChar

StartChar: uni00B2
Encoding: 178 178 114
Width: 933
GlyphClass: 2
Flags: W
HStem: 745 117<355 730.436> 1428 102<346.312 537.824>
VStem: 243 38<1286 1325.75> 573 149<1176.21 1388.54>
LayerCount: 2
Fore
SplineSet
200 745 m 1,0,1
 228 948 228 948 469 1122 c 0,2,3
 573 1197 573 1197 573 1288 c 0,4,5
 573 1348 573 1348 539 1385 c 0,6,7
 498 1428 498 1428 440 1428 c 0,8,9
 383 1428 383 1428 329 1366 c 0,10,11
 296 1328 296 1328 281 1286 c 1,12,-1
 243 1286 l 1,13,-1
 243 1444 l 1,14,15
 335 1530 335 1530 448 1530 c 0,16,17
 558 1530 558 1530 635 1467 c 0,18,19
 722 1397 722 1397 722 1290 c 0,20,21
 722 1146 722 1146 526 1026 c 0,22,23
 401 950 401 950 355 862 c 1,24,-1
 563 862 l 2,25,26
 651 862 651 862 733 881 c 1,27,-1
 733 745 l 1,28,-1
 200 745 l 1,0,1
EndSplineSet
Validated: 1
EndChar

StartChar: uni00B3
Encoding: 179 179 115
Width: 902
GlyphClass: 2
Flags: W
HStem: 735 102<303.153 514.569> 1418 102<248.441 501>
VStem: 200 38<943.297 980> 552 150<878.752 1101.04>
DStem2: 336 1195 498 1221 0.594796 0.803876<117.258 275.613>
LayerCount: 2
Fore
SplineSet
200 821 m 1,0,1
 200 980 l 1,2,-1
 238 980 l 1,3,4
 263 926 263 926 286 899 c 0,5,6
 339 837 339 837 409 837 c 0,7,8
 476 837 476 837 517 883 c 0,9,10
 552 922 552 922 552 990 c 0,11,12
 552 1066 552 1066 513 1100 c 0,13,14
 465 1142 465 1142 375 1142 c 1,15,-1
 336 1195 l 1,16,-1
 501 1418 l 1,17,-1
 416 1418 l 2,18,19
 324 1418 324 1418 246 1399 c 1,20,-1
 246 1520 l 1,21,-1
 652 1520 l 1,22,-1
 668 1431 l 1,23,24
 613 1381 613 1381 563 1311 c 2,25,-1
 498 1221 l 1,26,27
 560 1212 560 1212 618 1169 c 0,28,29
 702 1106 702 1106 702 987 c 0,30,31
 702 885 702 885 614 804 c 0,32,33
 539 735 539 735 402 735 c 0,34,35
 293 735 293 735 200 821 c 1,0,1
EndSplineSet
Validated: 1
EndChar

StartChar: acute
Encoding: 180 180 116
Width: 799
GlyphClass: 2
Flags: W
HStem: 1200 330
VStem: 200 399
LayerCount: 2
Fore
SplineSet
599 1530 m 1,0,-1
 599 1520 l 1,1,2
 531 1345 531 1345 343 1200 c 9,3,-1
 200 1200 l 17,4,-1
 200 1210 l 1,5,6
 357 1366 357 1366 357 1530 c 1,7,-1
 599 1530 l 1,0,-1
EndSplineSet
Validated: 1
EndChar

StartChar: uni00B5
Encoding: 181 181 117
Width: 1366
GlyphClass: 2
Flags: W
HStem: -410 21G<170 430> -20 124<525.153 841.048> 0 21G<936 1196> 1100 20G<326 415 1092 1181>
VStem: 200 200<-405.312 39 231.013 1065.31> 966 200<231.299 1065.31>
LayerCount: 2
Fore
SplineSet
1196 0 m 1,0,-1
 936 0 l 1,1,2
 947 55 947 55 954 109 c 1,3,4
 841 -20 841 -20 627 -20 c 0,5,6
 496 -20 496 -20 400 39 c 1,7,-1
 400 -110 l 2,8,9
 400 -260 400 -260 430 -410 c 1,10,-1
 170 -410 l 1,11,12
 200 -274 200 -274 200 -110 c 2,13,-1
 200 770 l 2,14,15
 200 920 200 920 170 1070 c 1,16,-1
 430 1120 l 1,17,18
 400 970 400 970 400 820 c 2,19,-1
 400 450 l 2,20,21
 400 298 400 298 444 231 c 0,22,23
 528 104 528 104 683 104 c 0,24,25
 844 104 844 104 922 231 c 0,26,27
 966 303 966 303 966 450 c 2,28,-1
 966 770 l 2,29,30
 966 920 966 920 936 1070 c 1,31,-1
 1196 1120 l 1,32,33
 1166 970 1166 970 1166 820 c 2,34,-1
 1166 300 l 2,35,36
 1166 141 1166 141 1196 0 c 1,0,-1
EndSplineSet
Validated: 1
EndChar

StartChar: paragraph
Encoding: 182 182 118
Width: 1113
GlyphClass: 2
Flags: W
HStem: 0 21G<683 781 847 943> 705 815<367.372 710.652> 1456 54<781 847>
VStem: 150 631<925.998 1299.37> 713 68<4.6875 740> 847 66<4.6875 1453.75>
LayerCount: 2
Fore
SplineSet
683 0 m 1,0,1
 713 150 713 150 713 300 c 2,2,-1
 713 740 l 1,3,4
 638 705 638 705 547 705 c 0,5,6
 382 705 382 705 266 825 c 128,-1,7
 150 945 150 945 150 1112.5 c 128,-1,8
 150 1280 150 1280 266 1401 c 0,9,10
 380 1520 380 1520 547 1520 c 0,11,12
 596 1520 596 1520 640 1510 c 1,13,-1
 943 1510 l 1,14,15
 913 1360 913 1360 913 1210 c 2,16,-1
 913 300 l 2,17,18
 913 150 913 150 943 0 c 1,19,-1
 847 0 l 1,20,-1
 847 1456 l 1,21,-1
 781 1456 l 1,22,-1
 781 0 l 1,23,-1
 683 0 l 1,0,1
EndSplineSet
Validated: 1
EndChar

StartChar: periodcentered
Encoding: 183 183 119
Width: 660
GlyphClass: 2
Flags: W
HStem: 624 264<239.191 420.809>
VStem: 200 260<663.707 848.293>
LayerCount: 2
Fore
SplineSet
200 756 m 128,-1,1
 200 811 200 811 238 849.5 c 128,-1,2
 276 888 276 888 330 888 c 128,-1,3
 384 888 384 888 422 849.5 c 128,-1,4
 460 811 460 811 460 756 c 128,-1,5
 460 701 460 701 422 662.5 c 128,-1,6
 384 624 384 624 330 624 c 128,-1,7
 276 624 276 624 238 662.5 c 128,-1,0
 200 701 200 701 200 756 c 128,-1,1
EndSplineSet
Validated: 1
EndChar

StartChar: cedilla
Encoding: 184 184 120
Width: 676
GlyphClass: 2
Flags: W
HStem: -430 138<200 307.422>
VStem: 325 151<-272.598 -61.4113>
LayerCount: 2
Fore
SplineSet
288 80 m 1,0,1
 476 -43 476 -43 476 -223 c 0,2,3
 476 -430 476 -430 200 -430 c 1,4,-1
 200 -292 l 1,5,6
 325 -292 325 -292 325 -181 c 0,7,8
 325 -58 325 -58 239 17 c 1,9,-1
 288 80 l 1,0,1
EndSplineSet
Validated: 3073
EndChar

StartChar: uni00B9
Encoding: 185 185 121
Width: 718
GlyphClass: 2
Flags: W
HStem: 1510 20G<415.5 508>
VStem: 358 140<742.779 1369>
LayerCount: 2
Fore
SplineSet
339 740 m 1,0,1
 358 828 358 828 358 910 c 2,2,-1
 358 1350 l 2,3,4
 358 1361 358 1361 358 1369 c 1,5,-1
 265 1279 l 1,6,-1
 200 1354 l 1,7,-1
 354 1498 l 1,8,-1
 518 1530 l 1,9,10
 498 1453 498 1453 498 1375 c 2,11,-1
 498 910 l 2,12,13
 498 829 498 829 518 740 c 1,14,-1
 339 740 l 1,0,1
EndSplineSet
Validated: 1
EndChar

StartChar: ordmasculine
Encoding: 186 186 122
Width: 1000
GlyphClass: 2
Flags: W
HStem: 683 124<204.688 795.251> 930 92<405.982 593.466> 1438 92<406.772 593.228>
VStem: 216 140<1076.19 1384.01> 644 140<1075.99 1384.01>
LayerCount: 2
Fore
SplineSet
644 1230 m 128,-1,1
 644 1328 644 1328 603 1383 c 128,-1,2
 562 1438 562 1438 500 1438 c 128,-1,3
 438 1438 438 1438 397 1383 c 128,-1,4
 356 1328 356 1328 356 1230 c 128,-1,5
 356 1132 356 1132 397 1077 c 128,-1,6
 438 1022 438 1022 500 1022 c 128,-1,7
 562 1022 562 1022 603 1077 c 128,-1,0
 644 1132 644 1132 644 1230 c 128,-1,1
500 1530 m 128,-1,9
 628 1530 628 1530 708 1436 c 0,10,11
 784 1347 784 1347 784 1230 c 128,-1,12
 784 1113 784 1113 708 1024 c 0,13,14
 629 930 629 930 500 930 c 0,15,16
 369 930 369 930 291 1024 c 0,17,18
 216 1114 216 1114 216 1230 c 0,19,20
 216 1347 216 1347 292 1436 c 0,21,8
 372 1530 372 1530 500 1530 c 128,-1,9
200 837 m 1,22,23
 350 807 350 807 500 807 c 0,24,25
 648 807 648 807 800 837 c 1,26,-1
 800 653 l 1,27,28
 649 683 649 683 500 683 c 0,29,30
 350 683 350 683 200 653 c 1,31,-1
 200 837 l 1,22,23
EndSplineSet
Validated: 1
EndChar

StartChar: guillemotright
Encoding: 187 187 123
Width: 1410
GlyphClass: 2
Flags: W
VStem: 611 184<655 839> 1026 184<655 839>
DStem2: 795 747 397 1041 0.588499 -0.808498<-614.608 -108.284> 397 453 609 487 0.588499 0.808498<-142.687 363.637> 1210 747 812 1041 0.588499 -0.808498<-614.608 -108.284> 812 453 1024 487 0.588499 0.808498<-142.687 363.637>
LayerCount: 2
Fore
SplineSet
200 1270 m 1,0,-1
 461 1270 l 1,1,2
 524 1126 524 1126 609 1007 c 2,3,-1
 795 747 l 1,4,-1
 609 487 l 2,5,6
 524 368 524 368 461 224 c 1,7,-1
 200 224 l 1,8,9
 319 346 319 346 397 453 c 2,10,-1
 611 747 l 1,11,-1
 397 1041 l 2,12,13
 317 1151 317 1151 200 1270 c 1,0,-1
615 1270 m 1,14,-1
 876 1270 l 1,15,16
 939 1126 939 1126 1024 1007 c 2,17,-1
 1210 747 l 1,18,-1
 1024 487 l 2,19,20
 939 368 939 368 876 224 c 1,21,-1
 615 224 l 1,22,23
 734 346 734 346 812 453 c 2,24,-1
 1026 747 l 1,25,-1
 812 1041 l 2,26,27
 732 1151 732 1151 615 1270 c 1,14,-1
EndSplineSet
Validated: 1
EndChar

StartChar: onequarter
Encoding: 188 188 124
Width: 1596
GlyphClass: 2
Flags: W
HStem: 0 21G<312 554.5 1163 1341> 180 122<1323.25 1396> 180 102<950 1182 1322 1394.94> 1490 20G<415.5 508 992.5 1232>
VStem: 358 140<742.779 1369> 1182 140<2.87158 180 288 603>
DStem2: 901 387 950 282 0.585767 0.810479<-55.3719 339.211> 910 1225 1078 1251 0.417626 0.908619<-1265.13 296.199>
LayerCount: 2
Fore
SplineSet
1341 0 m 1,0,1
 1163 0 l 1,2,3
 1182 92 1182 92 1182 170 c 10,4,-1
 1182 180 l 1,5,-1
 829 180 l 1,6,-1
 799 267 l 1,7,8
 853 321 853 321 901 387 c 10,9,-1
 1097 655 l 18,10,11
 1142 717 1142 717 1173 795 c 1,12,-1
 1341 795 l 1,13,14
 1322 711 1322 711 1322 625 c 10,15,-1
 1322 288 l 1,16,17
 1362 288 1362 288 1396 302 c 1,18,-1
 1396 180 l 1,19,-1
 1322 180 l 1,20,-1
 1322 170 l 18,21,22
 1322 86 1322 86 1341 0 c 1,0,1
1182 282 m 1,23,-1
 1182 603 l 1,24,-1
 950 282 l 1,25,-1
 1182 282 l 1,23,-1
312 0 m 1,26,27
 400 116 400 116 466 259 c 10,28,-1
 910 1225 l 2,29,30
 975 1367 975 1367 1010 1510 c 1,31,-1
 1232 1510 l 1,32,33
 1144 1394 1144 1394 1078 1251 c 2,34,-1
 634 285 l 2,35,36
 575 156 575 156 534 0 c 1,37,-1
 312 0 l 1,26,27
339 740 m 1,38,39
 358 828 358 828 358 910 c 2,40,-1
 358 1350 l 2,41,42
 358 1361 358 1361 358 1369 c 1,43,-1
 265 1279 l 1,44,-1
 200 1354 l 1,45,-1
 354 1498 l 1,46,-1
 518 1530 l 1,47,48
 498 1453 498 1453 498 1375 c 2,49,-1
 498 910 l 2,50,51
 498 829 498 829 518 740 c 1,52,-1
 339 740 l 1,38,39
EndSplineSet
Validated: 1
EndChar

StartChar: onehalf
Encoding: 189 189 125
Width: 1666
GlyphClass: 2
Flags: W
HStem: 0 117<1088 1463.44> 683 102<1079.31 1270.82> 1490 20G<415.5 508 992.5 1232>
VStem: 358 140<742.779 1369> 976 38<541 580.749> 1306 149<431.207 643.542>
DStem2: 910 1225 1078 1251 0.417626 0.908619<-1265.13 296.199>
LayerCount: 2
Fore
SplineSet
312 0 m 1,0,1
 400 116 400 116 466 259 c 10,2,-1
 910 1225 l 2,3,4
 975 1367 975 1367 1010 1510 c 1,5,-1
 1232 1510 l 1,6,7
 1144 1394 1144 1394 1078 1251 c 2,8,-1
 634 285 l 2,9,10
 575 156 575 156 534 0 c 1,11,-1
 312 0 l 1,0,1
339 740 m 1,12,13
 358 828 358 828 358 910 c 2,14,-1
 358 1350 l 2,15,16
 358 1361 358 1361 358 1369 c 1,17,-1
 265 1279 l 1,18,-1
 200 1354 l 1,19,-1
 354 1498 l 1,20,-1
 518 1530 l 1,21,22
 498 1453 498 1453 498 1375 c 2,23,-1
 498 910 l 2,24,25
 498 829 498 829 518 740 c 1,26,-1
 339 740 l 1,12,13
933 0 m 1,27,28
 961 203 961 203 1202 377 c 0,29,30
 1306 452 1306 452 1306 543 c 0,31,32
 1306 603 1306 603 1272 640 c 0,33,34
 1231 683 1231 683 1173 683 c 0,35,36
 1116 683 1116 683 1062 621 c 0,37,38
 1029 583 1029 583 1014 541 c 1,39,-1
 976 541 l 1,40,-1
 976 699 l 1,41,42
 1068 785 1068 785 1181 785 c 0,43,44
 1291 785 1291 785 1368 722 c 0,45,46
 1455 652 1455 652 1455 545 c 0,47,48
 1455 401 1455 401 1259 281 c 0,49,50
 1134 205 1134 205 1088 117 c 1,51,-1
 1296 117 l 2,52,53
 1384 117 1384 117 1466 136 c 1,54,-1
 1466 0 l 1,55,-1
 933 0 l 1,27,28
EndSplineSet
Validated: 1
EndChar

StartChar: threequarters
Encoding: 190 190 126
Width: 1659
GlyphClass: 2
Flags: W
HStem: 0 21G<376 618.5 1226 1404> 180 122<1386.25 1459> 180 102<1013 1245 1385 1457.94> 735 102<303.153 514.569> 1418 102<248.441 501>
VStem: 200 38<943.297 980> 552 150<878.752 1101.04> 1245 140<2.87158 180 288 603>
DStem2: 336 1195 498 1221 0.594796 0.803876<117.258 275.613> 964 387 1013 282 0.585767 0.810479<-55.3719 339.211> 974 1225 1142 1251 0.417626 0.908619<-1265.13 296.199>
LayerCount: 2
Fore
SplineSet
1404 0 m 1,0,1
 1226 0 l 1,2,3
 1245 92 1245 92 1245 170 c 10,4,-1
 1245 180 l 1,5,-1
 892 180 l 1,6,-1
 862 267 l 1,7,8
 916 321 916 321 964 387 c 10,9,-1
 1160 655 l 18,10,11
 1205 717 1205 717 1236 795 c 1,12,-1
 1404 795 l 1,13,14
 1385 711 1385 711 1385 625 c 10,15,-1
 1385 288 l 1,16,17
 1425 288 1425 288 1459 302 c 1,18,-1
 1459 180 l 1,19,-1
 1385 180 l 1,20,-1
 1385 170 l 18,21,22
 1385 86 1385 86 1404 0 c 1,0,1
1245 282 m 1,23,-1
 1245 603 l 1,24,-1
 1013 282 l 1,25,-1
 1245 282 l 1,23,-1
376 0 m 1,26,27
 464 116 464 116 530 259 c 10,28,-1
 974 1225 l 2,29,30
 1039 1367 1039 1367 1074 1510 c 1,31,-1
 1296 1510 l 1,32,33
 1208 1394 1208 1394 1142 1251 c 2,34,-1
 698 285 l 2,35,36
 639 156 639 156 598 0 c 1,37,-1
 376 0 l 1,26,27
200 821 m 1,38,-1
 200 980 l 1,39,-1
 238 980 l 1,40,41
 263 926 263 926 286 899 c 0,42,43
 339 837 339 837 409 837 c 0,44,45
 476 837 476 837 517 883 c 0,46,47
 552 922 552 922 552 990 c 0,48,49
 552 1066 552 1066 513 1100 c 0,50,51
 465 1142 465 1142 375 1142 c 1,52,-1
 336 1195 l 1,53,-1
 501 1418 l 1,54,-1
 416 1418 l 2,55,56
 324 1418 324 1418 246 1399 c 1,57,-1
 246 1520 l 1,58,-1
 652 1520 l 1,59,-1
 668 1431 l 1,60,61
 613 1381 613 1381 563 1311 c 2,62,-1
 498 1221 l 1,63,64
 560 1212 560 1212 618 1169 c 0,65,66
 702 1106 702 1106 702 987 c 0,67,68
 702 885 702 885 614 804 c 0,69,70
 539 735 539 735 402 735 c 0,71,72
 293 735 293 735 200 821 c 1,38,-1
EndSplineSet
Validated: 1
EndChar

StartChar: questiondown
Encoding: 191 191 127
Width: 1194
GlyphClass: 2
Flags: W
HStem: -20 126<510.264 831.531> 1266 264<582.191 763.809>
VStem: 150 201<258.409 584.859> 543 260<1305.71 1490.29> 624 106<997.072 1150>
LayerCount: 2
Fore
SplineSet
1044 128 m 1,0,1
 894 -20 894 -20 679 -20 c 0,2,3
 441 -20 441 -20 290 118 c 24,4,5
 150 247 150 247 150 429 c 0,6,7
 150 666 150 666 414 834 c 24,8,9
 624 968 624 968 624 1150 c 9,10,-1
 730 1150 l 17,11,12
 730 877 730 877 510 708 c 24,13,14
 351 586 351 586 351 429 c 0,15,16
 351 290 351 290 437 204 c 0,17,18
 537 106 537 106 685 106 c 0,19,20
 819 106 819 106 941 242 c 0,21,22
 994 301 994 301 1034 389 c 1,23,-1
 1044 389 l 1,24,-1
 1044 128 l 1,0,1
803 1398 m 128,-1,26
 803 1343 803 1343 765 1304.5 c 128,-1,27
 727 1266 727 1266 673 1266 c 128,-1,28
 619 1266 619 1266 581 1304.5 c 128,-1,29
 543 1343 543 1343 543 1398 c 128,-1,30
 543 1453 543 1453 581 1491.5 c 128,-1,31
 619 1530 619 1530 673 1530 c 128,-1,32
 727 1530 727 1530 765 1491.5 c 128,-1,25
 803 1453 803 1453 803 1398 c 128,-1,26
EndSplineSet
Validated: 1
EndChar

StartChar: multiply
Encoding: 215 215 128
Width: 1140
GlyphClass: 2
Flags: W
HStem: 1095 20G<331 394 746 809>
DStem2: 433 717 542 608 0.707107 0.707107<-295.129 39.598 193.747 528.409> 570 854 461 745 0.707107 -0.707107<-334.661 0 154.149 488.876>
LayerCount: 2
Fore
SplineSet
200 964 m 1,0,-1
 351 1115 l 1,1,2
 437 987 437 987 542 882 c 2,3,-1
 570 854 l 1,4,-1
 598 882 l 2,5,6
 703 986 703 986 789 1115 c 1,7,-1
 940 964 l 1,8,9
 812 878 812 878 707 773 c 2,10,-1
 679 745 l 1,11,-1
 707 717 l 2,12,13
 813 611 813 611 940 526 c 1,14,-1
 789 375 l 1,15,16
 704 502 704 502 598 608 c 2,17,-1
 570 636 l 1,18,-1
 542 608 l 2,19,20
 436 502 436 502 351 375 c 1,21,-1
 200 526 l 1,22,23
 327 611 327 611 433 717 c 2,24,-1
 461 745 l 1,25,-1
 433 773 l 2,26,27
 329 878 329 878 200 964 c 1,0,-1
EndSplineSet
Validated: 1
EndChar

StartChar: Oslash
Encoding: 216 216 129
Width: 1706
GlyphClass: 2
Flags: W
HStem: -20 126<654.328 1048.47> 1404 126<658.023 1051.31>
VStem: 100 220<492.705 1016.08> 1386 220<494.418 1018.08>
DStem2: 160 134 231 63 0.707107 0.707107<0 168.002 357.796 1500.48 1690.88 1871.71>
LayerCount: 2
Fore
SplineSet
231 63 m 1,0,-1
 160 134 l 1,1,-1
 279 253 l 1,2,3
 100 466 100 466 100 755 c 0,4,5
 100 1075 100 1075 320 1302.5 c 128,-1,6
 540 1530 540 1530 853 1530 c 0,7,8
 1146 1530 1146 1530 1358 1331 c 1,9,-1
 1484 1457 l 1,10,-1
 1555 1387 l 1,11,-1
 1426 1258 l 1,12,13
 1606 1044 1606 1044 1606 755 c 0,14,15
 1606 435 1606 435 1386 207.5 c 128,-1,16
 1166 -20 1166 -20 853 -20 c 0,17,18
 560 -20 560 -20 348 180 c 1,19,-1
 231 63 l 1,0,-1
470 302 m 1,20,21
 626 106 626 106 853 106 c 0,22,23
 1086 106 1086 106 1243 312 c 0,24,25
 1386 500 1386 500 1386 755 c 0,26,27
 1386 963 1386 963 1292 1124 c 1,28,-1
 470 302 l 1,20,21
413 387 m 1,29,-1
 1235 1208 l 1,30,31
 1079 1404 1079 1404 853 1404 c 0,32,33
 622 1404 622 1404 463 1198 c 0,34,35
 320 1012 320 1012 320 755 c 0,36,37
 320 549 320 549 413 387 c 1,29,-1
EndSplineSet
Validated: 1
EndChar

StartChar: divide
Encoding: 247 247 130
Width: 1233
GlyphClass: 2
Flags: W
HStem: 181 264<518.191 699.809> 668 154<204.688 1028.25> 1024 264<533.191 714.809>
VStem: 479 260<220.707 405.293> 494 260<1063.71 1248.29>
LayerCount: 2
Fore
SplineSet
200 852 m 1,0,1
 350 822 350 822 500 822 c 2,2,-1
 733 822 l 2,3,4
 881 822 881 822 1033 852 c 1,5,-1
 1033 638 l 1,6,7
 882 668 882 668 733 668 c 2,8,-1
 500 668 l 2,9,10
 350 668 350 668 200 638 c 1,11,-1
 200 852 l 1,0,1
479 313 m 128,-1,13
 479 368 479 368 517 406.5 c 128,-1,14
 555 445 555 445 609 445 c 128,-1,15
 663 445 663 445 701 406.5 c 128,-1,16
 739 368 739 368 739 313 c 128,-1,17
 739 258 739 258 701 219.5 c 128,-1,18
 663 181 663 181 609 181 c 128,-1,19
 555 181 555 181 517 219.5 c 128,-1,12
 479 258 479 258 479 313 c 128,-1,13
494 1156 m 128,-1,21
 494 1211 494 1211 532 1249.5 c 128,-1,22
 570 1288 570 1288 624 1288 c 128,-1,23
 678 1288 678 1288 716 1249.5 c 128,-1,24
 754 1211 754 1211 754 1156 c 128,-1,25
 754 1101 754 1101 716 1062.5 c 128,-1,26
 678 1024 678 1024 624 1024 c 128,-1,27
 570 1024 570 1024 532 1062.5 c 128,-1,20
 494 1101 494 1101 494 1156 c 128,-1,21
EndSplineSet
Validated: 1
EndChar

StartChar: oslash
Encoding: 248 248 131
Width: 1276
GlyphClass: 2
Flags: W
HStem: -20 124<490.279 787.073> 996 124<489.148 789.441>
VStem: 100 220<343.859 780.514> 956 220<319.734 763.354>
DStem2: 100 94 171 23 0.712054 0.702125<0.704963 146.853 350.736 1058.56 1259.07 1410.01>
LayerCount: 2
Fore
SplineSet
171 23 m 1,0,-1
 100 94 l 1,1,-1
 209 202 l 1,2,3
 100 357 100 357 100 550 c 0,4,5
 100 774 100 774 244 943 c 0,6,7
 395 1120 395 1120 638 1120 c 0,8,9
 856 1120 856 1120 998 980 c 1,10,-1
 1104 1084 l 1,11,-1
 1175 1013 l 1,12,-1
 1063 903 l 1,13,14
 1176 746 1176 746 1176 550 c 0,15,16
 1176 327 1176 327 1032 157 c 0,17,18
 882 -20 882 -20 638 -20 c 0,19,20
 416 -20 416 -20 274 124 c 1,21,-1
 171 23 l 1,0,-1
395 244 m 1,22,23
 401 235 401 235 408 226 c 0,24,25
 503 104 503 104 638 104 c 0,26,27
 777 104 777 104 868 226 c 0,28,29
 956 344 956 344 956 550 c 0,30,31
 956 674 956 674 924 766 c 1,32,-1
 395 244 l 1,22,23
350 340 m 1,33,-1
 877 861 l 1,34,35
 873 867 873 867 868 874 c 0,36,37
 781 996 781 996 638 996 c 0,38,39
 499 996 499 996 408 874 c 0,40,41
 320 756 320 756 320 550 c 0,42,43
 320 430 320 430 350 340 c 1,33,-1
EndSplineSet
Validated: 1
EndChar

StartChar: Delta
Encoding: 916 916 132
Width: 1580
GlyphClass: 2
Flags: W
HStem: 0 124<259 1261> 1490 20G<678 902>
DStem2: 599 1225 758 1248 0.418402 0.908262<-1139.57 84.4097> 981 1225 758 1248 0.418402 -0.908262<-111.918 1114.33>
LayerCount: 2
Fore
SplineSet
0 0 m 1,0,1
 93 127 93 127 154 259 c 2,2,-1
 599 1225 l 2,3,4
 657 1351 657 1351 699 1510 c 1,5,-1
 881 1510 l 1,6,7
 923 1351 923 1351 981 1225 c 2,8,-1
 1426 259 l 2,9,10
 1483 136 1483 136 1580 0 c 1,11,-1
 0 0 l 1,0,1
259 124 m 1,12,-1
 1261 124 l 1,13,14
 1232 210 1232 210 1198 285 c 2,15,-1
 758 1248 l 1,16,-1
 322 285 l 2,17,18
 286 206 286 206 259 124 c 1,12,-1
EndSplineSet
Validated: 1
EndChar

StartChar: Pi
Encoding: 928 928 133
Width: 1549
GlyphClass: 2
Flags: W
HStem: 0 21G<170 430 1119 1379> 1386 124<404.689 1144.31>
VStem: 200 200<4.6875 1383.13> 1149 200<4.6875 1383.13>
LayerCount: 2
Fore
SplineSet
170 0 m 1,0,1
 200 150 200 150 200 300 c 2,2,-1
 200 1210 l 2,3,4
 200 1360 200 1360 170 1510 c 1,5,-1
 1379 1510 l 1,6,7
 1349 1360 1349 1360 1349 1210 c 2,8,-1
 1349 300 l 2,9,10
 1349 150 1349 150 1379 0 c 1,11,-1
 1119 0 l 1,12,13
 1149 150 1149 150 1149 300 c 2,14,-1
 1149 1210 l 2,15,16
 1149 1294 1149 1294 1141 1386 c 1,17,-1
 408 1386 l 17,18,19
 400 1294 400 1294 400 1210 c 2,20,-1
 400 300 l 2,21,22
 400 150 400 150 430 0 c 1,23,-1
 170 0 l 1,0,1
EndSplineSet
Validated: 1
EndChar

StartChar: Sigma
Encoding: 931 931 134
Width: 1378
GlyphClass: 2
Flags: W
HStem: 0 124<437 1173.68> 1386 124<440 1081.88>
DStem2: 440 1386 293 1275 0.493293 -0.869863<0 611.856> 580 762 437 124 0.490521 0.871429<-626.116 0>
LayerCount: 2
Fore
SplineSet
100 0 m 1,0,1
 216 103 216 103 289 235 c 2,2,-1
 580 762 l 1,3,-1
 293 1275 l 2,4,5
 219 1407 219 1407 104 1510 c 1,6,-1
 1087 1510 l 1,7,-1
 1087 1356 l 1,8,9
 923 1386 923 1386 787 1386 c 2,10,-1
 440 1386 l 1,11,-1
 795 760 l 1,12,-1
 437 124 l 1,13,-1
 878 124 l 2,14,15
 1040 124 1040 124 1178 154 c 1,16,-1
 1178 0 l 1,17,-1
 100 0 l 1,0,1
EndSplineSet
Validated: 1
EndChar

StartChar: Omega
Encoding: 937 937 135
Width: 1906
GlyphClass: 2
Flags: W
HStem: 0 150<104.626 482 695.193 783 1124 1215.37 1424 1801.4> 1404 126<757.775 1148.72>
VStem: 200 220<497.549 1016.48> 1486 220<495.039 1015.41>
LayerCount: 2
Fore
SplineSet
100 0 m 1,0,-1
 100 180 l 1,1,2
 248 150 248 150 400 150 c 2,3,-1
 482 150 l 1,4,5
 453 175 453 175 420 208 c 0,6,7
 200 428 200 428 200 756 c 0,8,9
 200 1075 200 1075 420 1302.5 c 128,-1,10
 640 1530 640 1530 953 1530 c 128,-1,11
 1266 1530 1266 1530 1486 1302.5 c 128,-1,12
 1706 1075 1706 1075 1706 755.5 c 128,-1,13
 1706 436 1706 436 1486 208 c 0,14,15
 1456 177 1456 177 1424 150 c 1,16,-1
 1506 150 l 2,17,18
 1659 150 1659 150 1806 180 c 1,19,-1
 1806 0 l 1,20,-1
 1124 0 l 1,21,-1
 1124 149 l 1,22,23
 1261 203 1261 203 1343 312 c 0,24,25
 1486 501 1486 501 1486 755 c 128,-1,26
 1486 1009 1486 1009 1343 1198 c 0,27,28
 1187 1404 1187 1404 953 1404 c 0,29,30
 721 1404 721 1404 563 1198 c 0,31,32
 420 1013 420 1013 420 755 c 0,33,34
 420 501 420 501 563 312 c 0,35,36
 646 203 646 203 783 151 c 1,37,-1
 783 0 l 1,38,-1
 100 0 l 1,0,-1
EndSplineSet
Validated: 1
EndChar

StartChar: mu
Encoding: 956 956 136
Width: 1366
GlyphClass: 2
Flags: W
HStem: -410 21G<170 430> -20 124<525.153 841.048> 0 21G<936 1196> 1100 20G<326 415 1092 1181>
VStem: 200 200<-405.312 39 231.013 1065.31> 966 200<231.299 1065.31>
LayerCount: 2
Fore
SplineSet
1196 0 m 1,0,-1
 936 0 l 1,1,2
 947 55 947 55 954 109 c 1,3,4
 841 -20 841 -20 627 -20 c 0,5,6
 496 -20 496 -20 400 39 c 1,7,-1
 400 -110 l 2,8,9
 400 -260 400 -260 430 -410 c 1,10,-1
 170 -410 l 1,11,12
 200 -274 200 -274 200 -110 c 2,13,-1
 200 770 l 2,14,15
 200 920 200 920 170 1070 c 1,16,-1
 430 1120 l 1,17,18
 400 970 400 970 400 820 c 2,19,-1
 400 450 l 2,20,21
 400 298 400 298 444 231 c 0,22,23
 528 104 528 104 683 104 c 0,24,25
 844 104 844 104 922 231 c 0,26,27
 966 303 966 303 966 450 c 2,28,-1
 966 770 l 2,29,30
 966 920 966 920 936 1070 c 1,31,-1
 1196 1120 l 1,32,33
 1166 970 1166 970 1166 820 c 2,34,-1
 1166 300 l 2,35,36
 1166 141 1166 141 1196 0 c 1,0,-1
EndSplineSet
Validated: 1
EndChar

StartChar: pi
Encoding: 960 960 137
Width: 1358
GlyphClass: 2
Flags: W
HStem: 0 21G<170 430 928 1188> 976 124<404.689 953.311>
VStem: 200 200<4.6875 973.127> 958 200<4.6875 973.127>
LayerCount: 2
Fore
SplineSet
170 0 m 1,0,1
 200 150 200 150 200 300 c 2,2,-1
 200 800 l 2,3,4
 200 950 200 950 170 1100 c 1,5,-1
 1188 1100 l 1,6,7
 1158 950 1158 950 1158 800 c 2,8,-1
 1158 300 l 2,9,10
 1158 150 1158 150 1188 0 c 1,11,-1
 928 0 l 1,12,13
 958 150 958 150 958 300 c 2,14,-1
 958 800 l 2,15,16
 958 884 958 884 950 976 c 1,17,-1
 408 976 l 17,18,19
 400 884 400 884 400 800 c 2,20,-1
 400 300 l 2,21,22
 400 150 400 150 430 0 c 1,23,-1
 170 0 l 1,0,1
EndSplineSet
Validated: 1
EndChar

StartChar: uni2010
Encoding: 8208 8208 138
Width: 1000
GlyphClass: 2
Flags: W
HStem: 668 154<204.688 795.251>
VStem: 200 600
LayerCount: 2
Fore
SplineSet
200 852 m 1,0,1
 350 822 350 822 500 822 c 0,2,3
 648 822 648 822 800 852 c 1,4,-1
 800 638 l 1,5,6
 649 668 649 668 500 668 c 0,7,8
 350 668 350 668 200 638 c 1,9,-1
 200 852 l 1,0,1
EndSplineSet
Validated: 1
EndChar

StartChar: uni2011
Encoding: 8209 8209 139
Width: 1000
GlyphClass: 2
Flags: W
HStem: 668 154<204.688 795.251>
VStem: 200 600
LayerCount: 2
Fore
SplineSet
200 852 m 1,0,1
 350 822 350 822 500 822 c 0,2,3
 648 822 648 822 800 852 c 1,4,-1
 800 638 l 1,5,6
 649 668 649 668 500 668 c 0,7,8
 350 668 350 668 200 638 c 1,9,-1
 200 852 l 1,0,1
EndSplineSet
Validated: 1
EndChar

StartChar: figuredash
Encoding: 8210 8210 140
Width: 1233
GlyphClass: 2
Flags: W
HStem: 668 154<204.688 1028.25>
LayerCount: 2
Fore
SplineSet
200 852 m 1,0,1
 350 822 350 822 500 822 c 2,2,-1
 733 822 l 2,3,4
 881 822 881 822 1033 852 c 1,5,-1
 1033 638 l 1,6,7
 882 668 882 668 733 668 c 2,8,-1
 500 668 l 2,9,10
 350 668 350 668 200 638 c 1,11,-1
 200 852 l 1,0,1
EndSplineSet
Validated: 1
EndChar

StartChar: endash
Encoding: 8211 8211 141
Width: 1233
GlyphClass: 2
Flags: W
HStem: 668 154<204.688 1028.25>
LayerCount: 2
Fore
SplineSet
200 852 m 1,0,1
 350 822 350 822 500 822 c 2,2,-1
 733 822 l 2,3,4
 881 822 881 822 1033 852 c 1,5,-1
 1033 638 l 1,6,7
 882 668 882 668 733 668 c 2,8,-1
 500 668 l 2,9,10
 350 668 350 668 200 638 c 1,11,-1
 200 852 l 1,0,1
EndSplineSet
Validated: 1
EndChar

StartChar: emdash
Encoding: 8212 8212 142
Width: 1533
GlyphClass: 2
Flags: W
HStem: 668 154<204.688 1328.25>
LayerCount: 2
Fore
SplineSet
200 852 m 1,0,1
 350 822 350 822 500 822 c 2,2,-1
 1033 822 l 2,3,4
 1181 822 1181 822 1333 852 c 1,5,-1
 1333 638 l 1,6,7
 1182 668 1182 668 1033 668 c 2,8,-1
 500 668 l 2,9,10
 350 668 350 668 200 638 c 1,11,-1
 200 852 l 1,0,1
EndSplineSet
Validated: 1
EndChar

StartChar: afii00208
Encoding: 8213 8213 143
Width: 1533
GlyphClass: 2
Flags: W
HStem: 668 154<204.688 1328.25>
LayerCount: 2
Fore
SplineSet
200 852 m 1,0,1
 350 822 350 822 500 822 c 2,2,-1
 1033 822 l 2,3,4
 1181 822 1181 822 1333 852 c 1,5,-1
 1333 638 l 1,6,7
 1182 668 1182 668 1033 668 c 2,8,-1
 500 668 l 2,9,10
 350 668 350 668 200 638 c 1,11,-1
 200 852 l 1,0,1
EndSplineSet
Validated: 1
EndChar

StartChar: underscoredbl
Encoding: 8215 8215 144
Width: 1233
GlyphClass: 2
Flags: W
HStem: -410 21G<200 275 957.5 1033> -380 94<204.688 1028.25> -164 94<204.688 1028.25>
LayerCount: 2
Fore
SplineSet
200 -256 m 1,0,1
 350 -286 350 -286 500 -286 c 2,2,-1
 733 -286 l 2,3,4
 881 -286 881 -286 1033 -256 c 1,5,-1
 1033 -410 l 1,6,7
 882 -380 882 -380 733 -380 c 2,8,-1
 500 -380 l 2,9,10
 350 -380 350 -380 200 -410 c 1,11,-1
 200 -256 l 1,0,1
200 -40 m 1,12,13
 350 -70 350 -70 500 -70 c 2,14,-1
 733 -70 l 2,15,16
 881 -70 881 -70 1033 -40 c 1,17,-1
 1033 -194 l 1,18,19
 882 -164 882 -164 733 -164 c 2,20,-1
 500 -164 l 2,21,22
 350 -164 350 -164 200 -194 c 1,23,-1
 200 -40 l 1,12,13
EndSplineSet
Validated: 1
EndChar

StartChar: quoteleft
Encoding: 8216 8216 145
Width: 678
GlyphClass: 2
Flags: W
HStem: 978 572
VStem: 200 171<1162.99 1370.37>
LayerCount: 2
Fore
SplineSet
478 1550 m 1,0,-1
 478 1540 l 1,1,2
 371 1420 371 1420 371 1282 c 0,3,4
 371 1184 371 1184 463 1118 c 1,5,-1
 323 978 l 1,6,7
 200 1078 200 1078 200 1213 c 0,8,9
 200 1435 200 1435 478 1550 c 1,0,-1
EndSplineSet
Validated: 1
EndChar

StartChar: quoteright
Encoding: 8217 8217 146
Width: 678
GlyphClass: 2
Flags: W
HStem: 978 572
VStem: 307 171<1157.63 1365.01>
LayerCount: 2
Fore
SplineSet
355 1550 m 1,0,1
 478 1450 478 1450 478 1315 c 0,2,3
 478 1093 478 1093 200 978 c 1,4,-1
 200 988 l 1,5,6
 307 1108 307 1108 307 1246 c 0,7,8
 307 1344 307 1344 215 1410 c 1,9,-1
 355 1550 l 1,0,1
EndSplineSet
Validated: 1
EndChar

StartChar: quotesinglbase
Encoding: 8218 8218 147
Width: 678
GlyphClass: 2
Flags: W
HStem: -292 572
VStem: 307 171<-112.368 95.0098>
LayerCount: 2
Fore
SplineSet
355 280 m 1,0,1
 478 180 478 180 478 45 c 0,2,3
 478 -177 478 -177 200 -292 c 1,4,-1
 200 -282 l 1,5,6
 307 -162 307 -162 307 -24 c 0,7,8
 307 74 307 74 215 140 c 1,9,-1
 355 280 l 1,0,1
EndSplineSet
Validated: 1
EndChar

StartChar: quotereversed
Encoding: 8219 8219 148
Width: 678
GlyphClass: 2
Flags: W
HStem: 978 572
VStem: 200 171<1157.63 1365.01>
LayerCount: 2
Fore
SplineSet
323 1550 m 1,0,1
 463 1410 l 1,2,3
 371 1344 371 1344 371 1246 c 0,4,5
 371 1108 371 1108 478 988 c 1,6,-1
 478 978 l 1,7,8
 200 1093 200 1093 200 1315 c 0,9,10
 200 1450 200 1450 323 1550 c 1,0,1
EndSplineSet
Validated: 1
EndChar

StartChar: quotedblleft
Encoding: 8220 8220 149
Width: 972
GlyphClass: 2
Flags: W
HStem: 978 572
VStem: 200 171<1162.99 1370.37> 494 171<1162.99 1370.37>
LayerCount: 2
Fore
SplineSet
478 1550 m 1,0,-1
 478 1540 l 1,1,2
 371 1420 371 1420 371 1282 c 0,3,4
 371 1184 371 1184 463 1118 c 1,5,-1
 323 978 l 1,6,7
 200 1078 200 1078 200 1213 c 0,8,9
 200 1435 200 1435 478 1550 c 1,0,-1
772 1550 m 1,10,-1
 772 1540 l 1,11,12
 665 1420 665 1420 665 1282 c 0,13,14
 665 1184 665 1184 757 1118 c 1,15,-1
 617 978 l 1,16,17
 494 1078 494 1078 494 1213 c 0,18,19
 494 1435 494 1435 772 1550 c 1,10,-1
EndSplineSet
Validated: 1
EndChar

StartChar: quotedblright
Encoding: 8221 8221 150
Width: 972
GlyphClass: 2
Flags: W
HStem: 978 572
VStem: 307 171<1157.63 1365.01> 601 171<1157.63 1365.01>
LayerCount: 2
Fore
SplineSet
649 1550 m 1,0,1
 772 1450 772 1450 772 1315 c 0,2,3
 772 1093 772 1093 494 978 c 1,4,-1
 494 988 l 1,5,6
 601 1108 601 1108 601 1246 c 0,7,8
 601 1344 601 1344 509 1410 c 1,9,-1
 649 1550 l 1,0,1
355 1550 m 1,10,11
 478 1450 478 1450 478 1315 c 0,12,13
 478 1093 478 1093 200 978 c 1,14,-1
 200 988 l 1,15,16
 307 1108 307 1108 307 1246 c 0,17,18
 307 1344 307 1344 215 1410 c 1,19,-1
 355 1550 l 1,10,11
EndSplineSet
Validated: 1
EndChar

StartChar: quotedblbase
Encoding: 8222 8222 151
Width: 972
GlyphClass: 2
Flags: W
HStem: -292 572
VStem: 307 171<-112.368 95.0098> 601 171<-112.368 95.0098>
LayerCount: 2
Fore
SplineSet
649 280 m 1,0,1
 772 180 772 180 772 45 c 0,2,3
 772 -177 772 -177 494 -292 c 1,4,-1
 494 -282 l 1,5,6
 601 -162 601 -162 601 -24 c 0,7,8
 601 74 601 74 509 140 c 1,9,-1
 649 280 l 1,0,1
355 280 m 1,10,11
 478 180 478 180 478 45 c 0,12,13
 478 -177 478 -177 200 -292 c 1,14,-1
 200 -282 l 1,15,16
 307 -162 307 -162 307 -24 c 0,17,18
 307 74 307 74 215 140 c 1,19,-1
 355 280 l 1,10,11
EndSplineSet
Validated: 1
EndChar

StartChar: uni201F
Encoding: 8223 8223 152
Width: 972
GlyphClass: 2
Flags: W
HStem: 978 572
VStem: 200 171<1157.63 1365.01> 494 171<1157.63 1365.01>
LayerCount: 2
Fore
SplineSet
323 1550 m 1,0,1
 463 1410 l 1,2,3
 371 1344 371 1344 371 1246 c 0,4,5
 371 1108 371 1108 478 988 c 1,6,-1
 478 978 l 1,7,8
 200 1093 200 1093 200 1315 c 0,9,10
 200 1450 200 1450 323 1550 c 1,0,1
617 1550 m 1,11,-1
 757 1410 l 1,12,13
 665 1344 665 1344 665 1246 c 0,14,15
 665 1108 665 1108 772 988 c 1,16,-1
 772 978 l 1,17,18
 494 1093 494 1093 494 1315 c 0,19,20
 494 1450 494 1450 617 1550 c 1,11,-1
EndSplineSet
Validated: 1
EndChar

StartChar: dagger
Encoding: 8224 8224 153
Width: 1233
GlyphClass: 2
Flags: W
HStem: 0 21G<506 726> 1014 154<204.688 536 696 1028.25> 1490 20G<506 726>
VStem: 536 160<4.6875 1014 1168 1505.28>
LayerCount: 2
Fore
SplineSet
506 0 m 1,0,1
 536 150 536 150 536 300 c 2,2,-1
 536 1014 l 1,3,-1
 500 1014 l 2,4,5
 350 1014 350 1014 200 984 c 1,6,-1
 200 1198 l 1,7,8
 350 1168 350 1168 500 1168 c 2,9,-1
 536 1168 l 1,10,-1
 536 1210 l 2,11,12
 536 1359 536 1359 506 1510 c 1,13,-1
 726 1510 l 1,14,15
 696 1359 696 1359 696 1210 c 2,16,-1
 696 1168 l 1,17,-1
 733 1168 l 2,18,19
 881 1168 881 1168 1033 1198 c 1,20,-1
 1033 984 l 1,21,22
 882 1014 882 1014 733 1014 c 2,23,-1
 696 1014 l 1,24,-1
 696 300 l 2,25,26
 696 150 696 150 726 0 c 1,27,-1
 506 0 l 1,0,1
EndSplineSet
Validated: 1
EndChar

StartChar: daggerdbl
Encoding: 8225 8225 154
Width: 1233
GlyphClass: 2
Flags: W
HStem: 0 21G<506 727> 342 154<204.749 536 697 1028.31> 1014 154<204.688 536 697 1028.25> 1490 20G<506 727>
VStem: 536 161<4.71826 342 496 1014 1168 1505.28>
LayerCount: 2
Fore
SplineSet
506 0 m 1,0,1
 536 150 536 150 536 300 c 2,2,-1
 536 342 l 1,3,-1
 500 342 l 2,4,5
 352 342 352 342 200 312 c 1,6,-1
 200 526 l 1,7,8
 351 496 351 496 500 496 c 2,9,-1
 536 496 l 1,10,-1
 536 1014 l 1,11,-1
 500 1014 l 2,12,13
 350 1014 350 1014 200 984 c 1,14,-1
 200 1198 l 1,15,16
 350 1168 350 1168 500 1168 c 2,17,-1
 536 1168 l 1,18,-1
 536 1210 l 2,19,20
 536 1359 536 1359 506 1510 c 1,21,-1
 727 1510 l 1,22,23
 697 1360 697 1360 697 1210 c 2,24,-1
 697 1168 l 1,25,-1
 733 1168 l 2,26,27
 881 1168 881 1168 1033 1198 c 1,28,-1
 1033 984 l 1,29,30
 882 1014 882 1014 733 1014 c 2,31,-1
 697 1014 l 1,32,-1
 697 496 l 1,33,-1
 733 496 l 2,34,35
 883 496 883 496 1033 526 c 1,36,-1
 1033 312 l 1,37,38
 883 342 883 342 733 342 c 2,39,-1
 697 342 l 1,40,-1
 697 300 l 2,41,42
 697 151 697 151 727 0 c 1,43,-1
 506 0 l 1,0,1
EndSplineSet
Validated: 1
EndChar

StartChar: bullet
Encoding: 8226 8226 155
Width: 1062
GlyphClass: 2
Flags: W
HStem: 415 680<367.963 694.252>
VStem: 200 662<584.932 924.627>
LayerCount: 2
Fore
SplineSet
531 415 m 0,0,1
 392 415 392 415 296 515 c 128,-1,2
 200 615 200 615 200 755 c 0,3,4
 200 894 200 894 297 995 c 0,5,6
 393 1095 393 1095 531 1095 c 0,7,8
 670 1095 670 1095 766 995 c 128,-1,9
 862 895 862 895 862 755 c 128,-1,10
 862 615 862 615 765.5 515 c 128,-1,11
 669 415 669 415 531 415 c 0,0,1
EndSplineSet
Validated: 1
EndChar

StartChar: uni2023
Encoding: 8227 8227 156
Width: 978
GlyphClass: 2
Flags: W
VStem: 200 628
LayerCount: 2
Fore
SplineSet
200 356 m 1,0,-1
 200 1135 l 1,1,-1
 828 760 l 1,2,-1
 200 356 l 1,0,-1
EndSplineSet
Validated: 1
EndChar

StartChar: onedotenleader
Encoding: 8228 8228 157
Width: 660
GlyphClass: 2
Flags: W
HStem: -20 264<239.191 420.809>
VStem: 200 260<19.7072 204.293>
LayerCount: 2
Fore
SplineSet
200 112 m 128,-1,1
 200 167 200 167 238 205.5 c 128,-1,2
 276 244 276 244 330 244 c 128,-1,3
 384 244 384 244 422 205.5 c 128,-1,4
 460 167 460 167 460 112 c 128,-1,5
 460 57 460 57 422 18.5 c 128,-1,6
 384 -20 384 -20 330 -20 c 128,-1,7
 276 -20 276 -20 238 18.5 c 128,-1,0
 200 57 200 57 200 112 c 128,-1,1
EndSplineSet
Validated: 1
EndChar

StartChar: twodotenleader
Encoding: 8229 8229 158
Width: 1076
GlyphClass: 2
Flags: W
HStem: -20 264<239.191 420.809 655.191 836.809>
VStem: 200 260<19.7072 204.293> 616 260<19.7072 204.293>
LayerCount: 2
Fore
SplineSet
616 112 m 128,-1,1
 616 167 616 167 654 205.5 c 128,-1,2
 692 244 692 244 746 244 c 128,-1,3
 800 244 800 244 838 205.5 c 128,-1,4
 876 167 876 167 876 112 c 128,-1,5
 876 57 876 57 838 18.5 c 128,-1,6
 800 -20 800 -20 746 -20 c 128,-1,7
 692 -20 692 -20 654 18.5 c 128,-1,0
 616 57 616 57 616 112 c 128,-1,1
200 112 m 128,-1,9
 200 167 200 167 238 205.5 c 128,-1,10
 276 244 276 244 330 244 c 128,-1,11
 384 244 384 244 422 205.5 c 128,-1,12
 460 167 460 167 460 112 c 128,-1,13
 460 57 460 57 422 18.5 c 128,-1,14
 384 -20 384 -20 330 -20 c 128,-1,15
 276 -20 276 -20 238 18.5 c 128,-1,8
 200 57 200 57 200 112 c 128,-1,9
EndSplineSet
Validated: 1
EndChar

StartChar: ellipsis
Encoding: 8230 8230 159
Width: 1490
GlyphClass: 2
Flags: W
HStem: -20 264<239.191 420.809 655.191 836.809 1069.19 1250.81>
VStem: 200 260<19.7072 204.293> 616 260<19.7072 204.293> 1030 260<19.7072 204.293>
LayerCount: 2
Fore
SplineSet
1030 112 m 128,-1,1
 1030 167 1030 167 1068 205.5 c 128,-1,2
 1106 244 1106 244 1160 244 c 128,-1,3
 1214 244 1214 244 1252 205.5 c 128,-1,4
 1290 167 1290 167 1290 112 c 128,-1,5
 1290 57 1290 57 1252 18.5 c 128,-1,6
 1214 -20 1214 -20 1160 -20 c 128,-1,7
 1106 -20 1106 -20 1068 18.5 c 128,-1,0
 1030 57 1030 57 1030 112 c 128,-1,1
616 112 m 128,-1,9
 616 167 616 167 654 205.5 c 128,-1,10
 692 244 692 244 746 244 c 128,-1,11
 800 244 800 244 838 205.5 c 128,-1,12
 876 167 876 167 876 112 c 128,-1,13
 876 57 876 57 838 18.5 c 128,-1,14
 800 -20 800 -20 746 -20 c 128,-1,15
 692 -20 692 -20 654 18.5 c 128,-1,8
 616 57 616 57 616 112 c 128,-1,9
200 112 m 128,-1,17
 200 167 200 167 238 205.5 c 128,-1,18
 276 244 276 244 330 244 c 128,-1,19
 384 244 384 244 422 205.5 c 128,-1,20
 460 167 460 167 460 112 c 128,-1,21
 460 57 460 57 422 18.5 c 128,-1,22
 384 -20 384 -20 330 -20 c 128,-1,23
 276 -20 276 -20 238 18.5 c 128,-1,16
 200 57 200 57 200 112 c 128,-1,17
EndSplineSet
Validated: 1
EndChar

StartChar: uni2027
Encoding: 8231 8231 160
Width: 660
GlyphClass: 2
Flags: W
HStem: 624 264<239.191 420.809>
VStem: 200 260<663.707 848.293>
LayerCount: 2
Fore
SplineSet
200 756 m 128,-1,1
 200 811 200 811 238 849.5 c 128,-1,2
 276 888 276 888 330 888 c 128,-1,3
 384 888 384 888 422 849.5 c 128,-1,4
 460 811 460 811 460 756 c 128,-1,5
 460 701 460 701 422 662.5 c 128,-1,6
 384 624 384 624 330 624 c 128,-1,7
 276 624 276 624 238 662.5 c 128,-1,0
 200 701 200 701 200 756 c 128,-1,1
EndSplineSet
Validated: 1
EndChar

StartChar: perthousand
Encoding: 8240 8240 161
Width: 2202
GlyphClass: 2
Flags: W
HStem: -20 92<993.982 1181.47 1623.98 1811.47> 0 21G<333 575.5> 488 92<994.772 1181.23 1624.77 1811.23> 930 92<389.982 577.466> 1438 92<390.772 577.228> 1490 20G<1013.5 1253>
VStem: 200 140<1076.19 1384.01> 628 140<1075.99 1384.01> 804 140<126.188 434.007> 1232 140<125.993 434.007> 1434 140<126.188 434.007> 1862 140<125.993 434.007>
DStem2: 931 1225 1099 1251 0.417626 0.908619<-1265.1 296.171>
LayerCount: 2
Fore
SplineSet
1862 280 m 128,-1,1
 1862 378 1862 378 1821 433 c 128,-1,2
 1780 488 1780 488 1718 488 c 128,-1,3
 1656 488 1656 488 1615 433 c 128,-1,4
 1574 378 1574 378 1574 280 c 128,-1,5
 1574 182 1574 182 1615 127 c 128,-1,6
 1656 72 1656 72 1718 72 c 128,-1,7
 1780 72 1780 72 1821 127 c 128,-1,0
 1862 182 1862 182 1862 280 c 128,-1,1
1718 580 m 128,-1,9
 1846 580 1846 580 1926 486 c 0,10,11
 2002 397 2002 397 2002 280 c 128,-1,12
 2002 163 2002 163 1926 74 c 0,13,14
 1847 -20 1847 -20 1718 -20 c 0,15,16
 1587 -20 1587 -20 1509 74 c 0,17,18
 1434 164 1434 164 1434 280 c 0,19,20
 1434 397 1434 397 1510 486 c 0,21,8
 1590 580 1590 580 1718 580 c 128,-1,9
1232 280 m 128,-1,23
 1232 378 1232 378 1191 433 c 128,-1,24
 1150 488 1150 488 1088 488 c 128,-1,25
 1026 488 1026 488 985 433 c 128,-1,26
 944 378 944 378 944 280 c 128,-1,27
 944 182 944 182 985 127 c 128,-1,28
 1026 72 1026 72 1088 72 c 128,-1,29
 1150 72 1150 72 1191 127 c 128,-1,22
 1232 182 1232 182 1232 280 c 128,-1,23
1088 580 m 128,-1,31
 1216 580 1216 580 1296 486 c 0,32,33
 1372 397 1372 397 1372 280 c 128,-1,34
 1372 163 1372 163 1296 74 c 0,35,36
 1217 -20 1217 -20 1088 -20 c 0,37,38
 957 -20 957 -20 879 74 c 0,39,40
 804 164 804 164 804 280 c 0,41,42
 804 397 804 397 880 486 c 0,43,30
 960 580 960 580 1088 580 c 128,-1,31
628 1230 m 128,-1,45
 628 1328 628 1328 587 1383 c 128,-1,46
 546 1438 546 1438 484 1438 c 128,-1,47
 422 1438 422 1438 381 1383 c 128,-1,48
 340 1328 340 1328 340 1230 c 128,-1,49
 340 1132 340 1132 381 1077 c 128,-1,50
 422 1022 422 1022 484 1022 c 128,-1,51
 546 1022 546 1022 587 1077 c 128,-1,44
 628 1132 628 1132 628 1230 c 128,-1,45
484 1530 m 128,-1,53
 612 1530 612 1530 692 1436 c 0,54,55
 768 1347 768 1347 768 1230 c 128,-1,56
 768 1113 768 1113 692 1024 c 0,57,58
 613 930 613 930 484 930 c 0,59,60
 353 930 353 930 275 1024 c 0,61,62
 200 1114 200 1114 200 1230 c 0,63,64
 200 1347 200 1347 276 1436 c 0,65,52
 356 1530 356 1530 484 1530 c 128,-1,53
333 0 m 1,66,67
 421 116 421 116 487 259 c 10,68,-1
 931 1225 l 2,69,70
 996 1366 996 1366 1031 1510 c 1,71,-1
 1253 1510 l 1,72,73
 1165 1394 1165 1394 1099 1251 c 2,74,-1
 655 285 l 2,75,76
 596 157 596 157 555 0 c 1,77,-1
 333 0 l 1,66,67
EndSplineSet
Validated: 1
EndChar

StartChar: minute
Encoding: 8242 8242 162
Width: 743
GlyphClass: 2
Flags: W
HStem: 1100 430<331.054 353.64>
VStem: 200 343
LayerCount: 2
Fore
SplineSet
333 1530 m 1,0,-1
 543 1530 l 1,1,2
 407 1317 407 1317 350 1100 c 9,3,-1
 200 1100 l 17,4,5
 303 1318 303 1318 333 1530 c 1,0,-1
EndSplineSet
Validated: 1
EndChar

StartChar: second
Encoding: 8243 8243 163
Width: 1029
GlyphClass: 2
Flags: W
HStem: 1100 430<331.054 353.64 617.054 639.64>
VStem: 200 629
LayerCount: 2
Fore
SplineSet
619 1530 m 1,0,-1
 829 1530 l 1,1,2
 693 1317 693 1317 636 1100 c 9,3,-1
 486 1100 l 17,4,5
 589 1318 589 1318 619 1530 c 1,0,-1
333 1530 m 1,6,-1
 543 1530 l 1,7,8
 407 1317 407 1317 350 1100 c 9,9,-1
 200 1100 l 17,10,11
 303 1318 303 1318 333 1530 c 1,6,-1
EndSplineSet
Validated: 1
EndChar

StartChar: uni2034
Encoding: 8244 8244 164
Width: 1315
GlyphClass: 2
Flags: W
HStem: 1100 430<331.054 353.64 617.054 639.64 903.054 925.64>
LayerCount: 2
Fore
SplineSet
905 1530 m 1,0,-1
 1115 1530 l 1,1,2
 979 1317 979 1317 922 1100 c 9,3,-1
 772 1100 l 17,4,5
 875 1318 875 1318 905 1530 c 1,0,-1
619 1530 m 1,6,-1
 829 1530 l 1,7,8
 693 1317 693 1317 636 1100 c 9,9,-1
 486 1100 l 17,10,11
 589 1318 589 1318 619 1530 c 1,6,-1
333 1530 m 1,12,-1
 543 1530 l 1,13,14
 407 1317 407 1317 350 1100 c 9,15,-1
 200 1100 l 17,16,17
 303 1318 303 1318 333 1530 c 1,12,-1
EndSplineSet
Validated: 1
EndChar

StartChar: uni2035
Encoding: 8245 8245 165
Width: 743
GlyphClass: 2
Flags: W
HStem: 1100 430<389.36 411.946>
VStem: 200 343
LayerCount: 2
Fore
SplineSet
410 1530 m 1,0,1
 440 1318 440 1318 543 1100 c 9,2,-1
 393 1100 l 17,3,4
 336 1317 336 1317 200 1530 c 1,5,-1
 410 1530 l 1,0,1
EndSplineSet
Validated: 1
EndChar

StartChar: uni2036
Encoding: 8246 8246 166
Width: 1029
GlyphClass: 2
Flags: W
HStem: 1100 430<465.36 487.946 751.36 773.946>
VStem: 200 629
LayerCount: 2
Fore
SplineSet
410 1530 m 1,0,1
 440 1318 440 1318 543 1100 c 9,2,-1
 393 1100 l 17,3,4
 336 1317 336 1317 200 1530 c 1,5,-1
 410 1530 l 1,0,1
696 1530 m 1,6,7
 726 1318 726 1318 829 1100 c 9,8,-1
 679 1100 l 17,9,10
 622 1317 622 1317 486 1530 c 1,11,-1
 696 1530 l 1,6,7
EndSplineSet
Validated: 1
EndChar

StartChar: uni2037
Encoding: 8247 8247 167
Width: 1315
GlyphClass: 2
Flags: W
HStem: 1100 430<465.36 487.946 751.36 773.946 1037.36 1059.95>
LayerCount: 2
Fore
SplineSet
410 1530 m 1,0,1
 440 1318 440 1318 543 1100 c 9,2,-1
 393 1100 l 17,3,4
 336 1317 336 1317 200 1530 c 1,5,-1
 410 1530 l 1,0,1
696 1530 m 1,6,7
 726 1318 726 1318 829 1100 c 9,8,-1
 679 1100 l 17,9,10
 622 1317 622 1317 486 1530 c 1,11,-1
 696 1530 l 1,6,7
982 1530 m 1,12,13
 1012 1318 1012 1318 1115 1100 c 9,14,-1
 965 1100 l 17,15,16
 908 1317 908 1317 772 1530 c 1,17,-1
 982 1530 l 1,12,13
EndSplineSet
Validated: 1
EndChar

StartChar: guilsinglleft
Encoding: 8249 8249 168
Width: 995
GlyphClass: 2
Flags: W
VStem: 200 184<655 839>
DStem2: 384 747 200 747 0.588499 -0.808498<0 506.324> 200 747 384 747 0.588499 0.808498<108.284 614.608>
LayerCount: 2
Fore
SplineSet
534 1270 m 1,0,-1
 795 1270 l 1,1,2
 678 1151 678 1151 598 1041 c 2,3,-1
 384 747 l 1,4,-1
 598 453 l 2,5,6
 676 346 676 346 795 224 c 1,7,-1
 534 224 l 1,8,9
 471 368 471 368 386 487 c 2,10,-1
 200 747 l 1,11,-1
 386 1007 l 2,12,13
 471 1126 471 1126 534 1270 c 1,0,-1
EndSplineSet
Validated: 1
EndChar

StartChar: guilsinglright
Encoding: 8250 8250 169
Width: 995
GlyphClass: 2
Flags: W
VStem: 611 184<655 839>
DStem2: 795 747 397 1041 0.588499 -0.808498<-614.608 -108.284> 397 453 609 487 0.588499 0.808498<-142.687 363.637>
LayerCount: 2
Fore
SplineSet
200 1270 m 1,0,-1
 461 1270 l 1,1,2
 524 1126 524 1126 609 1007 c 2,3,-1
 795 747 l 1,4,-1
 609 487 l 2,5,6
 524 368 524 368 461 224 c 1,7,-1
 200 224 l 1,8,9
 319 346 319 346 397 453 c 2,10,-1
 611 747 l 1,11,-1
 397 1041 l 2,12,13
 317 1151 317 1151 200 1270 c 1,0,-1
EndSplineSet
Validated: 1
EndChar

StartChar: uni2043
Encoding: 8259 8259 170
Width: 1213
GlyphClass: 2
Flags: W
VStem: 545 124<343.659 648 863 1167.13>
LayerCount: 2
Fore
SplineSet
515 1172 m 1,0,1
 699 1172 l 1,2,3
 669 1017 669 1017 669 863 c 1,4,5
 806 936 806 936 921 1043 c 1,6,-1
 1013 884 l 1,7,8
 865 834 865 834 731 756 c 1,9,10
 869 680 869 680 1013 627 c 1,11,-1
 921 468 l 1,12,13
 807 568 807 568 669 648 c 1,14,15
 669 488 669 488 699 339 c 1,16,-1
 515 339 l 1,17,18
 545 488 545 488 545 648 c 1,19,20
 404 574 404 574 292 468 c 1,21,-1
 200 627 l 1,22,23
 345 676 345 676 483 756 c 1,24,25
 347 830 347 830 200 884 c 1,26,-1
 292 1043 l 1,27,28
 402 942 402 942 545 863 c 1,29,30
 545 1016 545 1016 515 1172 c 1,0,1
EndSplineSet
Validated: 1
EndChar

StartChar: fraction
Encoding: 8260 8260 171
Width: 1126
GlyphClass: 2
Flags: W
DStem2: 774 1405 962 1431 0.417928 0.90848<-1652.97 296.024>
LayerCount: 2
Fore
SplineSet
10 -180 m 1,0,1
 109 -41 109 -41 164 79 c 10,2,-1
 774 1405 l 2,3,4
 837 1542 837 1542 874 1690 c 1,5,-1
 1116 1690 l 1,6,7
 1022 1562 1022 1562 962 1431 c 2,8,-1
 352 105 l 2,9,10
 295 -19 295 -19 252 -180 c 1,11,-1
 10 -180 l 1,0,1
EndSplineSet
Validated: 1
EndChar

StartChar: Euro
Encoding: 8364 8364 172
Width: 1737
GlyphClass: 2
Flags: W
HStem: -20 126<808.996 1217.56> 579 114<490 978.251> 815 114<490 978.251> 1112 21G<1437.5 1460> 1404 126<808.252 1198.45>
VStem: 252 219<706.221 801.875>
LayerCount: 2
Fore
SplineSet
1537 412 m 1,0,-1
 1537 208 l 1,1,2
 1317 -20 1317 -20 1004 -20 c 0,3,4
 692 -20 692 -20 471 208 c 0,5,6
 318 366 318 366 271 568 c 1,7,8
 211 561 211 561 150 549 c 1,9,-1
 150 723 l 1,10,11
 201 713 201 713 252 706 c 1,12,13
 251 730 251 730 251 755 c 0,14,15
 251 779 251 779 252 802 c 1,16,17
 201 795 201 795 150 785 c 1,18,-1
 150 959 l 1,19,20
 211 947 211 947 271 940 c 1,21,22
 317 1144 317 1144 471 1302 c 0,23,24
 692 1530 692 1530 1004 1530 c 0,25,26
 1265 1530 1265 1530 1460 1373 c 1,27,-1
 1460 1112 l 1,28,-1
 1450 1112 l 1,29,30
 1425 1157 1425 1157 1394 1198 c 0,31,32
 1236 1404 1236 1404 1004 1404 c 0,33,34
 769 1404 769 1404 614 1198 c 0,35,36
 522 1076 522 1076 490 929 c 1,37,-1
 683 929 l 2,38,39
 831 929 831 929 983 959 c 1,40,-1
 983 785 l 1,41,42
 832 815 832 815 683 815 c 2,43,-1
 473 815 l 1,44,45
 471 785 471 785 471 755 c 0,46,47
 471 723 471 723 473 693 c 1,48,-1
 683 693 l 2,49,50
 831 693 831 693 983 723 c 1,51,-1
 983 549 l 1,52,53
 832 579 832 579 683 579 c 2,54,-1
 490 579 l 1,55,56
 523 431 523 431 614 312 c 0,57,58
 772 106 772 106 1004 106 c 0,59,60
 1304 106 1304 106 1527 412 c 1,61,-1
 1537 412 l 1,0,-1
EndSplineSet
Validated: 1
EndChar

StartChar: afii61248
Encoding: 8453 8453 173
Width: 2105
GlyphClass: 2
Flags: W
HStem: -20 101<1377.97 1636.13> 0 21G<580 822.5> 690 103<1375.92 1638.51> 717 101<468.871 736.787> 1427 103<466.489 727.756> 1490 20G<1260.5 1500>
VStem: 200 150<948.725 1296.39> 1109 150<211.725 559.389> 1755 150<211.725 559.389>
DStem2: 1178 1225 1346 1251 0.417626 0.908619<-1265.1 296.171>
LayerCount: 2
Fore
SplineSet
1508 793 m 0,0,1
 1672 793 1672 793 1789 673 c 0,2,3
 1905 554 1905 554 1905 386 c 0,4,5
 1905 219 1905 219 1789 98 c 0,6,7
 1674 -20 1674 -20 1507 -20 c 128,-1,8
 1340 -20 1340 -20 1225 98 c 0,9,10
 1109 219 1109 219 1109 386 c 0,11,12
 1109 554 1109 554 1225 673 c 0,13,14
 1342 793 1342 793 1508 793 c 0,0,1
1508 81 m 0,15,16
 1614 81 1614 81 1687 176 c 0,17,18
 1755 266 1755 266 1755 385 c 0,19,20
 1755 502 1755 502 1687 595 c 0,21,22
 1616 690 1616 690 1508 690 c 0,23,24
 1398 690 1398 690 1327 595 c 0,25,26
 1259 502 1259 502 1259 385 c 0,27,28
 1259 266 1259 266 1327 176 c 0,29,30
 1400 81 1400 81 1508 81 c 0,15,16
884 971 m 1,31,-1
 884 841 l 1,32,33
 762 717 762 717 598 717 c 0,34,35
 431 717 431 717 316 835 c 0,36,37
 200 956 200 956 200 1123 c 0,38,39
 200 1291 200 1291 316 1410 c 0,40,41
 433 1530 433 1530 597 1530 c 0,42,43
 734 1530 734 1530 845 1441 c 1,44,-1
 845 1281 l 1,45,-1
 808 1281 l 1,46,47
 797 1304 797 1304 776 1332 c 0,48,49
 705 1427 705 1427 597 1427 c 128,-1,50
 489 1427 489 1427 418 1332 c 0,51,52
 350 1239 350 1239 350 1122 c 0,53,54
 350 1003 350 1003 418 913 c 0,55,56
 491 818 491 818 597 818 c 0,57,58
 733 818 733 818 848 971 c 1,59,-1
 884 971 l 1,31,-1
580 0 m 1,60,61
 668 116 668 116 734 259 c 10,62,-1
 1178 1225 l 2,63,64
 1243 1366 1243 1366 1278 1510 c 1,65,-1
 1500 1510 l 1,66,67
 1412 1394 1412 1394 1346 1251 c 2,68,-1
 902 285 l 2,69,70
 843 157 843 157 802 0 c 1,71,-1
 580 0 l 1,60,61
EndSplineSet
Validated: 1
EndChar

StartChar: afii61289
Encoding: 8467 8467 174
Width: 958
GlyphClass: 2
Flags: W
HStem: -20 136<458.002 569.961> 0 21G<50 263> 1500 20G<627 694>
VStem: 232 155<466 794.977> 655 153<1042.58 1356.69>
LayerCount: 2
Fore
SplineSet
387 466 m 1,0,1
 498 708 498 708 554 860 c 0,2,3
 655 1134 655 1134 655 1359 c 1,4,5
 587 1266 587 1266 494 1004 c 0,6,7
 387 704 387 704 387 466 c 1,0,1
50 0 m 1,8,9
 161 144 161 144 242 292 c 1,10,11
 232 362 232 362 232 443 c 0,12,13
 232 590 232 590 261 732 c 0,14,15
 369 1246 369 1246 517 1434 c 0,16,17
 585 1520 585 1520 669 1520 c 0,18,19
 719 1520 719 1520 759 1488 c 0,20,21
 808 1449 808 1449 808 1318 c 0,22,23
 808 1226 808 1226 778 1072 c 0,24,25
 708 722 708 722 422 271 c 1,26,27
 454 116 454 116 511 116 c 0,28,29
 530 116 530 116 553 140 c 0,30,31
 584 172 584 172 616 228 c 1,32,-1
 792 228 l 1,33,34
 715 100 715 100 650.5 40 c 128,-1,35
 586 -20 586 -20 502 -20 c 0,36,37
 382 -20 382 -20 305 90 c 1,38,-1
 251 0 l 1,39,-1
 50 0 l 1,8,9
EndSplineSet
Validated: 1
EndChar

StartChar: trademark
Encoding: 8482 8482 175
Width: 1994
GlyphClass: 2
Flags: W
HStem: 1418 102<203.056 417.569 558.323 771.913>
VStem: 418 140<747.47 1416.97> 910 143<1414.1 1520> 1579 144<1415.03 1520> 1625 91<850 1413>
DStem2: 914 1355 1016 1268 0.0895267 0.995984<-495.643 -77.5189> 1105 1366 1016 1268 0.417276 -0.90878<51.9228 496.821> 1313 913 1422 899 0.425508 0.904954<1.82222 440.03> 1719 1355 1590 1269 0.0895267 -0.995984<74.1057 493.591>
LayerCount: 2
Fore
SplineSet
839 745 m 1,0,1
 866 820 866 820 874 910 c 2,2,-1
 914 1355 l 2,3,4
 916 1379 916 1379 916 1413 c 0,5,6
 916 1448 916 1448 910 1520 c 1,7,-1
 1053 1520 l 1,8,9
 1070 1443 1070 1443 1105 1366 c 2,10,-1
 1313 913 l 1,11,-1
 1526 1366 l 2,12,13
 1552 1419 1552 1419 1579 1520 c 1,14,-1
 1723 1520 l 1,15,16
 1716 1478 1716 1478 1716 1413 c 0,17,18
 1716 1388 1716 1388 1719 1355 c 2,19,-1
 1759 910 l 2,20,21
 1766 837 1766 837 1794 745 c 1,22,-1
 1618 745 l 1,23,24
 1625 796 1625 796 1625 850 c 0,25,26
 1625 881 1625 881 1622 914 c 2,27,-1
 1590 1269 l 1,28,-1
 1422 899 l 2,29,30
 1390 828 1390 828 1369 745 c 1,31,-1
 1234 745 l 1,32,33
 1210 837 1210 837 1182 899 c 2,34,-1
 1016 1268 l 1,35,-1
 984 914 l 2,36,37
 982 890 982 890 982 850 c 0,38,39
 982 790 982 790 989 745 c 1,40,-1
 839 745 l 1,0,1
398 745 m 1,41,42
 418 824 418 824 418 910 c 2,43,-1
 418 1352 l 2,44,45
 418 1385 418 1385 414 1418 c 1,46,-1
 370 1418 l 2,47,48
 298 1418 298 1418 200 1399 c 1,49,-1
 200 1520 l 1,50,-1
 775 1520 l 1,51,-1
 775 1399 l 1,52,53
 676 1418 676 1418 605 1418 c 2,54,-1
 561 1418 l 1,55,56
 558 1385 558 1385 558 1352 c 2,57,-1
 558 910 l 2,58,59
 558 823 558 823 577 745 c 1,60,-1
 398 745 l 1,41,42
EndSplineSet
Validated: 1
EndChar

StartChar: uni2126
Encoding: 8486 8486 176
Width: 1906
GlyphClass: 2
Flags: W
HStem: 0 150<104.626 482 695.193 783 1124 1215.37 1424 1801.4> 1404 126<757.775 1148.72>
VStem: 200 220<497.549 1016.48> 1486 220<495.039 1015.41>
LayerCount: 2
Fore
SplineSet
100 0 m 1,0,-1
 100 180 l 1,1,2
 248 150 248 150 400 150 c 2,3,-1
 482 150 l 1,4,5
 453 175 453 175 420 208 c 0,6,7
 200 428 200 428 200 756 c 0,8,9
 200 1075 200 1075 420 1302.5 c 128,-1,10
 640 1530 640 1530 953 1530 c 128,-1,11
 1266 1530 1266 1530 1486 1302.5 c 128,-1,12
 1706 1075 1706 1075 1706 755.5 c 128,-1,13
 1706 436 1706 436 1486 208 c 0,14,15
 1456 177 1456 177 1424 150 c 1,16,-1
 1506 150 l 2,17,18
 1659 150 1659 150 1806 180 c 1,19,-1
 1806 0 l 1,20,-1
 1124 0 l 1,21,-1
 1124 149 l 1,22,23
 1261 203 1261 203 1343 312 c 0,24,25
 1486 501 1486 501 1486 755 c 128,-1,26
 1486 1009 1486 1009 1343 1198 c 0,27,28
 1187 1404 1187 1404 953 1404 c 0,29,30
 721 1404 721 1404 563 1198 c 0,31,32
 420 1013 420 1013 420 755 c 0,33,34
 420 501 420 501 563 312 c 0,35,36
 646 203 646 203 783 151 c 1,37,-1
 783 0 l 1,38,-1
 100 0 l 1,0,-1
EndSplineSet
Validated: 1
EndChar

StartChar: estimated
Encoding: 8494 8494 177
Width: 1258
GlyphClass: 2
Flags: W
HStem: 0 73<451.557 805.461> 565 74<331 927> 1057 73<452.165 800.247>
VStem: 100 231<322.452 565 639 808.838> 927 231<639 804.607>
LayerCount: 2
Fore
SplineSet
331 565 m 1,0,-1
 331 194 l 1,1,2
 451 73 451 73 629 73 c 0,3,4
 883 73 883 73 1024 319 c 1,5,-1
 1096 276 l 1,6,7
 976 103 976 103 864 51.5 c 128,-1,8
 752 0 752 0 629 0 c 0,9,10
 392 0 392 0 246 160 c 128,-1,11
 100 320 100 320 100 565 c 0,12,13
 100 812 100 812 247 971 c 128,-1,14
 394 1130 394 1130 629 1130 c 0,15,16
 843 1130 843 1130 995 988 c 128,-1,17
 1147 846 1147 846 1158 565 c 1,18,-1
 331 565 l 1,0,-1
927 639 m 1,19,-1
 927 936 l 1,20,21
 799 1057 799 1057 627 1057 c 0,22,23
 452 1057 452 1057 331 935 c 1,24,-1
 331 639 l 1,25,-1
 927 639 l 1,19,-1
EndSplineSet
Validated: 1
EndChar

StartChar: partialdiff
Encoding: 8706 8706 178
Width: 1285
GlyphClass: 2
Flags: W
HStem: -20 153<399.379 663.581> 870 140<547.102 824.163> 1325 152<492 830.231>
VStem: 150 188<198.966 602.91> 953 182<873.869 1171.56>
LayerCount: 2
Fore
SplineSet
420 1415 m 1,0,1
 554 1477 554 1477 703 1477 c 0,2,3
 1135 1477 1135 1477 1135 934 c 0,4,5
 1135 545 1135 545 966.5 262.5 c 128,-1,6
 798 -20 798 -20 512 -20 c 0,7,8
 150 -20 150 -20 150 375 c 0,9,10
 150 624 150 624 288 817 c 128,-1,11
 426 1010 426 1010 670 1010 c 0,12,13
 854 1010 854 1010 953 862 c 1,14,15
 953 1103 953 1103 898 1204 c 0,16,17
 832 1325 832 1325 678 1325 c 0,18,19
 547 1325 547 1325 420 1241 c 1,20,-1
 420 1415 l 1,0,1
920 680 m 1,21,22
 898 765 898 765 834.5 817.5 c 128,-1,23
 771 870 771 870 695 870 c 0,24,25
 535 870 535 870 436.5 710 c 128,-1,26
 338 550 338 550 338 369 c 0,27,28
 338 133 338 133 525 133 c 0,29,30
 663 133 663 133 772.5 286 c 128,-1,31
 882 439 882 439 920 680 c 1,21,22
EndSplineSet
Validated: 1
EndChar

StartChar: uni2206
Encoding: 8710 8710 179
Width: 1580
GlyphClass: 2
Flags: W
HStem: 0 124<259 1261> 1490 20G<678 902>
DStem2: 599 1225 758 1248 0.418402 0.908262<-1139.57 84.4097> 981 1225 758 1248 0.418402 -0.908262<-111.918 1114.33>
LayerCount: 2
Fore
SplineSet
0 0 m 1,0,1
 93 127 93 127 154 259 c 2,2,-1
 599 1225 l 2,3,4
 657 1351 657 1351 699 1510 c 1,5,-1
 881 1510 l 1,6,7
 923 1351 923 1351 981 1225 c 2,8,-1
 1426 259 l 2,9,10
 1483 136 1483 136 1580 0 c 1,11,-1
 0 0 l 1,0,1
259 124 m 1,12,-1
 1261 124 l 1,13,14
 1232 210 1232 210 1198 285 c 2,15,-1
 758 1248 l 1,16,-1
 322 285 l 2,17,18
 286 206 286 206 259 124 c 1,12,-1
EndSplineSet
Validated: 1
EndChar

StartChar: product
Encoding: 8719 8719 180
Width: 1549
GlyphClass: 2
Flags: W
HStem: -410 21G<170 430 1119 1379> 1386 124<404.689 1144.31>
VStem: 200 200<-405.312 1383.13> 1149 200<-405.312 1383.13>
LayerCount: 2
Fore
SplineSet
170 -410 m 1,0,1
 200 -260 200 -260 200 -110 c 2,2,-1
 200 1210 l 2,3,4
 200 1360 200 1360 170 1510 c 1,5,-1
 1379 1510 l 1,6,7
 1349 1360 1349 1360 1349 1210 c 2,8,-1
 1349 -110 l 2,9,10
 1349 -260 1349 -260 1379 -410 c 1,11,-1
 1119 -410 l 1,12,13
 1149 -260 1149 -260 1149 -110 c 2,14,-1
 1149 1210 l 2,15,16
 1149 1294 1149 1294 1141 1386 c 1,17,-1
 408 1386 l 17,18,19
 400 1294 400 1294 400 1210 c 2,20,-1
 400 -110 l 2,21,22
 400 -260 400 -260 430 -410 c 1,23,-1
 170 -410 l 1,0,1
EndSplineSet
Validated: 1
EndChar

StartChar: summation
Encoding: 8721 8721 181
Width: 1328
GlyphClass: 2
Flags: W
HStem: -410 124<413 1173.62> 1386 124<402 1078>
DStem2: 402 1386 254 1251 0.435901 -0.899995<0.744662 821.942> 254 -151 413 -286 0.421175 0.90698<-53.948 777.76>
LayerCount: 2
Fore
SplineSet
100 -410 m 1,0,1
 201 -268 201 -268 254 -151 c 2,2,-1
 576 557 l 25,3,-1
 254 1251 l 2,4,5
 184 1402 184 1402 100 1510 c 1,6,-1
 1083 1510 l 1,7,-1
 1083 1356 l 1,8,9
 923 1386 923 1386 783 1386 c 2,10,-1
 402 1386 l 1,11,-1
 804 556 l 1,12,-1
 413 -286 l 1,13,-1
 878 -286 l 2,14,15
 1038 -286 1038 -286 1178 -256 c 1,16,-1
 1178 -410 l 1,17,-1
 100 -410 l 1,0,1
EndSplineSet
Validated: 1
EndChar

StartChar: minus
Encoding: 8722 8722 182
Width: 1233
GlyphClass: 2
Flags: W
HStem: 668 154<204.688 1028.25>
LayerCount: 2
Fore
SplineSet
200 852 m 1,0,1
 350 822 350 822 500 822 c 2,2,-1
 733 822 l 2,3,4
 881 822 881 822 1033 852 c 1,5,-1
 1033 638 l 1,6,7
 882 668 882 668 733 668 c 2,8,-1
 500 668 l 2,9,10
 350 668 350 668 200 638 c 1,11,-1
 200 852 l 1,0,1
EndSplineSet
Validated: 1
EndChar

StartChar: uni2215
Encoding: 8725 8725 183
Width: 1126
GlyphClass: 2
Flags: W
DStem2: 774 1405 962 1431 0.417928 0.90848<-1652.97 296.024>
LayerCount: 2
Fore
SplineSet
10 -180 m 1,0,1
 109 -41 109 -41 164 79 c 10,2,-1
 774 1405 l 2,3,4
 837 1542 837 1542 874 1690 c 1,5,-1
 1116 1690 l 1,6,7
 1022 1562 1022 1562 962 1431 c 2,8,-1
 352 105 l 2,9,10
 295 -19 295 -19 252 -180 c 1,11,-1
 10 -180 l 1,0,1
EndSplineSet
Validated: 1
EndChar

StartChar: asteriskmath
Encoding: 8727 8727 184
Width: 1213
GlyphClass: 2
Flags: W
VStem: 545 124<343.659 648 863 1167.13>
LayerCount: 2
Fore
SplineSet
515 1172 m 1,0,1
 699 1172 l 1,2,3
 669 1017 669 1017 669 863 c 1,4,5
 806 936 806 936 921 1043 c 1,6,-1
 1013 884 l 1,7,8
 865 834 865 834 731 756 c 1,9,10
 869 680 869 680 1013 627 c 1,11,-1
 921 468 l 1,12,13
 807 568 807 568 669 648 c 1,14,15
 669 488 669 488 699 339 c 1,16,-1
 515 339 l 1,17,18
 545 488 545 488 545 648 c 1,19,20
 404 574 404 574 292 468 c 1,21,-1
 200 627 l 1,22,23
 345 676 345 676 483 756 c 1,24,25
 347 830 347 830 200 884 c 1,26,-1
 292 1043 l 1,27,28
 402 942 402 942 545 863 c 1,29,30
 545 1016 545 1016 515 1172 c 1,0,1
EndSplineSet
Validated: 1
EndChar

StartChar: uni2218
Encoding: 8728 8728 185
Width: 1062
GlyphClass: 2
Flags: W
HStem: 415 110<424.637 639.31> 985 110<422.906 637.534>
VStem: 200 148<605.483 904.273> 714 148<605.425 904.517>
LayerCount: 2
Fore
SplineSet
663 914 m 0,0,1
 609 985 609 985 531 985 c 128,-1,2
 453 985 453 985 399 914 c 0,3,4
 348 847 348 847 348 755 c 128,-1,5
 348 663 348 663 399 596 c 0,6,7
 454 525 454 525 531 525 c 0,8,9
 610 525 610 525 663 596 c 0,10,11
 714 662 714 662 714 755 c 0,12,13
 714 847 714 847 663 914 c 0,0,1
531 415 m 0,14,15
 392 415 392 415 296 515 c 128,-1,16
 200 615 200 615 200 755 c 0,17,18
 200 894 200 894 297 995 c 0,19,20
 393 1095 393 1095 531 1095 c 0,21,22
 670 1095 670 1095 766 995 c 128,-1,23
 862 895 862 895 862 755 c 128,-1,24
 862 615 862 615 765.5 515 c 128,-1,25
 669 415 669 415 531 415 c 0,14,15
EndSplineSet
Validated: 1
EndChar

StartChar: uni2219
Encoding: 8729 8729 186
Width: 660
GlyphClass: 2
Flags: W
HStem: 624 264<239.191 420.809>
VStem: 200 260<663.707 848.293>
LayerCount: 2
Fore
SplineSet
200 756 m 128,-1,1
 200 811 200 811 238 849.5 c 128,-1,2
 276 888 276 888 330 888 c 128,-1,3
 384 888 384 888 422 849.5 c 128,-1,4
 460 811 460 811 460 756 c 128,-1,5
 460 701 460 701 422 662.5 c 128,-1,6
 384 624 384 624 330 624 c 128,-1,7
 276 624 276 624 238 662.5 c 128,-1,0
 200 701 200 701 200 756 c 128,-1,1
EndSplineSet
Validated: 1
EndChar

StartChar: radical
Encoding: 8730 8730 187
Width: 1478
GlyphClass: 2
Flags: W
HStem: 0 21G<506 684.5> 1492 20G<1140 1378>
DStem2: 608 262 304 533 0.426675 -0.904405<-564.467 -1.29188> 608 262 767 285 0.426921 0.904289<3.60935 1359.93>
LayerCount: 2
Fore
SplineSet
521 0 m 1,0,1
 491 138 491 138 421 285 c 2,2,-1
 304 533 l 2,3,4
 249 649 249 649 150 792 c 1,5,-1
 396 792 l 1,6,7
 442 625 442 625 496 507 c 2,8,-1
 608 262 l 25,9,-1
 1056 1227 l 2,10,11
 1124 1372 1124 1372 1156 1512 c 1,12,-1
 1378 1512 l 1,13,14
 1287 1386 1287 1386 1224 1253 c 2,15,-1
 767 285 l 2,16,17
 702 148 702 148 667 0 c 1,18,-1
 521 0 l 1,0,1
EndSplineSet
Validated: 1
EndChar

StartChar: uni221B
Encoding: 8731 8731 188
Width: 1478
GlyphClass: 2
Flags: W
HStem: 0 21G<506 684.5> 843 86<343.956 529.613> 1423 87<302.065 517>
VStem: 261 32<1019.73 1051> 560 128<962.425 1157.12>
DStem2: 608 262 304 533 0.426675 -0.904405<-564.467 -1.29188> 376 1234 514 1256 0.597962 0.801524<100.152 234.519> 608 262 767 285 0.426921 0.904289<3.60935 1359.93>
LayerCount: 2
Fore
SplineSet
261 1051 m 1,0,-1
 293 1051 l 1,1,2
 314 1005 314 1005 334 982 c 0,3,4
 381 929 381 929 439 929 c 0,5,6
 495 929 495 929 530 969 c 0,7,8
 560 1002 560 1002 560 1060 c 0,9,10
 560 1124 560 1124 527 1153 c 0,11,12
 486 1189 486 1189 410 1189 c 1,13,-1
 376 1234 l 1,14,-1
 517 1423 l 1,15,-1
 444 1423 l 2,16,17
 366 1423 366 1423 300 1407 c 1,18,-1
 300 1510 l 1,19,-1
 645 1510 l 1,20,-1
 659 1434 l 1,21,22
 612 1392 612 1392 569 1332 c 2,23,-1
 514 1256 l 1,24,25
 567 1248 567 1248 616 1212 c 0,26,27
 688 1157 688 1157 688 1057 c 0,28,29
 688 969 688 969 613 901 c 0,30,31
 549 843 549 843 433 843 c 0,32,33
 340 843 340 843 261 916 c 1,34,-1
 261 1051 l 1,0,-1
521 0 m 1,35,36
 491 138 491 138 421 285 c 2,37,-1
 304 533 l 2,38,39
 249 649 249 649 150 792 c 1,40,-1
 396 792 l 1,41,42
 442 625 442 625 496 507 c 2,43,-1
 608 262 l 25,44,-1
 1056 1227 l 2,45,46
 1124 1372 1124 1372 1156 1512 c 1,47,-1
 1378 1512 l 1,48,49
 1287 1386 1287 1386 1224 1253 c 2,50,-1
 767 285 l 2,51,52
 702 148 702 148 667 0 c 1,53,-1
 521 0 l 1,35,36
EndSplineSet
Validated: 1
EndChar

StartChar: infinity
Encoding: 8734 8734 189
Width: 1576
GlyphClass: 2
Flags: W
HStem: 415 110<424.637 637.705 937.719 1153.31> 985 110<422.906 638.452 937.825 1151.53>
VStem: 200 148<605.483 904.273> 714 148<604.473 905.527> 1228 148<605.425 904.517>
CounterMasks: 1 38
LayerCount: 2
Fore
SplineSet
531 415 m 128,-1,1
 392 415 392 415 296 515 c 128,-1,2
 200 615 200 615 200 755 c 0,3,4
 200 894 200 894 297 995 c 0,5,6
 393 1095 393 1095 531 1095 c 0,7,8
 666 1095 666 1095 766 995 c 0,9,10
 778 983 778 983 788 969 c 1,11,12
 799 982 799 982 811 995 c 0,13,14
 903 1095 903 1095 1045 1095 c 0,15,16
 1184 1095 1184 1095 1280 995 c 128,-1,17
 1376 895 1376 895 1376 755 c 128,-1,18
 1376 615 1376 615 1279.5 515 c 128,-1,19
 1183 415 1183 415 1045 415 c 0,20,21
 910 415 910 415 810 515 c 0,22,23
 798 527 798 527 788 540 c 1,24,25
 777 527 777 527 766 515 c 0,26,0
 670 415 670 415 531 415 c 128,-1,1
663 914 m 0,27,28
 609 985 609 985 531 985 c 128,-1,29
 453 985 453 985 399 914 c 0,30,31
 348 847 348 847 348 755 c 128,-1,32
 348 663 348 663 399 596 c 0,33,34
 454 525 454 525 531 525 c 0,35,36
 610 525 610 525 663 596 c 0,37,38
 714 662 714 662 714 755 c 0,39,40
 714 847 714 847 663 914 c 0,27,28
1177 914 m 0,41,42
 1123 985 1123 985 1045 985 c 128,-1,43
 967 985 967 985 913 914 c 0,44,45
 862 847 862 847 862 755 c 128,-1,46
 862 663 862 663 913 596 c 0,47,48
 968 525 968 525 1045 525 c 0,49,50
 1124 525 1124 525 1177 596 c 0,51,52
 1228 662 1228 662 1228 755 c 0,53,54
 1228 847 1228 847 1177 914 c 0,41,42
EndSplineSet
Validated: 1
EndChar

StartChar: approxequal
Encoding: 8776 8776 190
Width: 1206
GlyphClass: 2
Flags: W
HStem: 354 168<714.146 921.247> 562 168<284.753 491.854> 748 168<714.146 921.247> 956 168<284.753 491.854>
VStem: 200 10<354 373.043 748 767.043> 996 10<710.957 730 1104.96 1124>
DStem2: 714 960 492 912 0.788976 -0.614424<-254.321 108.661> 714 566 492 518 0.788976 -0.614424<-254.321 108.661>
LayerCount: 2
Fore
SplineSet
200 621 m 1,0,1
 287 730 287 730 398 730 c 0,2,3
 503 730 503 730 601 654 c 2,4,-1
 714 566 l 2,5,6
 770 522 770 522 819 522 c 272,7,8
 950 522 950 522 996 730 c 1,9,-1
 1006 730 l 1,10,-1
 1006 463 l 1,11,12
 919 354 919 354 808 354 c 0,13,14
 703 354 703 354 605 430 c 2,15,-1
 492 518 l 2,16,17
 436 562 436 562 387 562 c 272,18,19
 256 562 256 562 210 354 c 1,20,-1
 200 354 l 1,21,-1
 200 621 l 1,0,1
200 1015 m 1,22,23
 287 1124 287 1124 398 1124 c 0,24,25
 503 1124 503 1124 601 1048 c 2,26,-1
 714 960 l 2,27,28
 770 916 770 916 819 916 c 272,29,30
 950 916 950 916 996 1124 c 1,31,-1
 1006 1124 l 1,32,-1
 1006 857 l 1,33,34
 919 748 919 748 808 748 c 0,35,36
 703 748 703 748 605 824 c 2,37,-1
 492 912 l 2,38,39
 436 956 436 956 387 956 c 272,40,41
 256 956 256 956 210 748 c 1,42,-1
 200 748 l 1,43,-1
 200 1015 l 1,22,23
EndSplineSet
Validated: 1
EndChar

StartChar: notequal
Encoding: 8800 8800 191
Width: 1290
GlyphClass: 2
Flags: W
HStem: 484 154<642 1056.25> 852 154<232.688 648>
DStem2: 354 473 497 451 0.613417 0.789759<-225.082 0 306.974 479.663 784.621 1015.01>
LayerCount: 2
Fore
SplineSet
228 1036 m 1,0,1
 378 1006 378 1006 528 1006 c 2,2,-1
 768 1006 l 1,3,-1
 795 1041 l 2,4,5
 896 1171 896 1171 956 1296 c 1,6,-1
 1190 1296 l 1,7,8
 1077 1201 1077 1201 982 1078 c 2,9,-1
 934 1016 l 1,10,11
 997 1023 997 1023 1061 1036 c 1,12,-1
 1061 822 l 1,13,14
 933 847 933 847 807 851 c 1,15,-1
 642 638 l 1,16,-1
 761 638 l 2,17,18
 909 638 909 638 1061 668 c 1,19,-1
 1061 454 l 1,20,21
 920 484 920 484 761 484 c 2,22,-1
 523 484 l 1,23,-1
 497 451 l 2,24,25
 406 333 406 333 336 196 c 1,26,-1
 100 196 l 1,27,28
 225 307 225 307 308 414 c 2,29,-1
 354 473 l 1,30,31
 293 466 293 466 228 454 c 1,32,-1
 228 668 l 1,33,34
 355 643 355 643 483 639 c 1,35,-1
 648 852 l 1,36,-1
 528 852 l 2,37,38
 378 852 378 852 228 822 c 1,39,-1
 228 1036 l 1,0,1
EndSplineSet
Validated: 1
EndChar

StartChar: equivalence
Encoding: 8801 8801 192
Width: 1233
GlyphClass: 2
Flags: W
HStem: 300 154<204.688 1028.25> 668 154<204.688 1028.25> 1036 154<204.688 1028.25>
CounterMasks: 1 e0
LayerCount: 2
Fore
SplineSet
200 484 m 1,0,1
 350 454 350 454 500 454 c 2,2,-1
 733 454 l 2,3,4
 881 454 881 454 1033 484 c 1,5,-1
 1033 270 l 1,6,7
 882 300 882 300 733 300 c 2,8,-1
 500 300 l 2,9,10
 350 300 350 300 200 270 c 1,11,-1
 200 484 l 1,0,1
200 1220 m 1,12,13
 350 1190 350 1190 500 1190 c 2,14,-1
 733 1190 l 2,15,16
 881 1190 881 1190 1033 1220 c 1,17,-1
 1033 1006 l 1,18,19
 882 1036 882 1036 733 1036 c 2,20,-1
 500 1036 l 2,21,22
 350 1036 350 1036 200 1006 c 1,23,-1
 200 1220 l 1,12,13
200 852 m 1,24,25
 350 822 350 822 500 822 c 2,26,-1
 733 822 l 2,27,28
 881 822 881 822 1033 852 c 1,29,-1
 1033 638 l 1,30,31
 882 668 882 668 733 668 c 2,32,-1
 500 668 l 2,33,34
 350 668 350 668 200 638 c 1,35,-1
 200 852 l 1,24,25
EndSplineSet
Validated: 1
EndChar

StartChar: lessequal
Encoding: 8804 8804 193
Width: 1300
GlyphClass: 2
Flags: W
HStem: 150 154<204.688 1095.25>
DStem2: 485 1079 435 876 0.916379 0.400313<-126.695 584.123> 435 876 485 697 0.902817 -0.430026<1.34968 716.976>
LayerCount: 2
Fore
SplineSet
200 334 m 1,0,1
 350 304 350 304 500 304 c 2,2,-1
 800 304 l 2,3,4
 948 304 948 304 1100 334 c 1,5,-1
 1100 120 l 1,6,7
 949 150 949 150 800 150 c 2,8,-1
 500 150 l 2,9,10
 350 150 350 150 200 120 c 1,11,-1
 200 334 l 1,0,1
200 797 m 1,12,-1
 200 979 l 1,13,14
 341 1010 341 1010 485 1079 c 2,15,-1
 841 1249 l 2,16,17
 982 1317 982 1317 1100 1403 c 1,18,-1
 1100 1142 l 1,19,20
 954 1103 954 1103 815 1042 c 2,21,-1
 435 876 l 25,22,-1
 815 695 l 2,23,24
 964 624 964 624 1100 595 c 1,25,-1
 1100 373 l 1,26,27
 971 465 971 465 841 527 c 2,28,-1
 485 697 l 2,29,30
 352 761 352 761 200 797 c 1,12,-1
EndSplineSet
Validated: 1
EndChar

StartChar: greaterequal
Encoding: 8805 8805 194
Width: 1300
GlyphClass: 2
Flags: W
HStem: 150 154<204.688 1095.25>
DStem2: 865 900 459 527 0.916379 0.400313<-711.137 -0.387861> 815 1079 865 900 0.902817 -0.430026<-594.861 121.637>
LayerCount: 2
Fore
SplineSet
200 334 m 1,0,1
 350 304 350 304 500 304 c 2,2,-1
 800 304 l 2,3,4
 948 304 948 304 1100 334 c 1,5,-1
 1100 120 l 1,6,7
 949 150 949 150 800 150 c 2,8,-1
 500 150 l 2,9,10
 350 150 350 150 200 120 c 1,11,-1
 200 334 l 1,0,1
200 1403 m 1,12,13
 329 1311 329 1311 459 1249 c 2,14,-1
 815 1079 l 2,15,16
 950 1015 950 1015 1100 979 c 1,17,-1
 1100 797 l 1,18,19
 959 766 959 766 815 697 c 2,20,-1
 459 527 l 2,21,22
 321 461 321 461 200 373 c 1,23,-1
 200 634 l 1,24,25
 348 674 348 674 485 734 c 2,26,-1
 865 900 l 25,27,-1
 485 1081 l 2,28,29
 336 1152 336 1152 200 1181 c 1,30,-1
 200 1403 l 1,12,13
EndSplineSet
Validated: 1
EndChar

StartChar: lozenge
Encoding: 9674 9674 195
Width: 1174
GlyphClass: 2
Flags: W
HStem: 0 21G<574.344 599.605> 1495 20G<574.979 599.067>
DStem2: 308 775 120 738 0.534725 -0.845026<0 570.928> 120 738 308 775 0.515144 0.857103<128.56 618.702> 587 1515 559 1196 0.516609 -0.856221<258.67 839.548> 614 293 587 0 0.533177 0.846004<0 477.931>
LayerCount: 2
Fore
SplineSet
559 1196 m 1,0,-1
 308 775 l 1,1,-1
 614 293 l 1,2,-1
 863 701 l 1,3,-1
 559 1196 l 1,0,-1
587 1515 m 1,4,-1
 1054 741 l 1,5,-1
 587 0 l 1,6,-1
 120 738 l 1,7,-1
 587 1515 l 1,4,-1
EndSplineSet
Validated: 1
EndChar

StartChar: four
Encoding: 52 52 196
Width: 1248
Flags: W
HStem: 0 21G<749 1009> 360 154<981.405 1128> 360 124<197 779 979 1125.75> 1490 20G<721.5 1009>
VStem: 779 200<5.21045 360 491 1289.69>
DStem2: 211 711 197 484 0.585417 0.810732<-188.697 797.521>
LayerCount: 2
Fore
SplineSet
749 0 m 1,0,1
 779 167 779 167 779 300 c 2,2,-1
 779 360 l 1,3,-1
 63 360 l 1,4,-1
 20 484 l 1,5,6
 119 585 119 585 211 711 c 2,7,-1
 602 1247 l 2,8,9
 694 1373 694 1373 749 1510 c 9,10,-1
 1009 1510 l 17,11,12
 979 1360 979 1360 979 1210 c 2,13,-1
 979 491 l 1,14,15
 1056 499 1056 499 1128 514 c 1,16,-1
 1128 360 l 1,17,-1
 979 360 l 1,18,-1
 979 300 l 2,19,20
 979 150 979 150 1009 0 c 1,21,-1
 749 0 l 1,0,1
779 484 m 1,22,-1
 779 1290 l 1,23,-1
 197 484 l 1,24,-1
 779 484 l 1,22,-1
EndSplineSet
Validated: 1
EndChar

StartChar: ampersand
Encoding: 38 38 197
Width: 1815
Flags: W
HStem: 0 133<486.047 743.581> 807 123<584.374 832.311> 1080 20G<1397.5 1665> 1406 124<529.804 805.679>
VStem: 150 220<260.738 647.74> 274 182<1049.22 1330.42> 909 10<1223 1232.66>
DStem2: 783 218 972 255 0.613417 0.789759<-135.687 357.581 583.682 1089.47> 1129 694 887 711 0.589101 -0.808059<-275.314 19.1901 203.078 688.992>
LayerCount: 2
Fore
SplineSet
1025 530 m 1,0,-1
 887 711 l 2,1,2
 814 807 814 807 678 807 c 0,3,4
 550 807 550 807 456 705 c 0,5,6
 370 612 370 612 370 450 c 0,7,8
 370 291 370 291 450 206 c 0,9,10
 519 133 519 133 622 133 c 0,11,12
 717 133 717 133 783 218 c 2,13,-1
 1025 530 l 1,0,-1
1665 0 m 1,14,-1
 1354 0 l 1,15,16
 1306 137 1306 137 1211 270 c 2,17,-1
 1102 423 l 1,18,-1
 972 255 l 2,19,20
 883 140 883 140 811 0 c 1,21,-1
 723 0 l 2,22,23
 429 0 429 0 311 107 c 0,24,25
 150 253 150 253 150 456 c 0,26,27
 150 668 150 668 301 801 c 0,28,29
 375 866 375 866 468 898 c 1,30,31
 274 991 274 991 274 1200 c 0,32,33
 274 1360 274 1360 422 1465 c 0,34,35
 513 1530 513 1530 677 1530 c 0,36,37
 815 1530 815 1530 919 1434 c 1,38,-1
 919 1223 l 1,39,-1
 909 1223 l 1,40,41
 894 1254 894 1254 875 1284 c 0,42,43
 797 1406 797 1406 678 1406 c 0,44,45
 578 1406 578 1406 525 1358 c 0,46,47
 456 1296 456 1296 456 1199 c 0,48,49
 456 1008 456 1008 675 930 c 1,50,-1
 978 930 l 1,51,52
 1041 804 1041 804 1129 694 c 2,53,-1
 1141 679 l 1,54,-1
 1270 845 l 2,55,56
 1364 966 1364 966 1431 1100 c 1,57,-1
 1665 1100 l 1,58,59
 1549 1001 1549 1001 1457 882 c 2,60,-1
 1218 573 l 1,61,-1
 1468 229 l 2,62,63
 1548 119 1548 119 1665 0 c 1,14,-1
EndSplineSet
Validated: 1
EndChar

StartChar: Agrave
Encoding: 192 192 198
Width: 1580
Flags: W
HStem: 0 21G<0 241 1277 1580> 697 114<560 958> 1490 20G<678 902>
DStem2: 599 1225 508 697 0.418402 0.908262<-1265.66 -517.637 -392.338 102.703> 981 1225 758 1268 0.408549 -0.912736<-125.877 368.476 493.773 1242.55>
LayerCount: 2
Fore
SplineSet
453 1950 m 1,0,-1
 695 1950 l 1,1,2
 695 1786 695 1786 852 1630 c 1,3,-1
 852 1620 l 9,4,-1
 709 1620 l 17,5,6
 521 1765 521 1765 453 1940 c 1,7,-1
 453 1950 l 1,0,-1
0 0 m 1,8,9
 94 129 94 129 154 259 c 2,10,-1
 599 1225 l 2,11,12
 657 1351 657 1351 699 1510 c 1,13,-1
 881 1510 l 1,14,15
 923 1351 923 1351 981 1225 c 2,16,-1
 1426 259 l 2,17,18
 1484 134 1484 134 1580 0 c 1,19,-1
 1298 0 l 1,20,21
 1256 159 1256 159 1198 285 c 2,22,-1
 1010 697 l 1,23,-1
 508 697 l 1,24,-1
 322 285 l 2,25,26
 260 148 260 148 222 0 c 1,27,-1
 0 0 l 1,8,9
560 811 m 1,28,-1
 958 811 l 1,29,-1
 758 1268 l 1,30,-1
 560 811 l 1,28,-1
EndSplineSet
Validated: 3073
EndChar

StartChar: Aacute
Encoding: 193 193 199
Width: 1580
Flags: W
HStem: 0 21G<0 241 1277 1580> 697 114<560 958> 1490 20G<678 902>
DStem2: 599 1225 508 697 0.418402 0.908262<-1265.66 -517.637 -392.338 102.703> 981 1225 758 1268 0.408549 -0.912736<-125.877 368.476 493.773 1242.55>
LayerCount: 2
Fore
SplineSet
1130 1950 m 1,0,-1
 1130 1940 l 1,1,2
 1062 1765 1062 1765 874 1620 c 9,3,-1
 731 1620 l 17,4,-1
 731 1630 l 1,5,6
 888 1786 888 1786 888 1950 c 1,7,-1
 1130 1950 l 1,0,-1
0 0 m 1,8,9
 94 129 94 129 154 259 c 2,10,-1
 599 1225 l 2,11,12
 657 1351 657 1351 699 1510 c 1,13,-1
 881 1510 l 1,14,15
 923 1351 923 1351 981 1225 c 2,16,-1
 1426 259 l 2,17,18
 1484 134 1484 134 1580 0 c 1,19,-1
 1298 0 l 1,20,21
 1256 159 1256 159 1198 285 c 2,22,-1
 1010 697 l 1,23,-1
 508 697 l 1,24,-1
 322 285 l 2,25,26
 260 148 260 148 222 0 c 1,27,-1
 0 0 l 1,8,9
560 811 m 1,28,-1
 958 811 l 1,29,-1
 758 1268 l 1,30,-1
 560 811 l 1,28,-1
EndSplineSet
Validated: 3073
EndChar

StartChar: Acircumflex
Encoding: 194 194 200
Width: 1580
Flags: W
HStem: 0 21G<0 241 1277 1580> 697 114<560 958> 1490 20G<678 902>
DStem2: 599 1225 508 697 0.418402 0.908262<-1265.66 -517.637 -392.338 102.703> 981 1225 758 1268 0.408549 -0.912736<-125.877 368.476 493.773 1242.55>
LayerCount: 2
Fore
SplineSet
718 1950 m 1,0,-1
 877 1950 l 1,1,2
 951 1775 951 1775 1134 1630 c 1,3,-1
 1134 1620 l 1,4,-1
 931 1620 l 1,5,6
 851 1702 851 1702 797 1829 c 1,7,8
 743 1699 743 1699 664 1620 c 1,9,-1
 461 1620 l 1,10,-1
 461 1630 l 1,11,12
 644 1777 644 1777 718 1950 c 1,0,-1
0 0 m 1,13,14
 94 129 94 129 154 259 c 2,15,-1
 599 1225 l 2,16,17
 657 1351 657 1351 699 1510 c 1,18,-1
 881 1510 l 1,19,20
 923 1351 923 1351 981 1225 c 2,21,-1
 1426 259 l 2,22,23
 1484 134 1484 134 1580 0 c 1,24,-1
 1298 0 l 1,25,26
 1256 159 1256 159 1198 285 c 2,27,-1
 1010 697 l 1,28,-1
 508 697 l 1,29,-1
 322 285 l 2,30,31
 260 148 260 148 222 0 c 1,32,-1
 0 0 l 1,13,14
560 811 m 1,33,-1
 958 811 l 1,34,-1
 758 1268 l 1,35,-1
 560 811 l 1,33,-1
EndSplineSet
Validated: 3073
EndChar

StartChar: Atilde
Encoding: 195 195 201
Width: 1580
Flags: W
HStem: 0 21G<0 241 1277 1580> 697 114<560 958> 1490 20G<678 902> 1660 130<874.404 1048.77> 1820 130<561.183 736.375>
VStem: 505 9<1660 1674.65> 1095 10<1930.62 1950>
DStem2: 599 1225 508 697 0.418402 0.908262<-1265.66 -517.637 -392.338 102.703> 981 1225 758 1268 0.408549 -0.912736<-125.877 368.476 493.773 1242.55> 803 1891 806 1719 0.785356 -0.619045<-80.7665 190.384>
LayerCount: 2
Fore
SplineSet
505 1866 m 1,0,1
 570 1950 570 1950 652 1950 c 0,2,3
 731 1950 731 1950 803 1891 c 2,4,-1
 888 1824 l 2,5,6
 929 1790 929 1790 967 1790 c 256,7,8
 1061 1790 1061 1790 1095 1950 c 1,9,-1
 1105 1950 l 1,10,-1
 1105 1744 l 1,11,12
 1040 1660 1040 1660 959 1660 c 0,13,14
 880 1660 880 1660 806 1719 c 2,15,-1
 722 1787 l 2,16,17
 681 1820 681 1820 643 1820 c 272,18,19
 549 1820 549 1820 514 1660 c 1,20,-1
 505 1660 l 1,21,-1
 505 1866 l 1,0,1
0 0 m 1,22,23
 94 129 94 129 154 259 c 2,24,-1
 599 1225 l 2,25,26
 657 1351 657 1351 699 1510 c 1,27,-1
 881 1510 l 1,28,29
 923 1351 923 1351 981 1225 c 2,30,-1
 1426 259 l 2,31,32
 1484 134 1484 134 1580 0 c 1,33,-1
 1298 0 l 1,34,35
 1256 159 1256 159 1198 285 c 2,36,-1
 1010 697 l 1,37,-1
 508 697 l 1,38,-1
 322 285 l 2,39,40
 260 148 260 148 222 0 c 1,41,-1
 0 0 l 1,22,23
560 811 m 1,42,-1
 958 811 l 1,43,-1
 758 1268 l 1,44,-1
 560 811 l 1,42,-1
EndSplineSet
Validated: 3073
EndChar

StartChar: Adieresis
Encoding: 196 196 202
Width: 1580
Flags: W
HStem: 0 21G<0 241 1277 1580> 697 114<560 958> 1490 20G<678 902> 1686 264<519.191 700.809 875.191 1056.81>
VStem: 480 260<1725.71 1910.29> 836 260<1725.71 1910.29>
DStem2: 599 1225 508 697 0.418402 0.908262<-1265.66 -517.637 -392.338 102.703> 981 1225 758 1268 0.408549 -0.912736<-125.877 368.476 493.773 1242.55>
LayerCount: 2
Fore
SplineSet
836 1818 m 128,-1,1
 836 1873 836 1873 874 1911.5 c 128,-1,2
 912 1950 912 1950 966 1950 c 128,-1,3
 1020 1950 1020 1950 1058 1911.5 c 128,-1,4
 1096 1873 1096 1873 1096 1818 c 128,-1,5
 1096 1763 1096 1763 1058 1724.5 c 128,-1,6
 1020 1686 1020 1686 966 1686 c 128,-1,7
 912 1686 912 1686 874 1724.5 c 128,-1,0
 836 1763 836 1763 836 1818 c 128,-1,1
480 1818 m 128,-1,9
 480 1873 480 1873 518 1911.5 c 128,-1,10
 556 1950 556 1950 610 1950 c 128,-1,11
 664 1950 664 1950 702 1911.5 c 128,-1,12
 740 1873 740 1873 740 1818 c 128,-1,13
 740 1763 740 1763 702 1724.5 c 128,-1,14
 664 1686 664 1686 610 1686 c 128,-1,15
 556 1686 556 1686 518 1724.5 c 128,-1,8
 480 1763 480 1763 480 1818 c 128,-1,9
0 0 m 1,16,17
 94 129 94 129 154 259 c 2,18,-1
 599 1225 l 2,19,20
 657 1351 657 1351 699 1510 c 1,21,-1
 881 1510 l 1,22,23
 923 1351 923 1351 981 1225 c 2,24,-1
 1426 259 l 2,25,26
 1484 134 1484 134 1580 0 c 1,27,-1
 1298 0 l 1,28,29
 1256 159 1256 159 1198 285 c 2,30,-1
 1010 697 l 1,31,-1
 508 697 l 1,32,-1
 322 285 l 2,33,34
 260 148 260 148 222 0 c 1,35,-1
 0 0 l 1,16,17
560 811 m 1,36,-1
 958 811 l 1,37,-1
 758 1268 l 1,38,-1
 560 811 l 1,36,-1
EndSplineSet
Validated: 3073
EndChar

StartChar: Aring
Encoding: 197 197 203
Width: 1580
Flags: W
HStem: 0 21G<0 241 1277 1580> 697 114<560 958> 1490 20G<678 902> 1546 99<704.141 864.702> 1851 99<711.008 865.387>
VStem: 588 98<1662.5 1826.07> 890 98<1669.21 1825.84>
DStem2: 599 1225 508 697 0.418402 0.908262<-1265.66 -517.637 -392.338 102.703> 981 1225 758 1268 0.408549 -0.912736<-125.877 368.476 493.773 1242.55>
LayerCount: 2
Fore
SplineSet
788 1645 m 256,0,1
 831 1645 831 1645 860 1675 c 0,2,3
 890 1707 890 1707 890 1748 c 0,4,5
 890 1791 890 1791 860 1821 c 128,-1,6
 830 1851 830 1851 789 1851 c 0,7,8
 745 1851 745 1851 716 1821 c 0,9,10
 686 1790 686 1790 686 1748 c 0,11,12
 686 1705 686 1705 716 1675 c 0,13,14
 745 1645 745 1645 788 1645 c 256,0,1
790 1950 m 0,15,16
 871 1950 871 1950 929 1891 c 0,17,18
 988 1830 988 1830 988 1749 c 0,19,20
 988 1665 988 1665 929 1606 c 0,21,22
 869 1546 869 1546 788 1546 c 256,23,24
 705 1546 705 1546 647 1606 c 0,25,26
 588 1665 588 1665 588 1749 c 0,27,28
 588 1831 588 1831 647 1891 c 0,29,30
 705 1950 705 1950 790 1950 c 0,15,16
0 0 m 1,31,32
 94 129 94 129 154 259 c 2,33,-1
 599 1225 l 2,34,35
 657 1351 657 1351 699 1510 c 1,36,-1
 881 1510 l 1,37,38
 923 1351 923 1351 981 1225 c 2,39,-1
 1426 259 l 2,40,41
 1484 134 1484 134 1580 0 c 1,42,-1
 1298 0 l 1,43,44
 1256 159 1256 159 1198 285 c 2,45,-1
 1010 697 l 1,46,-1
 508 697 l 1,47,-1
 322 285 l 2,48,49
 260 148 260 148 222 0 c 1,50,-1
 0 0 l 1,31,32
560 811 m 1,51,-1
 958 811 l 1,52,-1
 758 1268 l 1,53,-1
 560 811 l 1,51,-1
EndSplineSet
Validated: 3073
EndChar

StartChar: AE
Encoding: 198 198 204
Width: 1847
Flags: W
HStem: 0 124<1173.69 1742.56> 697 114<637 969 1169 1622.31> 1386 124<1174.86 1622.31>
VStem: 969 200<126.873 697 821 1383.13>
DStem2: 173 260 353 282 0.472576 0.88129<-201.558 579.825 704.866 1391.87>
LayerCount: 2
Fore
SplineSet
1747 0 m 1,0,-1
 939 0 l 1,1,2
 969 150 969 150 969 300 c 2,3,-1
 969 697 l 1,4,-1
 585 697 l 1,5,-1
 353 282 l 2,6,7
 271 134 271 134 222 0 c 1,8,-1
 0 0 l 1,9,10
 108 138 108 138 173 260 c 2,11,-1
 691 1226 l 2,12,13
 769 1371 769 1371 816 1510 c 1,14,-1
 1627 1510 l 1,15,-1
 1627 1356 l 1,16,17
 1477 1386 1477 1386 1327 1386 c 2,18,-1
 1179 1386 l 1,19,20
 1169 1294 1169 1294 1169 1210 c 2,21,-1
 1169 821 l 1,22,-1
 1327 821 l 2,23,24
 1477 821 1477 821 1627 851 c 1,25,-1
 1627 667 l 1,26,27
 1477 697 1477 697 1327 697 c 2,28,-1
 1169 697 l 1,29,-1
 1169 300 l 2,30,31
 1169 216 1169 216 1177 124 c 1,32,-1
 1447 124 l 2,33,34
 1605 124 1605 124 1747 154 c 1,35,-1
 1747 0 l 1,0,-1
954 1424 m 1,36,-1
 637 811 l 1,37,-1
 969 811 l 1,38,-1
 969 1210 l 2,39,40
 969 1317 969 1317 954 1424 c 1,36,-1
EndSplineSet
Validated: 3073
EndChar

StartChar: Amacron
Encoding: 256 256 205
Width: 1580
Flags: W
HStem: 0 21G<0 241 1277 1580> 697 114<560 958> 1490 20G<678 902> 1730 124<509.688 1100.25>
DStem2: 599 1225 508 697 0.418402 0.908262<-1265.66 -517.637 -392.338 102.703> 981 1225 758 1268 0.408549 -0.912736<-125.877 368.476 493.773 1242.55>
LayerCount: 2
Fore
SplineSet
505 1884 m 1,0,1
 655 1854 655 1854 805 1854 c 0,2,3
 953 1854 953 1854 1105 1884 c 1,4,-1
 1105 1700 l 1,5,6
 954 1730 954 1730 805 1730 c 0,7,8
 655 1730 655 1730 505 1700 c 1,9,-1
 505 1884 l 1,0,1
0 0 m 1,10,11
 94 129 94 129 154 259 c 2,12,-1
 599 1225 l 2,13,14
 657 1351 657 1351 699 1510 c 1,15,-1
 881 1510 l 1,16,17
 923 1351 923 1351 981 1225 c 2,18,-1
 1426 259 l 2,19,20
 1484 134 1484 134 1580 0 c 1,21,-1
 1298 0 l 1,22,23
 1256 159 1256 159 1198 285 c 2,24,-1
 1010 697 l 1,25,-1
 508 697 l 1,26,-1
 322 285 l 2,27,28
 260 148 260 148 222 0 c 1,29,-1
 0 0 l 1,10,11
560 811 m 1,30,-1
 958 811 l 1,31,-1
 758 1268 l 1,32,-1
 560 811 l 1,30,-1
EndSplineSet
Validated: 3073
EndChar

StartChar: Abreve
Encoding: 258 258 206
Width: 1580
Flags: W
HStem: 0 21G<0 241 1277 1580> 697 114<560 958> 1490 20G<678 902> 1681 134<629.219 980.781>
DStem2: 599 1225 508 697 0.418402 0.908262<-1265.66 -517.637 -392.338 102.703> 981 1225 758 1268 0.408549 -0.912736<-125.877 368.476 493.773 1242.55>
LayerCount: 2
Fore
SplineSet
505 1950 m 17,0,-1
 515 1950 l 1,1,2
 634 1815 634 1815 805 1815 c 128,-1,3
 976 1815 976 1815 1095 1950 c 1,4,5
 1105 1950 l 9,6,-1
 1105 1757 l 1,7,8
 969 1681 969 1681 805 1681 c 128,-1,9
 641 1681 641 1681 505 1757 c 1,10,-1
 505 1950 l 17,0,-1
0 0 m 1,11,12
 94 129 94 129 154 259 c 2,13,-1
 599 1225 l 2,14,15
 657 1351 657 1351 699 1510 c 1,16,-1
 881 1510 l 1,17,18
 923 1351 923 1351 981 1225 c 2,19,-1
 1426 259 l 2,20,21
 1484 134 1484 134 1580 0 c 1,22,-1
 1298 0 l 1,23,24
 1256 159 1256 159 1198 285 c 2,25,-1
 1010 697 l 1,26,-1
 508 697 l 1,27,-1
 322 285 l 2,28,29
 260 148 260 148 222 0 c 1,30,-1
 0 0 l 1,11,12
560 811 m 1,31,-1
 958 811 l 1,32,-1
 758 1268 l 1,33,-1
 560 811 l 1,31,-1
EndSplineSet
Validated: 3073
EndChar

StartChar: Aogonek
Encoding: 260 260 207
Width: 1580
Flags: W
HStem: -430 138<1311.58 1419> 0 21G<0 241> 697 114<560 958> 1490 20G<678 902>
VStem: 1143 151<-272.598 -61.1044>
DStem2: 599 1225 508 697 0.405448 0.914118<-1267.97 -519.55 -394.257 102.745> 981 1225 758 1268 0.418402 -0.908262<-130.484 366.397 491.696 1192.98>
LayerCount: 2
Fore
SplineSet
560 811 m 1,0,-1
 958 811 l 1,1,-1
 758 1268 l 1,2,-1
 560 811 l 1,0,-1
0 0 m 1,3,4
 94 129 94 129 154 259 c 2,5,-1
 599 1225 l 2,6,7
 657 1351 657 1351 699 1510 c 1,8,-1
 881 1510 l 1,9,10
 923 1351 923 1351 981 1225 c 2,11,-1
 1426 259 l 2,12,13
 1484 134 1484 134 1580 0 c 1,14,-1
 1362 0 l 1,15,16
 1294 -71 1294 -71 1294 -181 c 0,17,18
 1294 -292 1294 -292 1419 -292 c 1,19,-1
 1419 -430 l 1,20,21
 1143 -430 1143 -430 1143 -223 c 0,22,23
 1143 -67 1143 -67 1285 47 c 1,24,25
 1248 176 1248 176 1198 285 c 2,26,-1
 1010 697 l 1,27,-1
 508 697 l 1,28,-1
 322 285 l 2,29,30
 260 147 260 147 222 0 c 1,31,-1
 0 0 l 1,3,4
EndSplineSet
Validated: 3073
EndChar

StartChar: Ccedilla
Encoding: 199 199 208
Width: 1536
Flags: W
HStem: -430 138<711 818.422> 1112 21G<1286.5 1309> 1404 126<657.032 1047.45>
VStem: 100 220<493.971 1015.09> 836 151<-272.598 -61.8622>
LayerCount: 2
Fore
SplineSet
1386 412 m 1,0,-1
 1386 208 l 1,1,2
 1187 2 1187 2 912 -18 c 1,3,4
 987 -109 987 -109 987 -223 c 0,5,6
 987 -430 987 -430 711 -430 c 1,7,-1
 711 -292 l 1,8,9
 836 -292 836 -292 836 -181 c 0,10,11
 836 -84 836 -84 783 -17 c 1,12,13
 515 6 515 6 320 208 c 0,14,15
 100 435 100 435 100 755 c 128,-1,16
 100 1075 100 1075 320 1302.5 c 128,-1,17
 540 1530 540 1530 853 1530 c 0,18,19
 1114 1530 1114 1530 1309 1373 c 1,20,-1
 1309 1112 l 1,21,-1
 1299 1112 l 1,22,23
 1274 1157 1274 1157 1243 1198 c 0,24,25
 1085 1404 1085 1404 853 1404 c 0,26,27
 618 1404 618 1404 463 1198 c 0,28,29
 320 1008 320 1008 320 755 c 0,30,31
 320 498 320 498 463 312 c 0,32,33
 621 106 621 106 853 106 c 0,34,35
 1153 106 1153 106 1376 412 c 1,36,-1
 1386 412 l 1,0,-1
EndSplineSet
Validated: 3073
EndChar

StartChar: Cacute
Encoding: 262 262 209
Width: 1536
Flags: W
HStem: -20 126<657.775 1066.56> 1112 21G<1286.5 1309> 1404 126<657.032 1047.45>
VStem: 100 220<493.923 1015.09>
LayerCount: 2
Fore
SplineSet
1182 1950 m 1,0,-1
 1182 1940 l 1,1,2
 1114 1765 1114 1765 926 1620 c 9,3,-1
 783 1620 l 17,4,-1
 783 1630 l 1,5,6
 940 1786 940 1786 940 1950 c 1,7,-1
 1182 1950 l 1,0,-1
1386 412 m 9,8,-1
 1386 208 l 17,9,10
 1166 -20 1166 -20 853 -20 c 128,-1,11
 540 -20 540 -20 320 207.5 c 128,-1,12
 100 435 100 435 100 755 c 128,-1,13
 100 1075 100 1075 320 1302.5 c 128,-1,14
 540 1530 540 1530 853 1530 c 0,15,16
 1114 1530 1114 1530 1309 1373 c 1,17,-1
 1309 1112 l 1,18,-1
 1299 1112 l 1,19,20
 1274 1157 1274 1157 1243 1198 c 0,21,22
 1085 1404 1085 1404 853 1404 c 0,23,24
 618 1404 618 1404 463 1198 c 0,25,26
 320 1008 320 1008 320 755 c 0,27,28
 320 498 320 498 463 312 c 0,29,30
 621 106 621 106 853 106 c 0,31,32
 1153 106 1153 106 1376 412 c 1,33,-1
 1386 412 l 9,8,-1
EndSplineSet
Validated: 3073
EndChar

StartChar: Ccircumflex
Encoding: 264 264 210
Width: 1536
Flags: W
HStem: -20 126<657.775 1066.56> 1112 21G<1286.5 1309> 1404 126<657.032 1047.45>
VStem: 100 220<493.923 1015.09>
LayerCount: 2
Fore
SplineSet
768 1950 m 1,0,-1
 927 1950 l 1,1,2
 1001 1775 1001 1775 1184 1630 c 1,3,-1
 1184 1620 l 1,4,-1
 981 1620 l 1,5,6
 901 1702 901 1702 847 1829 c 1,7,8
 793 1699 793 1699 714 1620 c 1,9,-1
 511 1620 l 1,10,-1
 511 1630 l 1,11,12
 694 1777 694 1777 768 1950 c 1,0,-1
1386 412 m 9,13,-1
 1386 208 l 17,14,15
 1166 -20 1166 -20 853 -20 c 128,-1,16
 540 -20 540 -20 320 207.5 c 128,-1,17
 100 435 100 435 100 755 c 128,-1,18
 100 1075 100 1075 320 1302.5 c 128,-1,19
 540 1530 540 1530 853 1530 c 0,20,21
 1114 1530 1114 1530 1309 1373 c 1,22,-1
 1309 1112 l 1,23,-1
 1299 1112 l 1,24,25
 1274 1157 1274 1157 1243 1198 c 0,26,27
 1085 1404 1085 1404 853 1404 c 0,28,29
 618 1404 618 1404 463 1198 c 0,30,31
 320 1008 320 1008 320 755 c 0,32,33
 320 498 320 498 463 312 c 0,34,35
 621 106 621 106 853 106 c 0,36,37
 1153 106 1153 106 1376 412 c 1,38,-1
 1386 412 l 9,13,-1
EndSplineSet
Validated: 3073
EndChar

StartChar: Cdotaccent
Encoding: 266 266 211
Width: 1536
Flags: W
HStem: -20 126<657.775 1066.56> 1112 21G<1286.5 1309> 1404 126<657.032 1047.45> 1686 264<761.191 942.809>
VStem: 100 220<493.923 1015.09> 722 260<1725.71 1910.29>
LayerCount: 2
Fore
SplineSet
722 1818 m 128,-1,1
 722 1873 722 1873 760 1911.5 c 128,-1,2
 798 1950 798 1950 852 1950 c 128,-1,3
 906 1950 906 1950 944 1911.5 c 128,-1,4
 982 1873 982 1873 982 1818 c 128,-1,5
 982 1763 982 1763 944 1724.5 c 128,-1,6
 906 1686 906 1686 852 1686 c 128,-1,7
 798 1686 798 1686 760 1724.5 c 128,-1,0
 722 1763 722 1763 722 1818 c 128,-1,1
1386 412 m 9,8,-1
 1386 208 l 17,9,10
 1166 -20 1166 -20 853 -20 c 128,-1,11
 540 -20 540 -20 320 207.5 c 128,-1,12
 100 435 100 435 100 755 c 128,-1,13
 100 1075 100 1075 320 1302.5 c 128,-1,14
 540 1530 540 1530 853 1530 c 0,15,16
 1114 1530 1114 1530 1309 1373 c 1,17,-1
 1309 1112 l 1,18,-1
 1299 1112 l 1,19,20
 1274 1157 1274 1157 1243 1198 c 0,21,22
 1085 1404 1085 1404 853 1404 c 0,23,24
 618 1404 618 1404 463 1198 c 0,25,26
 320 1008 320 1008 320 755 c 0,27,28
 320 498 320 498 463 312 c 0,29,30
 621 106 621 106 853 106 c 0,31,32
 1153 106 1153 106 1376 412 c 1,33,-1
 1386 412 l 9,8,-1
EndSplineSet
Validated: 3073
EndChar

StartChar: Ccaron
Encoding: 268 268 212
Width: 1536
Flags: W
HStem: -20 126<657.775 1066.56> 1112 21G<1286.5 1309> 1404 126<657.032 1047.45>
VStem: 100 220<493.923 1015.09>
LayerCount: 2
Fore
SplineSet
511 1950 m 1,0,-1
 714 1950 l 1,1,2
 793 1871 793 1871 847 1741 c 1,3,4
 901 1868 901 1868 981 1950 c 1,5,-1
 1184 1950 l 1,6,-1
 1184 1940 l 1,7,8
 1001 1795 1001 1795 927 1620 c 1,9,-1
 768 1620 l 1,10,11
 694 1793 694 1793 511 1940 c 1,12,-1
 511 1950 l 1,0,-1
1386 412 m 9,13,-1
 1386 208 l 17,14,15
 1166 -20 1166 -20 853 -20 c 128,-1,16
 540 -20 540 -20 320 207.5 c 128,-1,17
 100 435 100 435 100 755 c 128,-1,18
 100 1075 100 1075 320 1302.5 c 128,-1,19
 540 1530 540 1530 853 1530 c 0,20,21
 1114 1530 1114 1530 1309 1373 c 1,22,-1
 1309 1112 l 1,23,-1
 1299 1112 l 1,24,25
 1274 1157 1274 1157 1243 1198 c 0,26,27
 1085 1404 1085 1404 853 1404 c 0,28,29
 618 1404 618 1404 463 1198 c 0,30,31
 320 1008 320 1008 320 755 c 0,32,33
 320 498 320 498 463 312 c 0,34,35
 621 106 621 106 853 106 c 0,36,37
 1153 106 1153 106 1376 412 c 1,38,-1
 1386 412 l 9,13,-1
EndSplineSet
Validated: 3073
EndChar

StartChar: Eth
Encoding: 208 208 213
Width: 1586
Flags: W
HStem: 0 124<404.5 936.312> 697 124<400 803.312> 1386 124<405.625 943.5>
VStem: 200 200<126.658 690 828 1383.31> 1266 220<500.744 1021.32>
LayerCount: 2
Fore
SplineSet
408 124 m 1,0,-1
 736 124 l 2,1,2
 972 124 972 124 1132 322 c 0,3,4
 1266 489 1266 489 1266 755 c 0,5,6
 1266 1038 1266 1038 1116 1209 c 0,7,8
 961 1386 961 1386 736 1386 c 2,9,-1
 410 1386 l 1,10,11
 400 1300 400 1300 400 1210 c 2,12,-1
 400 821 l 1,13,-1
 508 821 l 2,14,15
 658 821 658 821 808 851 c 1,16,-1
 808 667 l 1,17,18
 658 697 658 697 508 697 c 2,19,-1
 400 697 l 1,20,-1
 400 300 l 2,21,22
 400 209 400 209 408 124 c 1,0,-1
170 0 m 1,23,24
 200 150 200 150 200 300 c 2,25,-1
 200 690 l 1,26,27
 125 682 125 682 50 667 c 1,28,-1
 50 851 l 1,29,30
 125 836 125 836 200 828 c 1,31,-1
 200 1210 l 2,32,33
 200 1360 200 1360 170 1510 c 1,34,-1
 736 1510 l 2,35,36
 1074 1510 1074 1510 1280 1288 c 128,-1,37
 1486 1066 1486 1066 1486 755 c 0,38,39
 1486 462 1486 462 1278 226 c 0,40,41
 1079 0 1079 0 736 0 c 2,42,-1
 170 0 l 1,23,24
EndSplineSet
Validated: 3073
EndChar

StartChar: Dcaron
Encoding: 270 270 214
Width: 1586
Flags: W
HStem: 0 124<404.5 935.883> 1386 124<405.625 943.5>
VStem: 200 200<126.658 1383.31> 1266 220<500.744 1021.32>
LayerCount: 2
Fore
SplineSet
411 1950 m 1,0,-1
 614 1950 l 1,1,2
 693 1871 693 1871 747 1741 c 1,3,4
 801 1868 801 1868 881 1950 c 1,5,-1
 1084 1950 l 1,6,-1
 1084 1940 l 1,7,8
 901 1795 901 1795 827 1620 c 1,9,-1
 668 1620 l 1,10,11
 594 1793 594 1793 411 1940 c 1,12,-1
 411 1950 l 1,0,-1
170 0 m 1,13,14
 200 150 200 150 200 300 c 2,15,-1
 200 1210 l 2,16,17
 200 1360 200 1360 170 1510 c 1,18,-1
 736 1510 l 2,19,20
 1074 1510 1074 1510 1280 1288 c 128,-1,21
 1486 1066 1486 1066 1486 755 c 0,22,23
 1486 462 1486 462 1278 226 c 0,24,25
 1078 0 1078 0 736 0 c 2,26,-1
 170 0 l 1,13,14
408 124 m 1,27,-1
 736 124 l 2,28,29
 972 124 972 124 1132 322 c 0,30,31
 1266 489 1266 489 1266 755 c 0,32,33
 1266 1038 1266 1038 1116 1209 c 0,34,35
 961 1386 961 1386 736 1386 c 2,36,-1
 410 1386 l 1,37,38
 400 1300 400 1300 400 1210 c 2,39,-1
 400 300 l 2,40,41
 400 209 400 209 408 124 c 1,27,-1
EndSplineSet
Validated: 3073
EndChar

StartChar: Dcroat
Encoding: 272 272 215
Width: 1586
Flags: W
HStem: 0 124<404.5 936.312> 697 124<400 803.312> 1386 124<405.625 943.5>
VStem: 200 200<126.658 690 828 1383.31> 1266 220<500.744 1021.32>
LayerCount: 2
Fore
SplineSet
408 124 m 1,0,-1
 736 124 l 2,1,2
 972 124 972 124 1132 322 c 0,3,4
 1266 489 1266 489 1266 755 c 0,5,6
 1266 1038 1266 1038 1116 1209 c 0,7,8
 961 1386 961 1386 736 1386 c 2,9,-1
 410 1386 l 1,10,11
 400 1300 400 1300 400 1210 c 2,12,-1
 400 821 l 1,13,-1
 508 821 l 2,14,15
 658 821 658 821 808 851 c 1,16,-1
 808 667 l 1,17,18
 658 697 658 697 508 697 c 2,19,-1
 400 697 l 1,20,-1
 400 300 l 2,21,22
 400 209 400 209 408 124 c 1,0,-1
170 0 m 1,23,24
 200 150 200 150 200 300 c 2,25,-1
 200 690 l 1,26,27
 125 682 125 682 50 667 c 1,28,-1
 50 851 l 1,29,30
 125 836 125 836 200 828 c 1,31,-1
 200 1210 l 2,32,33
 200 1360 200 1360 170 1510 c 1,34,-1
 736 1510 l 2,35,36
 1074 1510 1074 1510 1280 1288 c 128,-1,37
 1486 1066 1486 1066 1486 755 c 0,38,39
 1486 462 1486 462 1278 226 c 0,40,41
 1079 0 1079 0 736 0 c 2,42,-1
 170 0 l 1,23,24
EndSplineSet
Validated: 3073
EndChar

StartChar: Egrave
Encoding: 200 200 216
Width: 1078
Flags: W
HStem: 0 124<404.689 973.559> 697 124<400 853.312> 1386 124<405.862 853.312>
VStem: 200 200<126.873 697 821 1383.13>
LayerCount: 2
Fore
SplineSet
236 1950 m 1,0,-1
 478 1950 l 1,1,2
 478 1786 478 1786 635 1630 c 1,3,-1
 635 1620 l 9,4,-1
 492 1620 l 17,5,6
 304 1765 304 1765 236 1940 c 1,7,-1
 236 1950 l 1,0,-1
170 0 m 1,8,9
 200 150 200 150 200 300 c 2,10,-1
 200 1210 l 2,11,12
 200 1360 200 1360 170 1510 c 1,13,-1
 858 1510 l 1,14,-1
 858 1356 l 1,15,16
 708 1386 708 1386 558 1386 c 2,17,-1
 410 1386 l 1,18,19
 400 1294 400 1294 400 1210 c 2,20,-1
 400 821 l 1,21,-1
 558 821 l 2,22,23
 708 821 708 821 858 851 c 1,24,-1
 858 667 l 1,25,26
 708 697 708 697 558 697 c 2,27,-1
 400 697 l 1,28,-1
 400 300 l 2,29,30
 400 216 400 216 408 124 c 1,31,-1
 678 124 l 2,32,33
 836 124 836 124 978 154 c 1,34,-1
 978 0 l 1,35,-1
 170 0 l 1,8,9
EndSplineSet
Validated: 3073
EndChar

StartChar: Eacute
Encoding: 201 201 217
Width: 1078
Flags: W
HStem: 0 124<404.689 973.559> 697 124<400 853.312> 1386 124<405.862 853.312>
VStem: 200 200<126.873 697 821 1383.13>
LayerCount: 2
Fore
SplineSet
882 1950 m 1,0,-1
 882 1940 l 1,1,2
 814 1765 814 1765 626 1620 c 9,3,-1
 483 1620 l 17,4,-1
 483 1630 l 1,5,6
 640 1786 640 1786 640 1950 c 1,7,-1
 882 1950 l 1,0,-1
170 0 m 1,8,9
 200 150 200 150 200 300 c 2,10,-1
 200 1210 l 2,11,12
 200 1360 200 1360 170 1510 c 1,13,-1
 858 1510 l 1,14,-1
 858 1356 l 1,15,16
 708 1386 708 1386 558 1386 c 2,17,-1
 410 1386 l 1,18,19
 400 1294 400 1294 400 1210 c 2,20,-1
 400 821 l 1,21,-1
 558 821 l 2,22,23
 708 821 708 821 858 851 c 1,24,-1
 858 667 l 1,25,26
 708 697 708 697 558 697 c 2,27,-1
 400 697 l 1,28,-1
 400 300 l 2,29,30
 400 216 400 216 408 124 c 1,31,-1
 678 124 l 2,32,33
 836 124 836 124 978 154 c 1,34,-1
 978 0 l 1,35,-1
 170 0 l 1,8,9
EndSplineSet
Validated: 3073
EndChar

StartChar: Ecircumflex
Encoding: 202 202 218
Width: 1078
Flags: W
HStem: 0 124<404.689 973.559> 697 124<400 853.312> 1386 124<405.862 853.312>
VStem: 200 200<126.873 697 821 1383.13>
LayerCount: 2
Fore
SplineSet
438 1950 m 1,0,-1
 597 1950 l 1,1,2
 671 1775 671 1775 854 1630 c 1,3,-1
 854 1620 l 1,4,-1
 651 1620 l 1,5,6
 571 1702 571 1702 517 1829 c 1,7,8
 463 1699 463 1699 384 1620 c 1,9,-1
 181 1620 l 1,10,-1
 181 1630 l 1,11,12
 364 1777 364 1777 438 1950 c 1,0,-1
170 0 m 1,13,14
 200 150 200 150 200 300 c 2,15,-1
 200 1210 l 2,16,17
 200 1360 200 1360 170 1510 c 1,18,-1
 858 1510 l 1,19,-1
 858 1356 l 1,20,21
 708 1386 708 1386 558 1386 c 2,22,-1
 410 1386 l 1,23,24
 400 1294 400 1294 400 1210 c 2,25,-1
 400 821 l 1,26,-1
 558 821 l 2,27,28
 708 821 708 821 858 851 c 1,29,-1
 858 667 l 1,30,31
 708 697 708 697 558 697 c 2,32,-1
 400 697 l 1,33,-1
 400 300 l 2,34,35
 400 216 400 216 408 124 c 1,36,-1
 678 124 l 2,37,38
 836 124 836 124 978 154 c 1,39,-1
 978 0 l 1,40,-1
 170 0 l 1,13,14
EndSplineSet
Validated: 3073
EndChar

StartChar: Edieresis
Encoding: 203 203 219
Width: 1078
Flags: W
HStem: 0 124<404.689 973.559> 697 124<400 853.312> 1386 124<405.862 853.312> 1686 264<289.191 470.809 645.191 826.809>
VStem: 200 200<126.873 697 821 1383.13> 250 260<1725.71 1910.29> 606 260<1725.71 1910.29>
LayerCount: 2
Fore
SplineSet
606 1818 m 128,-1,1
 606 1873 606 1873 644 1911.5 c 128,-1,2
 682 1950 682 1950 736 1950 c 128,-1,3
 790 1950 790 1950 828 1911.5 c 128,-1,4
 866 1873 866 1873 866 1818 c 128,-1,5
 866 1763 866 1763 828 1724.5 c 128,-1,6
 790 1686 790 1686 736 1686 c 128,-1,7
 682 1686 682 1686 644 1724.5 c 128,-1,0
 606 1763 606 1763 606 1818 c 128,-1,1
250 1818 m 128,-1,9
 250 1873 250 1873 288 1911.5 c 128,-1,10
 326 1950 326 1950 380 1950 c 128,-1,11
 434 1950 434 1950 472 1911.5 c 128,-1,12
 510 1873 510 1873 510 1818 c 128,-1,13
 510 1763 510 1763 472 1724.5 c 128,-1,14
 434 1686 434 1686 380 1686 c 128,-1,15
 326 1686 326 1686 288 1724.5 c 128,-1,8
 250 1763 250 1763 250 1818 c 128,-1,9
170 0 m 1,16,17
 200 150 200 150 200 300 c 2,18,-1
 200 1210 l 2,19,20
 200 1360 200 1360 170 1510 c 1,21,-1
 858 1510 l 1,22,-1
 858 1356 l 1,23,24
 708 1386 708 1386 558 1386 c 2,25,-1
 410 1386 l 1,26,27
 400 1294 400 1294 400 1210 c 2,28,-1
 400 821 l 1,29,-1
 558 821 l 2,30,31
 708 821 708 821 858 851 c 1,32,-1
 858 667 l 1,33,34
 708 697 708 697 558 697 c 2,35,-1
 400 697 l 1,36,-1
 400 300 l 2,37,38
 400 216 400 216 408 124 c 1,39,-1
 678 124 l 2,40,41
 836 124 836 124 978 154 c 1,42,-1
 978 0 l 1,43,-1
 170 0 l 1,16,17
EndSplineSet
Validated: 3073
EndChar

StartChar: Emacron
Encoding: 274 274 220
Width: 1078
Flags: W
HStem: 0 124<404.689 973.559> 697 124<400 853.312> 1386 124<405.862 853.312> 1730 124<229.688 820.251>
VStem: 200 200<126.873 697 821 1383.13>
LayerCount: 2
Fore
SplineSet
225 1884 m 1,0,1
 375 1854 375 1854 525 1854 c 0,2,3
 673 1854 673 1854 825 1884 c 1,4,-1
 825 1700 l 1,5,6
 674 1730 674 1730 525 1730 c 0,7,8
 375 1730 375 1730 225 1700 c 1,9,-1
 225 1884 l 1,0,1
170 0 m 1,10,11
 200 150 200 150 200 300 c 2,12,-1
 200 1210 l 2,13,14
 200 1360 200 1360 170 1510 c 1,15,-1
 858 1510 l 1,16,-1
 858 1356 l 1,17,18
 708 1386 708 1386 558 1386 c 2,19,-1
 410 1386 l 1,20,21
 400 1294 400 1294 400 1210 c 2,22,-1
 400 821 l 1,23,-1
 558 821 l 2,24,25
 708 821 708 821 858 851 c 1,26,-1
 858 667 l 1,27,28
 708 697 708 697 558 697 c 2,29,-1
 400 697 l 1,30,-1
 400 300 l 2,31,32
 400 216 400 216 408 124 c 1,33,-1
 678 124 l 2,34,35
 836 124 836 124 978 154 c 1,36,-1
 978 0 l 1,37,-1
 170 0 l 1,10,11
EndSplineSet
Validated: 3073
EndChar

StartChar: Ebreve
Encoding: 276 276 221
Width: 1078
Flags: W
HStem: 0 124<404.689 973.559> 697 124<400 853.312> 1386 124<405.862 853.312> 1681 134<359.219 710.781>
VStem: 200 200<126.873 697 821 1383.13>
LayerCount: 2
Fore
SplineSet
235 1950 m 17,0,-1
 245 1950 l 1,1,2
 364 1815 364 1815 535 1815 c 128,-1,3
 706 1815 706 1815 825 1950 c 1,4,5
 835 1950 l 9,6,-1
 835 1757 l 1,7,8
 699 1681 699 1681 535 1681 c 128,-1,9
 371 1681 371 1681 235 1757 c 1,10,-1
 235 1950 l 17,0,-1
170 0 m 1,11,12
 200 150 200 150 200 300 c 2,13,-1
 200 1210 l 2,14,15
 200 1360 200 1360 170 1510 c 1,16,-1
 858 1510 l 1,17,-1
 858 1356 l 1,18,19
 708 1386 708 1386 558 1386 c 2,20,-1
 410 1386 l 1,21,22
 400 1294 400 1294 400 1210 c 2,23,-1
 400 821 l 1,24,-1
 558 821 l 2,25,26
 708 821 708 821 858 851 c 1,27,-1
 858 667 l 1,28,29
 708 697 708 697 558 697 c 2,30,-1
 400 697 l 1,31,-1
 400 300 l 2,32,33
 400 216 400 216 408 124 c 1,34,-1
 678 124 l 2,35,36
 836 124 836 124 978 154 c 1,37,-1
 978 0 l 1,38,-1
 170 0 l 1,11,12
EndSplineSet
Validated: 3073
EndChar

StartChar: Edotaccent
Encoding: 278 278 222
Width: 1078
Flags: W
HStem: 0 124<404.689 973.559> 697 124<400 853.312> 1386 124<405.862 853.312> 1686 264<461.191 642.809>
VStem: 200 200<126.873 697 821 1383.13> 422 260<1725.71 1910.29>
LayerCount: 2
Fore
SplineSet
422 1818 m 128,-1,1
 422 1873 422 1873 460 1911.5 c 128,-1,2
 498 1950 498 1950 552 1950 c 128,-1,3
 606 1950 606 1950 644 1911.5 c 128,-1,4
 682 1873 682 1873 682 1818 c 128,-1,5
 682 1763 682 1763 644 1724.5 c 128,-1,6
 606 1686 606 1686 552 1686 c 128,-1,7
 498 1686 498 1686 460 1724.5 c 128,-1,0
 422 1763 422 1763 422 1818 c 128,-1,1
170 0 m 1,8,9
 200 150 200 150 200 300 c 2,10,-1
 200 1210 l 2,11,12
 200 1360 200 1360 170 1510 c 1,13,-1
 858 1510 l 1,14,-1
 858 1356 l 1,15,16
 708 1386 708 1386 558 1386 c 2,17,-1
 410 1386 l 1,18,19
 400 1294 400 1294 400 1210 c 2,20,-1
 400 821 l 1,21,-1
 558 821 l 2,22,23
 708 821 708 821 858 851 c 1,24,-1
 858 667 l 1,25,26
 708 697 708 697 558 697 c 2,27,-1
 400 697 l 1,28,-1
 400 300 l 2,29,30
 400 216 400 216 408 124 c 1,31,-1
 678 124 l 2,32,33
 836 124 836 124 978 154 c 1,34,-1
 978 0 l 1,35,-1
 170 0 l 1,8,9
EndSplineSet
Validated: 3073
EndChar

StartChar: Eogonek
Encoding: 280 280 223
Width: 1078
Flags: W
HStem: -430 138<859.578 967> 0 154<483.938 782 877.129 978> 0 124<404.689 779.965> 697 124<400 853.312> 1386 124<405.862 853.312>
VStem: 200 200<126.873 697 821 1383.13> 691 151<-272.598 -60.9934>
LayerCount: 2
Fore
SplineSet
170 0 m 1,0,1
 200 150 200 150 200 300 c 2,2,-1
 200 1210 l 2,3,4
 200 1360 200 1360 170 1510 c 1,5,-1
 858 1510 l 1,6,-1
 858 1356 l 1,7,8
 708 1386 708 1386 558 1386 c 2,9,-1
 410 1386 l 1,10,11
 400 1294 400 1294 400 1210 c 2,12,-1
 400 821 l 1,13,-1
 558 821 l 2,14,15
 708 821 708 821 858 851 c 1,16,-1
 858 667 l 1,17,18
 708 697 708 697 558 697 c 2,19,-1
 400 697 l 1,20,-1
 400 300 l 2,21,22
 400 216 400 216 408 124 c 1,23,-1
 678 124 l 2,24,25
 836 124 836 124 978 154 c 1,26,-1
 978 0 l 1,27,-1
 910 0 l 1,28,29
 842 -71 842 -71 842 -181 c 0,30,31
 842 -292 842 -292 967 -292 c 1,32,-1
 967 -430 l 1,33,34
 691 -430 691 -430 691 -223 c 0,35,36
 691 -98 691 -98 782 0 c 1,37,-1
 170 0 l 1,0,1
EndSplineSet
Validated: 3073
EndChar

StartChar: Ecaron
Encoding: 282 282 224
Width: 1078
Flags: W
HStem: 0 124<404.689 973.559> 697 124<400 853.312> 1386 124<405.862 853.312>
VStem: 200 200<126.873 697 821 1383.13>
LayerCount: 2
Fore
SplineSet
211 1950 m 1,0,-1
 414 1950 l 1,1,2
 493 1871 493 1871 547 1741 c 1,3,4
 601 1868 601 1868 681 1950 c 1,5,-1
 884 1950 l 1,6,-1
 884 1940 l 1,7,8
 701 1795 701 1795 627 1620 c 1,9,-1
 468 1620 l 1,10,11
 394 1793 394 1793 211 1940 c 1,12,-1
 211 1950 l 1,0,-1
170 0 m 1,13,14
 200 150 200 150 200 300 c 2,15,-1
 200 1210 l 2,16,17
 200 1360 200 1360 170 1510 c 1,18,-1
 858 1510 l 1,19,-1
 858 1356 l 1,20,21
 708 1386 708 1386 558 1386 c 2,22,-1
 410 1386 l 1,23,24
 400 1294 400 1294 400 1210 c 2,25,-1
 400 821 l 1,26,-1
 558 821 l 2,27,28
 708 821 708 821 858 851 c 1,29,-1
 858 667 l 1,30,31
 708 697 708 697 558 697 c 2,32,-1
 400 697 l 1,33,-1
 400 300 l 2,34,35
 400 216 400 216 408 124 c 1,36,-1
 678 124 l 2,37,38
 836 124 836 124 978 154 c 1,39,-1
 978 0 l 1,40,-1
 170 0 l 1,13,14
EndSplineSet
Validated: 3073
EndChar

StartChar: uni0191
Encoding: 401 401 225
Width: 1038
Flags: W
HStem: -430 10<20 25.5811> 697 124<400 853.312> 1386 124<405.862 853.312>
VStem: 200 200<-292.865 697 821 1383.13>
LayerCount: 2
Fore
SplineSet
20 -430 m 9,0,-1
 20 -420 l 1,1,2
 200 -337 200 -337 200 -116 c 2,3,-1
 200 1210 l 2,4,5
 200 1360 200 1360 170 1510 c 1,6,-1
 858 1510 l 1,7,-1
 858 1356 l 1,8,9
 708 1386 708 1386 558 1386 c 2,10,-1
 410 1386 l 1,11,12
 400 1294 400 1294 400 1210 c 2,13,-1
 400 821 l 1,14,-1
 558 821 l 2,15,16
 708 821 708 821 858 851 c 1,17,-1
 858 667 l 1,18,19
 708 697 708 697 558 697 c 2,20,-1
 400 697 l 1,21,-1
 400 -116 l 2,22,23
 400 -430 400 -430 20 -430 c 9,0,-1
EndSplineSet
Validated: 3073
EndChar

StartChar: Gcircumflex
Encoding: 284 284 226
Width: 1626
Flags: W
HStem: -20 126<657.447 1047.65> 667 154<918 1275.09> 697 123<922.688 1276> 1114 21G<1286 1308> 1404 126<657.527 1050.79>
VStem: 100 220<493.478 1015.58> 1276 200<300.469 697>
LayerCount: 2
Fore
SplineSet
768 1950 m 1,0,-1
 927 1950 l 1,1,2
 1001 1775 1001 1775 1184 1630 c 1,3,-1
 1184 1620 l 1,4,-1
 981 1620 l 1,5,6
 901 1702 901 1702 847 1829 c 1,7,8
 793 1699 793 1699 714 1620 c 1,9,-1
 511 1620 l 1,10,-1
 511 1630 l 1,11,12
 694 1777 694 1777 768 1950 c 1,0,-1
1476 820 m 9,13,-1
 1476 319 l 1,14,15
 1239 -20 1239 -20 853 -20 c 0,16,17
 539 -20 539 -20 318 208 c 0,18,19
 100 433 100 433 100 755 c 0,20,21
 100 1075 100 1075 320 1302.5 c 128,-1,22
 540 1530 540 1530 853 1530 c 0,23,24
 1113 1530 1113 1530 1308 1373 c 1,25,-1
 1308 1114 l 1,26,-1
 1298 1114 l 1,27,28
 1274 1157 1274 1157 1243 1198 c 0,29,30
 1085 1404 1085 1404 853 1404 c 0,31,32
 620 1404 620 1404 463 1198 c 0,33,34
 320 1010 320 1010 320 755 c 0,35,36
 320 498 320 498 463 312 c 0,37,38
 621 106 621 106 853 106 c 0,39,40
 1112 106 1112 106 1276 360 c 1,41,-1
 1276 697 l 17,42,-1
 1218 697 l 2,43,44
 1068 697 1068 697 918 667 c 1,45,-1
 918 821 l 1,46,-1
 1476 820 l 9,13,-1
EndSplineSet
Validated: 3073
EndChar

StartChar: Gbreve
Encoding: 286 286 227
Width: 1626
Flags: W
HStem: -20 126<657.447 1047.65> 667 154<918 1275.09> 697 123<922.688 1276> 1114 21G<1286 1308> 1404 126<657.527 1050.79> 1681 134<679.219 1030.78>
VStem: 100 220<493.478 1015.58> 1276 200<300.469 697>
LayerCount: 2
Fore
SplineSet
555 1950 m 17,0,-1
 565 1950 l 1,1,2
 684 1815 684 1815 855 1815 c 128,-1,3
 1026 1815 1026 1815 1145 1950 c 1,4,5
 1155 1950 l 9,6,-1
 1155 1757 l 1,7,8
 1019 1681 1019 1681 855 1681 c 128,-1,9
 691 1681 691 1681 555 1757 c 1,10,-1
 555 1950 l 17,0,-1
1476 820 m 9,11,-1
 1476 319 l 1,12,13
 1239 -20 1239 -20 853 -20 c 0,14,15
 539 -20 539 -20 318 208 c 0,16,17
 100 433 100 433 100 755 c 0,18,19
 100 1075 100 1075 320 1302.5 c 128,-1,20
 540 1530 540 1530 853 1530 c 0,21,22
 1113 1530 1113 1530 1308 1373 c 1,23,-1
 1308 1114 l 1,24,-1
 1298 1114 l 1,25,26
 1274 1157 1274 1157 1243 1198 c 0,27,28
 1085 1404 1085 1404 853 1404 c 0,29,30
 620 1404 620 1404 463 1198 c 0,31,32
 320 1010 320 1010 320 755 c 0,33,34
 320 498 320 498 463 312 c 0,35,36
 621 106 621 106 853 106 c 0,37,38
 1112 106 1112 106 1276 360 c 1,39,-1
 1276 697 l 17,40,-1
 1218 697 l 2,41,42
 1068 697 1068 697 918 667 c 1,43,-1
 918 821 l 1,44,-1
 1476 820 l 9,11,-1
EndSplineSet
Validated: 3073
EndChar

StartChar: Gdotaccent
Encoding: 288 288 228
Width: 1626
Flags: W
HStem: -20 126<657.447 1047.65> 667 154<918 1275.09> 697 123<922.688 1276> 1114 21G<1286 1308> 1404 126<657.527 1050.79> 1686 264<761.191 942.809>
VStem: 100 220<493.478 1015.58> 722 260<1725.71 1910.29> 1276 200<300.469 697>
LayerCount: 2
Fore
SplineSet
722 1818 m 128,-1,1
 722 1873 722 1873 760 1911.5 c 128,-1,2
 798 1950 798 1950 852 1950 c 128,-1,3
 906 1950 906 1950 944 1911.5 c 128,-1,4
 982 1873 982 1873 982 1818 c 128,-1,5
 982 1763 982 1763 944 1724.5 c 128,-1,6
 906 1686 906 1686 852 1686 c 128,-1,7
 798 1686 798 1686 760 1724.5 c 128,-1,0
 722 1763 722 1763 722 1818 c 128,-1,1
1476 820 m 9,8,-1
 1476 319 l 1,9,10
 1239 -20 1239 -20 853 -20 c 0,11,12
 539 -20 539 -20 318 208 c 0,13,14
 100 433 100 433 100 755 c 0,15,16
 100 1075 100 1075 320 1302.5 c 128,-1,17
 540 1530 540 1530 853 1530 c 0,18,19
 1113 1530 1113 1530 1308 1373 c 1,20,-1
 1308 1114 l 1,21,-1
 1298 1114 l 1,22,23
 1274 1157 1274 1157 1243 1198 c 0,24,25
 1085 1404 1085 1404 853 1404 c 0,26,27
 620 1404 620 1404 463 1198 c 0,28,29
 320 1010 320 1010 320 755 c 0,30,31
 320 498 320 498 463 312 c 0,32,33
 621 106 621 106 853 106 c 0,34,35
 1112 106 1112 106 1276 360 c 1,36,-1
 1276 697 l 17,37,-1
 1218 697 l 2,38,39
 1068 697 1068 697 918 667 c 1,40,-1
 918 821 l 1,41,-1
 1476 820 l 9,8,-1
EndSplineSet
Validated: 3073
EndChar

